<svg xmlns="http://www.w3.org/2000/svg" xmlns:xlink="http://www.w3.org/1999/xlink" contentStyleType="text/css" height="279px" preserveAspectRatio="none" style="width:347px;height:279px;background:#FFFFFF;" version="1.1" viewBox="0 0 347 279" width="347px" zoomAndPan="magnify"><title>System Sequence Diagram</title><defs/><g><text fill="#000000" font-family="sans-serif" font-size="14" font-weight="bold" lengthAdjust="spacing" textLength="189.7725" x="77.98" y="28.5352">System Sequence Diagram</text><rect fill="#FFFFFF" height="87.9316" style="stroke:#181818;stroke-width:1.0;" width="10" x="159.7305" y="121.7754"/><rect fill="#FFFFFF" height="29.3105" style="stroke:#181818;stroke-width:1.0;" width="10" x="321.4609" y="151.0859"/><line style="stroke:#181818;stroke-width:0.5;stroke-dasharray:5.0,5.0;" x1="164.5483" x2="164.5483" y1="90.4648" y2="227.707"/><line style="stroke:#181818;stroke-width:0.5;stroke-dasharray:5.0,5.0;" x1="326.1895" x2="326.1895" y1="90.4648" y2="227.707"/><rect fill="#E2E2F0" height="46.9766" rx="2.5" ry="2.5" style="stroke:#181818;stroke-width:0.5;" width="76.3643" x="126.5483" y="42.4883"/><text fill="#000000" font-family="sans-serif" font-size="14" font-style="italic" lengthAdjust="spacing" textLength="62.3643" x="133.5483" y="63.0234">&#171;system&#187;</text><text fill="#000000" font-family="sans-serif" font-size="14" lengthAdjust="spacing" textLength="48.0977" x="140.6816" y="79.5117">System</text><rect fill="#E2E2F0" height="46.9766" rx="2.5" ry="2.5" style="stroke:#181818;stroke-width:0.5;" width="76.3643" x="126.5483" y="226.707"/><text fill="#000000" font-family="sans-serif" font-size="14" font-style="italic" lengthAdjust="spacing" textLength="62.3643" x="133.5483" y="247.2422">&#171;system&#187;</text><text fill="#000000" font-family="sans-serif" font-size="14" lengthAdjust="spacing" textLength="48.0977" x="140.6816" y="263.7305">System</text><rect fill="#E2E2F0" height="30.4883" rx="2.5" ry="2.5" style="stroke:#181818;stroke-width:0.5;" width="30.543" x="311.1895" y="58.9766"/><text fill="#000000" font-family="sans-serif" font-size="14" lengthAdjust="spacing" textLength="16.543" x="318.1895" y="79.5117">ad</text><rect fill="#E2E2F0" height="30.4883" rx="2.5" ry="2.5" style="stroke:#181818;stroke-width:0.5;" width="30.543" x="311.1895" y="226.707"/><text fill="#000000" font-family="sans-serif" font-size="14" lengthAdjust="spacing" textLength="16.543" x="318.1895" y="247.2422">ad</text><rect fill="#FFFFFF" height="87.9316" style="stroke:#181818;stroke-width:1.0;" width="10" x="159.7305" y="121.7754"/><rect fill="#FFFFFF" height="29.3105" style="stroke:#181818;stroke-width:1.0;" width="10" x="321.4609" y="151.0859"/><ellipse cx="4.5" cy="121.0254" fill="#000000" rx="4" ry="4" style="stroke:#181818;stroke-width:1.5;"/><polygon fill="#181818" points="147.7305,117.7754,157.7305,121.7754,147.7305,125.7754,151.7305,121.7754" style="stroke:#181818;stroke-width:1.0;"/><line style="stroke:#181818;stroke-width:1.0;" x1="9" x2="153.7305" y1="121.7754" y2="121.7754"/><text fill="#000000" font-family="sans-serif" font-size="13" font-weight="bold" lengthAdjust="spacing" textLength="8.5757" x="12" y="117.0332">1</text><text fill="#000000" font-family="sans-serif" font-size="13" lengthAdjust="spacing" textLength="120.1548" x="24.5757" y="117.0332">POST /api/patients</text><polygon fill="#181818" points="309.4609,147.0859,319.4609,151.0859,309.4609,155.0859,313.4609,151.0859" style="stroke:#181818;stroke-width:1.0;"/><line style="stroke:#181818;stroke-width:1.0;" x1="169.7305" x2="315.4609" y1="151.0859" y2="151.0859"/><text fill="#000000" font-family="sans-serif" font-size="13" font-weight="bold" lengthAdjust="spacing" textLength="8.5757" x="176.7305" y="146.3438">2</text><text fill="#000000" font-family="sans-serif" font-size="13" lengthAdjust="spacing" textLength="120.1548" x="189.3062" y="146.3438">POST /api/patients</text><polygon fill="#181818" points="180.7305,176.3965,170.7305,180.3965,180.7305,184.3965,176.7305,180.3965" style="stroke:#181818;stroke-width:1.0;"/><line style="stroke:#181818;stroke-width:1.0;stroke-dasharray:2.0,2.0;" x1="174.7305" x2="325.4609" y1="180.3965" y2="180.3965"/><text fill="#000000" font-family="sans-serif" font-size="13" font-weight="bold" lengthAdjust="spacing" textLength="8.5757" x="186.7305" y="175.6543">3</text><text fill="#000000" font-family="sans-serif" font-size="13" lengthAdjust="spacing" textLength="77.7969" x="199.3062" y="175.6543">201 Created</text><polygon fill="#181818" points="11,205.707,1,209.707,11,213.707,7,209.707" style="stroke:#181818;stroke-width:1.0;"/><line style="stroke:#181818;stroke-width:1.0;stroke-dasharray:2.0,2.0;" x1="5" x2="163.7305" y1="209.707" y2="209.707"/><text fill="#000000" font-family="sans-serif" font-size="13" font-weight="bold" lengthAdjust="spacing" textLength="8.5757" x="17" y="204.9648">4</text><text fill="#000000" font-family="sans-serif" font-size="13" lengthAdjust="spacing" textLength="77.7969" x="29.5757" y="204.9648">201 Created</text><!--SRC=[VOqn3i8m34LtdyBgmXG2Z5LL1jX1AXSmYGMHcZGa3b9lJmGTc3hwl_U_Dq-Hc5kjuqX1YX-tPl8wywjmCAoieqSY3o1EHiPXpi8UXmNZUS5KP0h5tpa1GAGaphXOzx3vDHgaZ7d6hilVk- -hTvnKNyCMhvVXXfgYqv74SP0CPCIzIRXogBqgabqNoG9PLClaORV7K-8AB5Z-bpgbrepw3pu0]--></g></svg>