<?xml version="1.0" encoding="us-ascii" standalone="no"?><svg xmlns="http://www.w3.org/2000/svg" xmlns:xlink="http://www.w3.org/1999/xlink" contentStyleType="text/css" height="1316px" preserveAspectRatio="none" style="width:2072px;height:1316px;background:#FFFFFF;" version="1.1" viewBox="0 0 2072 1316" width="2072px" zoomAndPan="magnify"><defs/><g><text fill="#000000" font-family="sans-serif" font-size="14" font-weight="bold" lengthAdjust="spacing" textLength="466" x="802.25" y="28.5352">Sequence Diagram (SD) - US1013 - Rank Candidate Applications</text><rect fill="#FFFFFF" height="1088.1797" style="stroke:#181818;stroke-width:1.0;" width="10" x="68.5" y="128.9766"/><rect fill="#FFFFFF" height="1066.8691" style="stroke:#181818;stroke-width:1.0;" width="10" x="410.5" y="150.2871"/><rect fill="#FFFFFF" height="393.7266" style="stroke:#181818;stroke-width:1.0;" width="10" x="776.5" y="179.5977"/><rect fill="#FFFFFF" height="87.9316" style="stroke:#181818;stroke-width:1.0;" width="10" x="776.5" y="644.9453"/><rect fill="#FFFFFF" height="87.9316" style="stroke:#181818;stroke-width:1.0;" width="10" x="776.5" y="820.8086"/><rect fill="#FFFFFF" height="160.5527" style="stroke:#181818;stroke-width:1.0;" width="10" x="776.5" y="1011.9824"/><rect fill="#FFFFFF" height="86.6211" style="stroke:#181818;stroke-width:1.0;" width="10" x="957" y="208.9082"/><rect fill="#FFFFFF" height="43.3105" style="stroke:#181818;stroke-width:1.0;" width="10" x="1127" y="238.2188"/><rect fill="#FFFFFF" height="58.6211" style="stroke:#181818;stroke-width:1.0;" width="10" x="1258" y="324.8398"/><rect fill="#FFFFFF" height="58.6211" style="stroke:#181818;stroke-width:1.0;" width="10" x="1258" y="412.7715"/><rect fill="#FFFFFF" height="58.6211" style="stroke:#181818;stroke-width:1.0;" width="10" x="1258" y="500.7031"/><rect fill="#FFFFFF" height="29.3105" style="stroke:#181818;stroke-width:1.0;" width="10" x="1424.5" y="674.2559"/><rect fill="#FFFFFF" height="29.3105" style="stroke:#181818;stroke-width:1.0;" width="10" x="1616" y="850.1191"/><rect fill="#FFFFFF" height="29.3105" style="stroke:#181818;stroke-width:1.0;" width="10" x="1915.5" y="1041.293"/><line style="stroke:#181818;stroke-width:0.5;stroke-dasharray:5.0,5.0;" x1="73" x2="73" y1="118.9766" y2="1235.1563"/><line style="stroke:#181818;stroke-width:0.5;stroke-dasharray:5.0,5.0;" x1="415.5" x2="415.5" y1="118.9766" y2="1235.1563"/><line style="stroke:#181818;stroke-width:0.5;stroke-dasharray:5.0,5.0;" x1="781.5" x2="781.5" y1="118.9766" y2="1235.1563"/><line style="stroke:#181818;stroke-width:0.5;stroke-dasharray:5.0,5.0;" x1="961.5" x2="961.5" y1="118.9766" y2="1235.1563"/><line style="stroke:#181818;stroke-width:0.5;stroke-dasharray:5.0,5.0;" x1="1131.5" x2="1131.5" y1="118.9766" y2="1235.1563"/><line style="stroke:#181818;stroke-width:0.5;stroke-dasharray:5.0,5.0;" x1="1262.5" x2="1262.5" y1="118.9766" y2="1235.1563"/><line style="stroke:#181818;stroke-width:0.5;stroke-dasharray:5.0,5.0;" x1="1429.5" x2="1429.5" y1="118.9766" y2="1235.1563"/><line style="stroke:#181818;stroke-width:0.5;stroke-dasharray:5.0,5.0;" x1="1620.5" x2="1620.5" y1="118.9766" y2="1235.1563"/><line style="stroke:#181818;stroke-width:0.5;stroke-dasharray:5.0,5.0;" x1="1799.5" x2="1799.5" y1="118.9766" y2="1235.1563"/><line style="stroke:#181818;stroke-width:0.5;stroke-dasharray:5.0,5.0;" x1="1920.5" x2="1920.5" y1="118.9766" y2="1235.1563"/><line style="stroke:#181818;stroke-width:0.5;stroke-dasharray:5.0,5.0;" x1="2016.5" x2="2016.5" y1="118.9766" y2="1235.1563"/><text fill="#000000" font-family="sans-serif" font-size="14" lengthAdjust="spacing" textLength="131" x="5" y="116.0234">Customer Manager</text><ellipse cx="73.5" cy="50.9883" fill="#E3E3E3" rx="8" ry="8" style="stroke:#181818;stroke-width:0.5;"/><path d="M73.5,58.9883 L73.5,85.9883 M60.5,66.9883 L86.5,66.9883 M73.5,85.9883 L60.5,100.9883 M73.5,85.9883 L86.5,100.9883 " fill="none" style="stroke:#181818;stroke-width:0.5;"/><text fill="#000000" font-family="sans-serif" font-size="14" lengthAdjust="spacing" textLength="131" x="5" y="1247.6914">Customer Manager</text><ellipse cx="73.5" cy="1259.1445" fill="#E3E3E3" rx="8" ry="8" style="stroke:#181818;stroke-width:0.5;"/><path d="M73.5,1267.1445 L73.5,1294.1445 M60.5,1275.1445 L86.5,1275.1445 M73.5,1294.1445 L60.5,1309.1445 M73.5,1294.1445 L86.5,1309.1445 " fill="none" style="stroke:#181818;stroke-width:0.5;"/><rect fill="#E3E3E3" height="30.4883" rx="2.5" ry="2.5" style="stroke:#181818;stroke-width:0.5;" width="136" x="347.5" y="87.4883"/><text fill="#000000" font-family="sans-serif" font-size="14" lengthAdjust="spacing" textLength="122" x="354.5" y="108.0234">:RankCandidateUI</text><rect fill="#E3E3E3" height="30.4883" rx="2.5" ry="2.5" style="stroke:#181818;stroke-width:0.5;" width="136" x="347.5" y="1234.1563"/><text fill="#000000" font-family="sans-serif" font-size="14" lengthAdjust="spacing" textLength="122" x="354.5" y="1254.6914">:RankCandidateUI</text><rect fill="#E3E3E3" height="30.4883" rx="2.5" ry="2.5" style="stroke:#181818;stroke-width:0.5;" width="192" x="685.5" y="87.4883"/><text fill="#000000" font-family="sans-serif" font-size="14" lengthAdjust="spacing" textLength="178" x="692.5" y="108.0234">:RankCandidateController</text><rect fill="#E3E3E3" height="30.4883" rx="2.5" ry="2.5" style="stroke:#181818;stroke-width:0.5;" width="192" x="685.5" y="1234.1563"/><text fill="#000000" font-family="sans-serif" font-size="14" lengthAdjust="spacing" textLength="178" x="692.5" y="1254.6914">:RankCandidateController</text><rect fill="#E3E3E3" height="30.4883" rx="2.5" ry="2.5" style="stroke:#181818;stroke-width:0.5;" width="149" x="887.5" y="87.4883"/><text fill="#000000" font-family="sans-serif" font-size="14" lengthAdjust="spacing" textLength="135" x="894.5" y="108.0234">:PersistencyContext</text><rect fill="#E3E3E3" height="30.4883" rx="2.5" ry="2.5" style="stroke:#181818;stroke-width:0.5;" width="149" x="887.5" y="1234.1563"/><text fill="#000000" font-family="sans-serif" font-size="14" lengthAdjust="spacing" textLength="135" x="894.5" y="1254.6914">:PersistencyContext</text><rect fill="#E3E3E3" height="30.4883" rx="2.5" ry="2.5" style="stroke:#181818;stroke-width:0.5;" width="101" x="1081.5" y="87.4883"/><text fill="#000000" font-family="sans-serif" font-size="14" lengthAdjust="spacing" textLength="87" x="1088.5" y="108.0234">:AppSettings</text><rect fill="#E3E3E3" height="30.4883" rx="2.5" ry="2.5" style="stroke:#181818;stroke-width:0.5;" width="101" x="1081.5" y="1234.1563"/><text fill="#000000" font-family="sans-serif" font-size="14" lengthAdjust="spacing" textLength="87" x="1088.5" y="1254.6914">:AppSettings</text><rect fill="#E3E3E3" height="30.4883" rx="2.5" ry="2.5" style="stroke:#181818;stroke-width:0.5;" width="141" x="1192.5" y="87.4883"/><text fill="#000000" font-family="sans-serif" font-size="14" lengthAdjust="spacing" textLength="127" x="1199.5" y="108.0234">:RepositoryFactory</text><rect fill="#E3E3E3" height="30.4883" rx="2.5" ry="2.5" style="stroke:#181818;stroke-width:0.5;" width="141" x="1192.5" y="1234.1563"/><text fill="#000000" font-family="sans-serif" font-size="14" lengthAdjust="spacing" textLength="127" x="1199.5" y="1254.6914">:RepositoryFactory</text><rect fill="#E3E3E3" height="30.4883" rx="2.5" ry="2.5" style="stroke:#181818;stroke-width:0.5;" width="172" x="1343.5" y="87.4883"/><text fill="#000000" font-family="sans-serif" font-size="14" lengthAdjust="spacing" textLength="158" x="1350.5" y="108.0234">:JobOpeningRepository</text><rect fill="#E3E3E3" height="30.4883" rx="2.5" ry="2.5" style="stroke:#181818;stroke-width:0.5;" width="172" x="1343.5" y="1234.1563"/><text fill="#000000" font-family="sans-serif" font-size="14" lengthAdjust="spacing" textLength="158" x="1350.5" y="1254.6914">:JobOpeningRepository</text><rect fill="#E3E3E3" height="30.4883" rx="2.5" ry="2.5" style="stroke:#181818;stroke-width:0.5;" width="191" x="1525.5" y="87.4883"/><text fill="#000000" font-family="sans-serif" font-size="14" lengthAdjust="spacing" textLength="177" x="1532.5" y="108.0234">:JobApplicationRepository</text><rect fill="#E3E3E3" height="30.4883" rx="2.5" ry="2.5" style="stroke:#181818;stroke-width:0.5;" width="191" x="1525.5" y="1234.1563"/><text fill="#000000" font-family="sans-serif" font-size="14" lengthAdjust="spacing" textLength="177" x="1532.5" y="1254.6914">:JobApplicationRepository</text><rect fill="#E3E3E3" height="30.4883" rx="2.5" ry="2.5" style="stroke:#181818;stroke-width:0.5;" width="147" x="1726.5" y="87.4883"/><text fill="#000000" font-family="sans-serif" font-size="14" lengthAdjust="spacing" textLength="133" x="1733.5" y="108.0234">:RankingRepository</text><rect fill="#E3E3E3" height="30.4883" rx="2.5" ry="2.5" style="stroke:#181818;stroke-width:0.5;" width="147" x="1726.5" y="1234.1563"/><text fill="#000000" font-family="sans-serif" font-size="14" lengthAdjust="spacing" textLength="133" x="1733.5" y="1254.6914">:RankingRepository</text><rect fill="#E3E3E3" height="30.4883" rx="2.5" ry="2.5" style="stroke:#181818;stroke-width:0.5;" width="74" x="1883.5" y="87.4883"/><text fill="#000000" font-family="sans-serif" font-size="14" lengthAdjust="spacing" textLength="60" x="1890.5" y="108.0234">:Ranking</text><rect fill="#E3E3E3" height="30.4883" rx="2.5" ry="2.5" style="stroke:#181818;stroke-width:0.5;" width="74" x="1883.5" y="1234.1563"/><text fill="#000000" font-family="sans-serif" font-size="14" lengthAdjust="spacing" textLength="60" x="1890.5" y="1254.6914">:Ranking</text><rect fill="#E3E3E3" height="30.4883" rx="2.5" ry="2.5" style="stroke:#181818;stroke-width:0.5;" width="99" x="1967.5" y="87.4883"/><text fill="#000000" font-family="sans-serif" font-size="14" lengthAdjust="spacing" textLength="85" x="1974.5" y="108.0234">:JobOpening</text><rect fill="#E3E3E3" height="30.4883" rx="2.5" ry="2.5" style="stroke:#181818;stroke-width:0.5;" width="99" x="1967.5" y="1234.1563"/><text fill="#000000" font-family="sans-serif" font-size="14" lengthAdjust="spacing" textLength="85" x="1974.5" y="1254.6914">:JobOpening</text><rect fill="#FFFFFF" height="1088.1797" style="stroke:#181818;stroke-width:1.0;" width="10" x="68.5" y="128.9766"/><rect fill="#FFFFFF" height="1066.8691" style="stroke:#181818;stroke-width:1.0;" width="10" x="410.5" y="150.2871"/><rect fill="#FFFFFF" height="393.7266" style="stroke:#181818;stroke-width:1.0;" width="10" x="776.5" y="179.5977"/><rect fill="#FFFFFF" height="87.9316" style="stroke:#181818;stroke-width:1.0;" width="10" x="776.5" y="644.9453"/><rect fill="#FFFFFF" height="87.9316" style="stroke:#181818;stroke-width:1.0;" width="10" x="776.5" y="820.8086"/><rect fill="#FFFFFF" height="160.5527" style="stroke:#181818;stroke-width:1.0;" width="10" x="776.5" y="1011.9824"/><rect fill="#FFFFFF" height="86.6211" style="stroke:#181818;stroke-width:1.0;" width="10" x="957" y="208.9082"/><rect fill="#FFFFFF" height="43.3105" style="stroke:#181818;stroke-width:1.0;" width="10" x="1127" y="238.2188"/><rect fill="#FFFFFF" height="58.6211" style="stroke:#181818;stroke-width:1.0;" width="10" x="1258" y="324.8398"/><rect fill="#FFFFFF" height="58.6211" style="stroke:#181818;stroke-width:1.0;" width="10" x="1258" y="412.7715"/><rect fill="#FFFFFF" height="58.6211" style="stroke:#181818;stroke-width:1.0;" width="10" x="1258" y="500.7031"/><rect fill="#FFFFFF" height="29.3105" style="stroke:#181818;stroke-width:1.0;" width="10" x="1424.5" y="674.2559"/><rect fill="#FFFFFF" height="29.3105" style="stroke:#181818;stroke-width:1.0;" width="10" x="1616" y="850.1191"/><rect fill="#FFFFFF" height="29.3105" style="stroke:#181818;stroke-width:1.0;" width="10" x="1915.5" y="1041.293"/><polygon fill="#181818" points="398.5,146.2871,408.5,150.2871,398.5,154.2871,402.5,150.2871" style="stroke:#181818;stroke-width:1.0;"/><line style="stroke:#181818;stroke-width:1.0;stroke-dasharray:2.0,2.0;" x1="78.5" x2="404.5" y1="150.2871" y2="150.2871"/><text fill="#000000" font-family="sans-serif" font-size="13" lengthAdjust="spacing" textLength="41" x="85.5" y="145.5449">show()</text><polygon fill="#181818" points="764.5,175.5977,774.5,179.5977,764.5,183.5977,768.5,179.5977" style="stroke:#181818;stroke-width:1.0;"/><line style="stroke:#181818;stroke-width:1.0;" x1="420.5" x2="770.5" y1="179.5977" y2="179.5977"/><text fill="#000000" font-family="sans-serif" font-size="13" lengthAdjust="spacing" textLength="46" x="427.5" y="174.8555">create()</text><polygon fill="#181818" points="945,204.9082,955,208.9082,945,212.9082,949,208.9082" style="stroke:#181818;stroke-width:1.0;"/><line style="stroke:#181818;stroke-width:1.0;" x1="786.5" x2="951" y1="208.9082" y2="208.9082"/><text fill="#000000" font-family="sans-serif" font-size="13" lengthAdjust="spacing" textLength="83" x="793.5" y="204.166">repositories()</text><polygon fill="#181818" points="1115,234.2188,1125,238.2188,1115,242.2188,1119,238.2188" style="stroke:#181818;stroke-width:1.0;"/><line style="stroke:#181818;stroke-width:1.0;" x1="967" x2="1121" y1="238.2188" y2="238.2188"/><text fill="#000000" font-family="sans-serif" font-size="13" lengthAdjust="spacing" textLength="141" x="974" y="233.4766">getRepositoryFactory()</text><polygon fill="#181818" points="1251,263.5293,1261,267.5293,1251,271.5293,1255,267.5293" style="stroke:#181818;stroke-width:1.0;"/><line style="stroke:#181818;stroke-width:1.0;" x1="1137" x2="1257" y1="267.5293" y2="267.5293"/><text fill="#000000" font-family="sans-serif" font-size="13" lengthAdjust="spacing" textLength="46" x="1144" y="262.7871">create()</text><polygon fill="#181818" points="978,277.5293,968,281.5293,978,285.5293,974,281.5293" style="stroke:#181818;stroke-width:1.0;"/><line style="stroke:#181818;stroke-width:1.0;" x1="972" x2="1131" y1="281.5293" y2="281.5293"/><polygon fill="#181818" points="797.5,291.5293,787.5,295.5293,797.5,299.5293,793.5,295.5293" style="stroke:#181818;stroke-width:1.0;"/><line style="stroke:#181818;stroke-width:1.0;" x1="791.5" x2="961" y1="295.5293" y2="295.5293"/><polygon fill="#181818" points="1246,320.8398,1256,324.8398,1246,328.8398,1250,324.8398" style="stroke:#181818;stroke-width:1.0;"/><line style="stroke:#181818;stroke-width:1.0;" x1="786.5" x2="1252" y1="324.8398" y2="324.8398"/><text fill="#000000" font-family="sans-serif" font-size="13" lengthAdjust="spacing" textLength="86" x="793.5" y="320.0977">jobopenings()</text><polygon fill="#181818" points="1417.5,350.1504,1427.5,354.1504,1417.5,358.1504,1421.5,354.1504" style="stroke:#181818;stroke-width:1.0;"/><line style="stroke:#181818;stroke-width:1.0;" x1="1268" x2="1423.5" y1="354.1504" y2="354.1504"/><text fill="#000000" font-family="sans-serif" font-size="13" lengthAdjust="spacing" textLength="46" x="1275" y="349.4082">create()</text><polygon fill="#181818" points="797.5,379.4609,787.5,383.4609,797.5,387.4609,793.5,383.4609" style="stroke:#181818;stroke-width:1.0;"/><line style="stroke:#181818;stroke-width:1.0;" x1="791.5" x2="1262" y1="383.4609" y2="383.4609"/><text fill="#000000" font-family="sans-serif" font-size="13" lengthAdjust="spacing" textLength="140" x="803.5" y="378.7188">jobOpeningRepository</text><polygon fill="#181818" points="1246,408.7715,1256,412.7715,1246,416.7715,1250,412.7715" style="stroke:#181818;stroke-width:1.0;"/><line style="stroke:#181818;stroke-width:1.0;" x1="786.5" x2="1252" y1="412.7715" y2="412.7715"/><text fill="#000000" font-family="sans-serif" font-size="13" lengthAdjust="spacing" textLength="105" x="793.5" y="408.0293">jobapplications()</text><polygon fill="#181818" points="1609,438.082,1619,442.082,1609,446.082,1613,442.082" style="stroke:#181818;stroke-width:1.0;"/><line style="stroke:#181818;stroke-width:1.0;" x1="1268" x2="1615" y1="442.082" y2="442.082"/><text fill="#000000" font-family="sans-serif" font-size="13" lengthAdjust="spacing" textLength="46" x="1275" y="437.3398">create()</text><polygon fill="#181818" points="797.5,467.3926,787.5,471.3926,797.5,475.3926,793.5,471.3926" style="stroke:#181818;stroke-width:1.0;"/><line style="stroke:#181818;stroke-width:1.0;" x1="791.5" x2="1262" y1="471.3926" y2="471.3926"/><text fill="#000000" font-family="sans-serif" font-size="13" lengthAdjust="spacing" textLength="159" x="803.5" y="466.6504">jobApplicationRepository</text><polygon fill="#181818" points="1246,496.7031,1256,500.7031,1246,504.7031,1250,500.7031" style="stroke:#181818;stroke-width:1.0;"/><line style="stroke:#181818;stroke-width:1.0;" x1="786.5" x2="1252" y1="500.7031" y2="500.7031"/><text fill="#000000" font-family="sans-serif" font-size="13" lengthAdjust="spacing" textLength="63" x="793.5" y="495.9609">rankings()</text><polygon fill="#181818" points="1788,526.0137,1798,530.0137,1788,534.0137,1792,530.0137" style="stroke:#181818;stroke-width:1.0;"/><line style="stroke:#181818;stroke-width:1.0;" x1="1268" x2="1794" y1="530.0137" y2="530.0137"/><text fill="#000000" font-family="sans-serif" font-size="13" lengthAdjust="spacing" textLength="46" x="1275" y="525.2715">create()</text><polygon fill="#181818" points="797.5,555.3242,787.5,559.3242,797.5,563.3242,793.5,559.3242" style="stroke:#181818;stroke-width:1.0;"/><line style="stroke:#181818;stroke-width:1.0;" x1="791.5" x2="1262" y1="559.3242" y2="559.3242"/><text fill="#000000" font-family="sans-serif" font-size="13" lengthAdjust="spacing" textLength="115" x="803.5" y="554.582">rankingRepository</text><polygon fill="#181818" points="431.5,569.3242,421.5,573.3242,431.5,577.3242,427.5,573.3242" style="stroke:#181818;stroke-width:1.0;"/><line style="stroke:#181818;stroke-width:1.0;" x1="425.5" x2="780.5" y1="573.3242" y2="573.3242"/><line style="stroke:#181818;stroke-width:1.0;" x1="420.5" x2="462.5" y1="602.6348" y2="602.6348"/><line style="stroke:#181818;stroke-width:1.0;" x1="462.5" x2="462.5" y1="602.6348" y2="615.6348"/><line style="stroke:#181818;stroke-width:1.0;" x1="421.5" x2="462.5" y1="615.6348" y2="615.6348"/><polygon fill="#181818" points="431.5,611.6348,421.5,615.6348,431.5,619.6348,427.5,615.6348" style="stroke:#181818;stroke-width:1.0;"/><text fill="#000000" font-family="sans-serif" font-size="13" lengthAdjust="spacing" textLength="57" x="427.5" y="597.8926">doShow()</text><polygon fill="#181818" points="764.5,640.9453,774.5,644.9453,764.5,648.9453,768.5,644.9453" style="stroke:#181818;stroke-width:1.0;"/><line style="stroke:#181818;stroke-width:1.0;" x1="420.5" x2="770.5" y1="644.9453" y2="644.9453"/><text fill="#000000" font-family="sans-serif" font-size="13" lengthAdjust="spacing" textLength="108" x="427.5" y="640.2031">listJobOpenings()</text><polygon fill="#181818" points="1412.5,670.2559,1422.5,674.2559,1412.5,678.2559,1416.5,674.2559" style="stroke:#181818;stroke-width:1.0;"/><line style="stroke:#181818;stroke-width:1.0;" x1="786.5" x2="1418.5" y1="674.2559" y2="674.2559"/><text fill="#000000" font-family="sans-serif" font-size="13" lengthAdjust="spacing" textLength="50" x="793.5" y="669.5137">findAll()</text><polygon fill="#181818" points="797.5,699.5664,787.5,703.5664,797.5,707.5664,793.5,703.5664" style="stroke:#181818;stroke-width:1.0;"/><line style="stroke:#181818;stroke-width:1.0;" x1="791.5" x2="1428.5" y1="703.5664" y2="703.5664"/><text fill="#000000" font-family="sans-serif" font-size="13" lengthAdjust="spacing" textLength="78" x="803.5" y="698.8242">jobopenings</text><polygon fill="#181818" points="431.5,728.877,421.5,732.877,431.5,736.877,427.5,732.877" style="stroke:#181818;stroke-width:1.0;"/><line style="stroke:#181818;stroke-width:1.0;" x1="425.5" x2="780.5" y1="732.877" y2="732.877"/><text fill="#000000" font-family="sans-serif" font-size="13" lengthAdjust="spacing" textLength="78" x="437.5" y="728.1348">jobopenings</text><polygon fill="#181818" points="89.5,758.1875,79.5,762.1875,89.5,766.1875,85.5,762.1875" style="stroke:#181818;stroke-width:1.0;"/><line style="stroke:#181818;stroke-width:1.0;stroke-dasharray:2.0,2.0;" x1="83.5" x2="409.5" y1="762.1875" y2="762.1875"/><text fill="#000000" font-family="sans-serif" font-size="13" lengthAdjust="spacing" textLength="308" x="95.5" y="757.4453">displays job openings and requests to select one</text><polygon fill="#181818" points="398.5,787.498,408.5,791.498,398.5,795.498,402.5,791.498" style="stroke:#181818;stroke-width:1.0;"/><line style="stroke:#181818;stroke-width:1.0;stroke-dasharray:2.0,2.0;" x1="78.5" x2="404.5" y1="791.498" y2="791.498"/><text fill="#000000" font-family="sans-serif" font-size="13" lengthAdjust="spacing" textLength="71" x="85.5" y="786.7559">selects one</text><polygon fill="#181818" points="764.5,816.8086,774.5,820.8086,764.5,824.8086,768.5,820.8086" style="stroke:#181818;stroke-width:1.0;"/><line style="stroke:#181818;stroke-width:1.0;" x1="420.5" x2="770.5" y1="820.8086" y2="820.8086"/><text fill="#000000" font-family="sans-serif" font-size="13" lengthAdjust="spacing" textLength="236" x="427.5" y="816.0664">listJobApplicationsByJO(jobReference)</text><polygon fill="#181818" points="1604,846.1191,1614,850.1191,1604,854.1191,1608,850.1191" style="stroke:#181818;stroke-width:1.0;"/><line style="stroke:#181818;stroke-width:1.0;" x1="786.5" x2="1610" y1="850.1191" y2="850.1191"/><text fill="#000000" font-family="sans-serif" font-size="13" lengthAdjust="spacing" textLength="201" x="793.5" y="845.377">findByJobOpening(jobReference)</text><polygon fill="#181818" points="797.5,875.4297,787.5,879.4297,797.5,883.4297,793.5,879.4297" style="stroke:#181818;stroke-width:1.0;"/><line style="stroke:#181818;stroke-width:1.0;" x1="791.5" x2="1620" y1="879.4297" y2="879.4297"/><text fill="#000000" font-family="sans-serif" font-size="13" lengthAdjust="spacing" textLength="97" x="803.5" y="874.6875">jobapplications</text><polygon fill="#181818" points="431.5,904.7402,421.5,908.7402,431.5,912.7402,427.5,908.7402" style="stroke:#181818;stroke-width:1.0;"/><line style="stroke:#181818;stroke-width:1.0;" x1="425.5" x2="780.5" y1="908.7402" y2="908.7402"/><text fill="#000000" font-family="sans-serif" font-size="13" lengthAdjust="spacing" textLength="97" x="437.5" y="903.998">jobapplications</text><polygon fill="#181818" points="89.5,949.3613,79.5,953.3613,89.5,957.3613,85.5,953.3613" style="stroke:#181818;stroke-width:1.0;"/><line style="stroke:#181818;stroke-width:1.0;stroke-dasharray:2.0,2.0;" x1="83.5" x2="409.5" y1="953.3613" y2="953.3613"/><text fill="#000000" font-family="sans-serif" font-size="13" lengthAdjust="spacing" textLength="300" x="95.5" y="933.3086">displays job applications and requests to select</text><text fill="#000000" font-family="sans-serif" font-size="13" lengthAdjust="spacing" textLength="72" x="99.5" y="948.6191">one to rank</text><polygon fill="#181818" points="398.5,978.6719,408.5,982.6719,398.5,986.6719,402.5,982.6719" style="stroke:#181818;stroke-width:1.0;"/><line style="stroke:#181818;stroke-width:1.0;stroke-dasharray:2.0,2.0;" x1="78.5" x2="404.5" y1="982.6719" y2="982.6719"/><text fill="#000000" font-family="sans-serif" font-size="13" lengthAdjust="spacing" textLength="150" x="85.5" y="977.9297">selects one and ranks it</text><polygon fill="#181818" points="764.5,1007.9824,774.5,1011.9824,764.5,1015.9824,768.5,1011.9824" style="stroke:#181818;stroke-width:1.0;"/><line style="stroke:#181818;stroke-width:1.0;" x1="420.5" x2="770.5" y1="1011.9824" y2="1011.9824"/><text fill="#000000" font-family="sans-serif" font-size="13" lengthAdjust="spacing" textLength="337" x="427.5" y="1007.2402">rankApplication(jobApplication, ranking, jobOpening)</text><polygon fill="#181818" points="1903.5,1037.293,1913.5,1041.293,1903.5,1045.293,1907.5,1041.293" style="stroke:#181818;stroke-width:1.0;"/><line style="stroke:#181818;stroke-width:1.0;" x1="786.5" x2="1909.5" y1="1041.293" y2="1041.293"/><text fill="#000000" font-family="sans-serif" font-size="13" lengthAdjust="spacing" textLength="275" x="793.5" y="1036.5508">create(jobApplication, ranking, jobOpening)</text><polygon fill="#181818" points="797.5,1066.6035,787.5,1070.6035,797.5,1074.6035,793.5,1070.6035" style="stroke:#181818;stroke-width:1.0;"/><line style="stroke:#181818;stroke-width:1.0;" x1="791.5" x2="1919.5" y1="1070.6035" y2="1070.6035"/><text fill="#000000" font-family="sans-serif" font-size="13" lengthAdjust="spacing" textLength="48" x="803.5" y="1065.8613">ranking</text><polygon fill="#181818" points="1788,1095.9141,1798,1099.9141,1788,1103.9141,1792,1099.9141" style="stroke:#181818;stroke-width:1.0;"/><line style="stroke:#181818;stroke-width:1.0;" x1="786.5" x2="1794" y1="1099.9141" y2="1099.9141"/><text fill="#000000" font-family="sans-serif" font-size="13" lengthAdjust="spacing" textLength="84" x="793.5" y="1095.1719">save(ranking)</text><polygon fill="#181818" points="2005,1125.2246,2015,1129.2246,2005,1133.2246,2009,1129.2246" style="stroke:#181818;stroke-width:1.0;"/><line style="stroke:#181818;stroke-width:1.0;" x1="786.5" x2="2011" y1="1129.2246" y2="1129.2246"/><text fill="#000000" font-family="sans-serif" font-size="13" lengthAdjust="spacing" textLength="130" x="793.5" y="1124.4824">addRanking(ranking)</text><polygon fill="#181818" points="1417.5,1154.5352,1427.5,1158.5352,1417.5,1162.5352,1421.5,1158.5352" style="stroke:#181818;stroke-width:1.0;"/><line style="stroke:#181818;stroke-width:1.0;" x1="786.5" x2="1423.5" y1="1158.5352" y2="1158.5352"/><text fill="#000000" font-family="sans-serif" font-size="13" lengthAdjust="spacing" textLength="109" x="793.5" y="1153.793">save(jobOpening)</text><polygon fill="#181818" points="431.5,1168.5352,421.5,1172.5352,431.5,1176.5352,427.5,1172.5352" style="stroke:#181818;stroke-width:1.0;"/><line style="stroke:#181818;stroke-width:1.0;" x1="425.5" x2="780.5" y1="1172.5352" y2="1172.5352"/><polygon fill="#181818" points="84.5,1213.1563,74.5,1217.1563,84.5,1221.1563,80.5,1217.1563" style="stroke:#181818;stroke-width:1.0;"/><line style="stroke:#181818;stroke-width:1.0;" x1="78.5" x2="414.5" y1="1217.1563" y2="1217.1563"/><text fill="#000000" font-family="sans-serif" font-size="13" lengthAdjust="spacing" textLength="279" x="90.5" y="1197.1035">displays success message and asks if wants</text><text fill="#000000" font-family="sans-serif" font-size="13" lengthAdjust="spacing" textLength="97" x="90.5" y="1212.4141">to rank another</text><!--SRC=[hLV1Rk8m4BtdAqOzKQb8hVRMmqhPL4YBXAY8Ukl5JGnr6-oinvJbxtViaE0wX42M7Yg8txnvzfkP6FmKicIQhM6jfChUjLfpC7h38snMIfPziXLFpQxWe7bcc5mLFW3VMQwsGgvWoGhaKMI48MZA_soup3Wy2RQok57wT0jZU4aVxXz-q8S5av-GC9cBd1aESLaM8cD6A8bHn3AZDDma6pIaISECIHAXRu0X9BE8CXkHYP990pUFbgaXUldjGC6pKn69aaQhejZJTwm53CzSeq13EznP3FzhNF1p4k1eMoatXeu77I1EGocyL2Xejxk9s_Ik4Z49O5FrDY-v99v3W4DEvuisr3lC41ulZfn5ctRH0MkEY3vtIgmoDLyZvwVuiZQJUH7GNpA3yVXdQ1CyKZcfxUZMOPgWq4ot6eQ6R0VhY3NJd1wTvFMiRlDxP9JdEI5ANH-Ou1WIKncu1mGaU9mI75RSjBmEuwWwt0EAiDkP-Cgz1QAtNtBU2gmITkqh2AfLdjYfa_2XtbJbP6kZLASLnSIYgHPRYgkLRcS-ZXHsABJ9qY-KUMEaHsmyIEpHrXegM5UDrADqSRbG7JRr48L1ruKCPpVFaUPqhPwhj6hso_kveDbx631uhSQk2dWfP1uNHKXg9wrxOb5zPL8tJ7Xg3Sdv1t-Qy38RY9qcBnszmB9WExJCK5C38MciqNiR3O9HWBoW5pueoVk6jWFY0Jd4JFy6y6itdOz8su8lkRRNY6iP7DS6KuQcVavbiY_ColMuttL_-hISZmSwVuhq2kxxz1qLy2gji_QxdIkE- -nwg2W9WI3CWEAmeLvbZBwFuBjwqjrvBv8hrSh-bdEOlSDIkmjGdShodJEuZ_dyZQXBiorlP5zyj2UwxM-9HZo5iZpVfxg0ODuazG_Yybh_tpVCzzh6JPPnH5ZJF_hjuEgGeIt39MpfnehmAlSLJMlAlDVCNGhinTDRevliFm00]--></g></svg>