<?xml version="1.0" encoding="us-ascii" standalone="no"?><svg xmlns="http://www.w3.org/2000/svg" xmlns:xlink="http://www.w3.org/1999/xlink" contentStyleType="text/css" height="1116px" preserveAspectRatio="none" style="width:1785px;height:1116px;background:#FFFFFF;" version="1.1" viewBox="0 0 1785 1116" width="1785px" zoomAndPan="magnify"><defs/><g><text fill="#000000" font-family="sans-serif" font-size="14" font-weight="bold" lengthAdjust="spacing" textLength="443" x="672.25" y="28.5352">Sequence Diagram - US 5.1.21 - Edit Existing Operation Type</text><rect fill="#FFFFFF" height="897.2715" style="stroke:#181818;stroke-width:1.0;" width="10" x="25.5" y="128.9766"/><rect fill="#FFFFFF" height="205.1738" style="stroke:#181818;stroke-width:1.0;" width="10" x="494.5" y="150.2871"/><rect fill="#FFFFFF" height="205.1738" style="stroke:#181818;stroke-width:1.0;" width="10" x="494.5" y="384.7715"/><rect fill="#FFFFFF" height="397.9922" style="stroke:#181818;stroke-width:1.0;" width="10" x="494.5" y="619.2559"/><rect fill="#FFFFFF" height="146.5527" style="stroke:#181818;stroke-width:1.0;" width="10" x="890.5" y="179.5977"/><rect fill="#FFFFFF" height="146.5527" style="stroke:#181818;stroke-width:1.0;" width="10" x="890.5" y="414.082"/><rect fill="#FFFFFF" height="339.3711" style="stroke:#181818;stroke-width:1.0;" width="10" x="890.5" y="648.5664"/><rect fill="#FFFFFF" height="87.9316" style="stroke:#181818;stroke-width:1.0;" width="10" x="1269.5" y="208.9082"/><rect fill="#FFFFFF" height="87.9316" style="stroke:#181818;stroke-width:1.0;" width="10" x="1269.5" y="443.3926"/><rect fill="#FFFFFF" height="288.75" style="stroke:#181818;stroke-width:1.0;" width="10" x="1269.5" y="677.877"/><rect fill="#FFFFFF" height="29.3105" style="stroke:#181818;stroke-width:1.0;" width="10" x="1576.5" y="238.2188"/><rect fill="#FFFFFF" height="29.3105" style="stroke:#181818;stroke-width:1.0;" width="10" x="1576.5" y="472.7031"/><rect fill="#FFFFFF" height="53.6211" style="stroke:#181818;stroke-width:1.0;" width="10" x="1576.5" y="707.1875"/><rect fill="#FFFFFF" height="29.3105" style="stroke:#181818;stroke-width:1.0;" width="10" x="1576.5" y="790.1191"/><rect fill="none" height="237.4395" style="stroke:#000000;stroke-width:1.5;" width="969.5" x="809" y="722.1875"/><line style="stroke:#181818;stroke-width:0.5;stroke-dasharray:5.0,5.0;" x1="30" x2="30" y1="118.9766" y2="1035.248"/><line style="stroke:#181818;stroke-width:0.5;stroke-dasharray:5.0,5.0;" x1="499.5" x2="499.5" y1="118.9766" y2="1035.248"/><line style="stroke:#181818;stroke-width:0.5;stroke-dasharray:5.0,5.0;" x1="895" x2="895" y1="118.9766" y2="1035.248"/><line style="stroke:#181818;stroke-width:0.5;stroke-dasharray:5.0,5.0;" x1="1274" x2="1274" y1="118.9766" y2="1035.248"/><line style="stroke:#181818;stroke-width:0.5;stroke-dasharray:5.0,5.0;" x1="1581.5" x2="1581.5" y1="118.9766" y2="1035.248"/><line style="stroke:#181818;stroke-width:0.5;stroke-dasharray:5.0,5.0;" x1="1718.5" x2="1718.5" y1="118.9766" y2="1035.248"/><text fill="#000000" font-family="sans-serif" font-size="14" lengthAdjust="spacing" textLength="45" x="5" y="116.0234">Admin</text><ellipse cx="30.5" cy="50.9883" fill="#E2E2F0" rx="8" ry="8" style="stroke:#181818;stroke-width:0.5;"/><path d="M30.5,58.9883 L30.5,85.9883 M17.5,66.9883 L43.5,66.9883 M30.5,85.9883 L17.5,100.9883 M30.5,85.9883 L43.5,100.9883 " fill="none" style="stroke:#181818;stroke-width:0.5;"/><text fill="#000000" font-family="sans-serif" font-size="14" lengthAdjust="spacing" textLength="45" x="5" y="1047.7832">Admin</text><ellipse cx="30.5" cy="1059.2363" fill="#E2E2F0" rx="8" ry="8" style="stroke:#181818;stroke-width:0.5;"/><path d="M30.5,1067.2363 L30.5,1094.2363 M17.5,1075.2363 L43.5,1075.2363 M30.5,1094.2363 L17.5,1109.2363 M30.5,1094.2363 L43.5,1109.2363 " fill="none" style="stroke:#181818;stroke-width:0.5;"/><rect fill="#E2E2F0" height="46.9766" rx="2.5" ry="2.5" style="stroke:#181818;stroke-width:0.5;" width="130" x="434.5" y="71"/><text fill="#000000" font-family="sans-serif" font-size="14" font-style="italic" lengthAdjust="spacing" textLength="101" x="449" y="91.5352">&#171;presentation&#187;</text><text fill="#000000" font-family="sans-serif" font-size="14" lengthAdjust="spacing" textLength="116" x="441.5" y="108.0234">OperationTypeUI</text><rect fill="#E2E2F0" height="46.9766" rx="2.5" ry="2.5" style="stroke:#181818;stroke-width:0.5;" width="130" x="434.5" y="1034.248"/><text fill="#000000" font-family="sans-serif" font-size="14" font-style="italic" lengthAdjust="spacing" textLength="101" x="449" y="1054.7832">&#171;presentation&#187;</text><text fill="#000000" font-family="sans-serif" font-size="14" lengthAdjust="spacing" textLength="116" x="441.5" y="1071.2715">OperationTypeUI</text><rect fill="#E2E2F0" height="46.9766" rx="2.5" ry="2.5" style="stroke:#181818;stroke-width:0.5;" width="153" x="819" y="71"/><text fill="#000000" font-family="sans-serif" font-size="14" font-style="italic" lengthAdjust="spacing" textLength="90" x="850.5" y="91.5352">&#171;application&#187;</text><text fill="#000000" font-family="sans-serif" font-size="14" lengthAdjust="spacing" textLength="139" x="826" y="108.0234">OperationController</text><rect fill="#E2E2F0" height="46.9766" rx="2.5" ry="2.5" style="stroke:#181818;stroke-width:0.5;" width="153" x="819" y="1034.248"/><text fill="#000000" font-family="sans-serif" font-size="14" font-style="italic" lengthAdjust="spacing" textLength="90" x="850.5" y="1054.7832">&#171;application&#187;</text><text fill="#000000" font-family="sans-serif" font-size="14" lengthAdjust="spacing" textLength="139" x="826" y="1071.2715">OperationController</text><rect fill="#E2E2F0" height="46.9766" rx="2.5" ry="2.5" style="stroke:#181818;stroke-width:0.5;" width="131" x="1209" y="71"/><text fill="#000000" font-family="sans-serif" font-size="14" font-style="italic" lengthAdjust="spacing" textLength="66" x="1241.5" y="91.5352">&#171;domain&#187;</text><text fill="#000000" font-family="sans-serif" font-size="14" lengthAdjust="spacing" textLength="117" x="1216" y="108.0234">OperationService</text><rect fill="#E2E2F0" height="46.9766" rx="2.5" ry="2.5" style="stroke:#181818;stroke-width:0.5;" width="131" x="1209" y="1034.248"/><text fill="#000000" font-family="sans-serif" font-size="14" font-style="italic" lengthAdjust="spacing" textLength="66" x="1241.5" y="1054.7832">&#171;domain&#187;</text><text fill="#000000" font-family="sans-serif" font-size="14" lengthAdjust="spacing" textLength="117" x="1216" y="1071.2715">OperationService</text><rect fill="#E2E2F0" height="46.9766" rx="2.5" ry="2.5" style="stroke:#181818;stroke-width:0.5;" width="156" x="1503.5" y="71"/><text fill="#000000" font-family="sans-serif" font-size="14" font-style="italic" lengthAdjust="spacing" textLength="84" x="1539.5" y="91.5352">&#171;repository&#187;</text><text fill="#000000" font-family="sans-serif" font-size="14" lengthAdjust="spacing" textLength="142" x="1510.5" y="108.0234">OperationRepository</text><rect fill="#E2E2F0" height="46.9766" rx="2.5" ry="2.5" style="stroke:#181818;stroke-width:0.5;" width="156" x="1503.5" y="1034.248"/><text fill="#000000" font-family="sans-serif" font-size="14" font-style="italic" lengthAdjust="spacing" textLength="84" x="1539.5" y="1054.7832">&#171;repository&#187;</text><text fill="#000000" font-family="sans-serif" font-size="14" lengthAdjust="spacing" textLength="142" x="1510.5" y="1071.2715">OperationRepository</text><rect fill="#E2E2F0" height="46.9766" rx="2.5" ry="2.5" style="stroke:#181818;stroke-width:0.5;" width="99" x="1669.5" y="71"/><text fill="#000000" font-family="sans-serif" font-size="14" font-style="italic" lengthAdjust="spacing" textLength="61" x="1688.5" y="91.5352">&#171;service&#187;</text><text fill="#000000" font-family="sans-serif" font-size="14" lengthAdjust="spacing" textLength="85" x="1676.5" y="108.0234">AuditService</text><rect fill="#E2E2F0" height="46.9766" rx="2.5" ry="2.5" style="stroke:#181818;stroke-width:0.5;" width="99" x="1669.5" y="1034.248"/><text fill="#000000" font-family="sans-serif" font-size="14" font-style="italic" lengthAdjust="spacing" textLength="61" x="1688.5" y="1054.7832">&#171;service&#187;</text><text fill="#000000" font-family="sans-serif" font-size="14" lengthAdjust="spacing" textLength="85" x="1676.5" y="1071.2715">AuditService</text><rect fill="#FFFFFF" height="897.2715" style="stroke:#181818;stroke-width:1.0;" width="10" x="25.5" y="128.9766"/><rect fill="#FFFFFF" height="205.1738" style="stroke:#181818;stroke-width:1.0;" width="10" x="494.5" y="150.2871"/><rect fill="#FFFFFF" height="205.1738" style="stroke:#181818;stroke-width:1.0;" width="10" x="494.5" y="384.7715"/><rect fill="#FFFFFF" height="397.9922" style="stroke:#181818;stroke-width:1.0;" width="10" x="494.5" y="619.2559"/><rect fill="#FFFFFF" height="146.5527" style="stroke:#181818;stroke-width:1.0;" width="10" x="890.5" y="179.5977"/><rect fill="#FFFFFF" height="146.5527" style="stroke:#181818;stroke-width:1.0;" width="10" x="890.5" y="414.082"/><rect fill="#FFFFFF" height="339.3711" style="stroke:#181818;stroke-width:1.0;" width="10" x="890.5" y="648.5664"/><rect fill="#FFFFFF" height="87.9316" style="stroke:#181818;stroke-width:1.0;" width="10" x="1269.5" y="208.9082"/><rect fill="#FFFFFF" height="87.9316" style="stroke:#181818;stroke-width:1.0;" width="10" x="1269.5" y="443.3926"/><rect fill="#FFFFFF" height="288.75" style="stroke:#181818;stroke-width:1.0;" width="10" x="1269.5" y="677.877"/><rect fill="#FFFFFF" height="29.3105" style="stroke:#181818;stroke-width:1.0;" width="10" x="1576.5" y="238.2188"/><rect fill="#FFFFFF" height="29.3105" style="stroke:#181818;stroke-width:1.0;" width="10" x="1576.5" y="472.7031"/><rect fill="#FFFFFF" height="53.6211" style="stroke:#181818;stroke-width:1.0;" width="10" x="1576.5" y="707.1875"/><rect fill="#FFFFFF" height="29.3105" style="stroke:#181818;stroke-width:1.0;" width="10" x="1576.5" y="790.1191"/><polygon fill="#181818" points="482.5,146.2871,492.5,150.2871,482.5,154.2871,486.5,150.2871" style="stroke:#181818;stroke-width:1.0;"/><line style="stroke:#181818;stroke-width:1.0;" x1="35.5" x2="488.5" y1="150.2871" y2="150.2871"/><text fill="#000000" font-family="sans-serif" font-size="13" lengthAdjust="spacing" textLength="245" x="42.5" y="145.5449">Request to edit existing operation type</text><polygon fill="#181818" points="878.5,175.5977,888.5,179.5977,878.5,183.5977,882.5,179.5977" style="stroke:#181818;stroke-width:1.0;"/><line style="stroke:#181818;stroke-width:1.0;" x1="504.5" x2="884.5" y1="179.5977" y2="179.5977"/><text fill="#000000" font-family="sans-serif" font-size="13" lengthAdjust="spacing" textLength="205" x="511.5" y="174.8555">requestExistingOperationTypes()</text><polygon fill="#181818" points="1257.5,204.9082,1267.5,208.9082,1257.5,212.9082,1261.5,208.9082" style="stroke:#181818;stroke-width:1.0;"/><line style="stroke:#181818;stroke-width:1.0;" x1="900.5" x2="1263.5" y1="208.9082" y2="208.9082"/><text fill="#000000" font-family="sans-serif" font-size="13" lengthAdjust="spacing" textLength="178" x="907.5" y="204.166">getExistingOperationTypes()</text><polygon fill="#181818" points="1564.5,234.2188,1574.5,238.2188,1564.5,242.2188,1568.5,238.2188" style="stroke:#181818;stroke-width:1.0;"/><line style="stroke:#181818;stroke-width:1.0;" x1="1279.5" x2="1570.5" y1="238.2188" y2="238.2188"/><text fill="#000000" font-family="sans-serif" font-size="13" lengthAdjust="spacing" textLength="149" x="1286.5" y="233.4766">findAllOperationTypes()</text><polygon fill="#181818" points="1290.5,263.5293,1280.5,267.5293,1290.5,271.5293,1286.5,267.5293" style="stroke:#181818;stroke-width:1.0;"/><line style="stroke:#181818;stroke-width:1.0;stroke-dasharray:2.0,2.0;" x1="1284.5" x2="1580.5" y1="267.5293" y2="267.5293"/><text fill="#000000" font-family="sans-serif" font-size="13" lengthAdjust="spacing" textLength="156" x="1296.5" y="262.7871">existingOperationNames</text><polygon fill="#181818" points="911.5,292.8398,901.5,296.8398,911.5,300.8398,907.5,296.8398" style="stroke:#181818;stroke-width:1.0;"/><line style="stroke:#181818;stroke-width:1.0;stroke-dasharray:2.0,2.0;" x1="905.5" x2="1273.5" y1="296.8398" y2="296.8398"/><text fill="#000000" font-family="sans-serif" font-size="13" lengthAdjust="spacing" textLength="156" x="917.5" y="292.0977">existingOperationNames</text><polygon fill="#181818" points="515.5,322.1504,505.5,326.1504,515.5,330.1504,511.5,326.1504" style="stroke:#181818;stroke-width:1.0;"/><line style="stroke:#181818;stroke-width:1.0;stroke-dasharray:2.0,2.0;" x1="509.5" x2="894.5" y1="326.1504" y2="326.1504"/><text fill="#000000" font-family="sans-serif" font-size="13" lengthAdjust="spacing" textLength="156" x="521.5" y="321.4082">existingOperationNames</text><polygon fill="#181818" points="46.5,351.4609,36.5,355.4609,46.5,359.4609,42.5,355.4609" style="stroke:#181818;stroke-width:1.0;"/><line style="stroke:#181818;stroke-width:1.0;stroke-dasharray:2.0,2.0;" x1="40.5" x2="498.5" y1="355.4609" y2="355.4609"/><text fill="#000000" font-family="sans-serif" font-size="13" lengthAdjust="spacing" textLength="303" x="52.5" y="350.7188">Display list of existing operation types to select</text><polygon fill="#181818" points="482.5,380.7715,492.5,384.7715,482.5,388.7715,486.5,384.7715" style="stroke:#181818;stroke-width:1.0;"/><line style="stroke:#181818;stroke-width:1.0;" x1="35.5" x2="488.5" y1="384.7715" y2="384.7715"/><text fill="#000000" font-family="sans-serif" font-size="13" lengthAdjust="spacing" textLength="177" x="42.5" y="380.0293">Select operation type to edit</text><polygon fill="#181818" points="878.5,410.082,888.5,414.082,878.5,418.082,882.5,414.082" style="stroke:#181818;stroke-width:1.0;"/><line style="stroke:#181818;stroke-width:1.0;" x1="504.5" x2="884.5" y1="414.082" y2="414.082"/><text fill="#000000" font-family="sans-serif" font-size="13" lengthAdjust="spacing" textLength="263" x="511.5" y="409.3398">requestOperationDetails(operationTypeId)</text><polygon fill="#181818" points="1257.5,439.3926,1267.5,443.3926,1257.5,447.3926,1261.5,443.3926" style="stroke:#181818;stroke-width:1.0;"/><line style="stroke:#181818;stroke-width:1.0;" x1="900.5" x2="1263.5" y1="443.3926" y2="443.3926"/><text fill="#000000" font-family="sans-serif" font-size="13" lengthAdjust="spacing" textLength="236" x="907.5" y="438.6504">getOperationDetails(operationTypeId)</text><polygon fill="#181818" points="1564.5,468.7031,1574.5,472.7031,1564.5,476.7031,1568.5,472.7031" style="stroke:#181818;stroke-width:1.0;"/><line style="stroke:#181818;stroke-width:1.0;" x1="1279.5" x2="1570.5" y1="472.7031" y2="472.7031"/><text fill="#000000" font-family="sans-serif" font-size="13" lengthAdjust="spacing" textLength="161" x="1286.5" y="467.9609">findById(operationTypeId)</text><polygon fill="#181818" points="1290.5,498.0137,1280.5,502.0137,1290.5,506.0137,1286.5,502.0137" style="stroke:#181818;stroke-width:1.0;"/><line style="stroke:#181818;stroke-width:1.0;stroke-dasharray:2.0,2.0;" x1="1284.5" x2="1580.5" y1="502.0137" y2="502.0137"/><text fill="#000000" font-family="sans-serif" font-size="13" lengthAdjust="spacing" textLength="104" x="1296.5" y="497.2715">operationDetails</text><polygon fill="#181818" points="911.5,527.3242,901.5,531.3242,911.5,535.3242,907.5,531.3242" style="stroke:#181818;stroke-width:1.0;"/><line style="stroke:#181818;stroke-width:1.0;stroke-dasharray:2.0,2.0;" x1="905.5" x2="1273.5" y1="531.3242" y2="531.3242"/><text fill="#000000" font-family="sans-serif" font-size="13" lengthAdjust="spacing" textLength="104" x="917.5" y="526.582">operationDetails</text><polygon fill="#181818" points="515.5,556.6348,505.5,560.6348,515.5,564.6348,511.5,560.6348" style="stroke:#181818;stroke-width:1.0;"/><line style="stroke:#181818;stroke-width:1.0;stroke-dasharray:2.0,2.0;" x1="509.5" x2="894.5" y1="560.6348" y2="560.6348"/><text fill="#000000" font-family="sans-serif" font-size="13" lengthAdjust="spacing" textLength="188" x="521.5" y="555.8926">Display operation type details</text><polygon fill="#181818" points="46.5,585.9453,36.5,589.9453,46.5,593.9453,42.5,589.9453" style="stroke:#181818;stroke-width:1.0;"/><line style="stroke:#181818;stroke-width:1.0;stroke-dasharray:2.0,2.0;" x1="40.5" x2="498.5" y1="589.9453" y2="589.9453"/><text fill="#000000" font-family="sans-serif" font-size="13" lengthAdjust="spacing" textLength="237" x="52.5" y="585.2031">Display current operation type details</text><polygon fill="#181818" points="482.5,615.2559,492.5,619.2559,482.5,623.2559,486.5,619.2559" style="stroke:#181818;stroke-width:1.0;"/><line style="stroke:#181818;stroke-width:1.0;" x1="35.5" x2="488.5" y1="619.2559" y2="619.2559"/><text fill="#000000" font-family="sans-serif" font-size="13" lengthAdjust="spacing" textLength="440" x="42.5" y="614.5137">Submit updated operation type details (name, required staff, duration)</text><polygon fill="#181818" points="878.5,644.5664,888.5,648.5664,878.5,652.5664,882.5,648.5664" style="stroke:#181818;stroke-width:1.0;"/><line style="stroke:#181818;stroke-width:1.0;" x1="504.5" x2="884.5" y1="648.5664" y2="648.5664"/><text fill="#000000" font-family="sans-serif" font-size="13" lengthAdjust="spacing" textLength="367" x="511.5" y="643.8242">submitUpdatedOperationDetails(updatedOperationDetails)</text><polygon fill="#181818" points="1257.5,673.877,1267.5,677.877,1257.5,681.877,1261.5,677.877" style="stroke:#181818;stroke-width:1.0;"/><line style="stroke:#181818;stroke-width:1.0;" x1="900.5" x2="1263.5" y1="677.877" y2="677.877"/><text fill="#000000" font-family="sans-serif" font-size="13" lengthAdjust="spacing" textLength="350" x="907.5" y="673.1348">validateOperationName(updatedOperationDetails.name)</text><polygon fill="#181818" points="1564.5,703.1875,1574.5,707.1875,1564.5,711.1875,1568.5,707.1875" style="stroke:#181818;stroke-width:1.0;"/><line style="stroke:#181818;stroke-width:1.0;" x1="1279.5" x2="1570.5" y1="707.1875" y2="707.1875"/><text fill="#000000" font-family="sans-serif" font-size="13" lengthAdjust="spacing" textLength="278" x="1286.5" y="702.4453">findByName(updatedOperationDetails.name)</text><path d="M809,722.1875 L871,722.1875 L871,729.498 L861,739.498 L809,739.498 L809,722.1875 " fill="#EEEEEE" style="stroke:#000000;stroke-width:1.5;"/><rect fill="none" height="237.4395" style="stroke:#000000;stroke-width:1.5;" width="969.5" x="809" y="722.1875"/><text fill="#000000" font-family="sans-serif" font-size="13" font-weight="bold" lengthAdjust="spacing" textLength="17" x="824" y="735.7559">alt</text><text fill="#000000" font-family="sans-serif" font-size="11" font-weight="bold" lengthAdjust="spacing" textLength="233" x="886" y="734.8223">[Operation name is unique or unchanged]</text><polygon fill="#181818" points="1290.5,756.8086,1280.5,760.8086,1290.5,764.8086,1286.5,760.8086" style="stroke:#181818;stroke-width:1.0;"/><line style="stroke:#181818;stroke-width:1.0;stroke-dasharray:2.0,2.0;" x1="1284.5" x2="1580.5" y1="760.8086" y2="760.8086"/><text fill="#000000" font-family="sans-serif" font-size="13" lengthAdjust="spacing" textLength="152" x="1296.5" y="756.0664">no conflicting operation</text><polygon fill="#181818" points="1564.5,786.1191,1574.5,790.1191,1564.5,794.1191,1568.5,790.1191" style="stroke:#181818;stroke-width:1.0;"/><line style="stroke:#181818;stroke-width:1.0;" x1="1279.5" x2="1570.5" y1="790.1191" y2="790.1191"/><text fill="#000000" font-family="sans-serif" font-size="13" lengthAdjust="spacing" textLength="155" x="1286.5" y="785.377">update(operationDetails)</text><polygon fill="#181818" points="1290.5,815.4297,1280.5,819.4297,1290.5,823.4297,1286.5,819.4297" style="stroke:#181818;stroke-width:1.0;"/><line style="stroke:#181818;stroke-width:1.0;stroke-dasharray:2.0,2.0;" x1="1284.5" x2="1580.5" y1="819.4297" y2="819.4297"/><text fill="#000000" font-family="sans-serif" font-size="13" lengthAdjust="spacing" textLength="195" x="1296.5" y="814.6875">operationUpdatedConfirmation</text><polygon fill="#181818" points="1707,844.7402,1717,848.7402,1707,852.7402,1711,848.7402" style="stroke:#181818;stroke-width:1.0;"/><line style="stroke:#181818;stroke-width:1.0;" x1="1279.5" x2="1713" y1="848.7402" y2="848.7402"/><text fill="#000000" font-family="sans-serif" font-size="13" lengthAdjust="spacing" textLength="321" x="1286.5" y="843.998">logOperationTypeUpdate(updatedOperationDetails)</text><polygon fill="#181818" points="911.5,874.0508,901.5,878.0508,911.5,882.0508,907.5,878.0508" style="stroke:#181818;stroke-width:1.0;"/><line style="stroke:#181818;stroke-width:1.0;stroke-dasharray:2.0,2.0;" x1="905.5" x2="1268.5" y1="878.0508" y2="878.0508"/><text fill="#000000" font-family="sans-serif" font-size="13" lengthAdjust="spacing" textLength="143" x="917.5" y="873.3086">operationUpdateResult</text><line style="stroke:#000000;stroke-width:1.0;stroke-dasharray:2.0,2.0;" x1="809" x2="1778.5" y1="887.0508" y2="887.0508"/><text fill="#000000" font-family="sans-serif" font-size="11" font-weight="bold" lengthAdjust="spacing" textLength="175" x="814" y="897.6855">[Operation name is not unique]</text><polygon fill="#181818" points="1290.5,918.3164,1280.5,922.3164,1290.5,926.3164,1286.5,922.3164" style="stroke:#181818;stroke-width:1.0;"/><line style="stroke:#181818;stroke-width:1.0;stroke-dasharray:2.0,2.0;" x1="1284.5" x2="1580.5" y1="922.3164" y2="922.3164"/><text fill="#000000" font-family="sans-serif" font-size="13" lengthAdjust="spacing" textLength="262" x="1296.5" y="917.5742">existing operation with same name found</text><polygon fill="#181818" points="911.5,947.627,901.5,951.627,911.5,955.627,907.5,951.627" style="stroke:#181818;stroke-width:1.0;"/><line style="stroke:#181818;stroke-width:1.0;stroke-dasharray:2.0,2.0;" x1="905.5" x2="1268.5" y1="951.627" y2="951.627"/><text fill="#000000" font-family="sans-serif" font-size="13" lengthAdjust="spacing" textLength="143" x="917.5" y="946.8848">operationUpdateResult</text><polygon fill="#181818" points="515.5,983.9375,505.5,987.9375,515.5,991.9375,511.5,987.9375" style="stroke:#181818;stroke-width:1.0;"/><line style="stroke:#181818;stroke-width:1.0;stroke-dasharray:2.0,2.0;" x1="509.5" x2="894.5" y1="987.9375" y2="987.9375"/><text fill="#000000" font-family="sans-serif" font-size="13" lengthAdjust="spacing" textLength="294" x="521.5" y="983.1953">operationUpdateResult(operatingUpdateResult)</text><polygon fill="#181818" points="46.5,1013.248,36.5,1017.248,46.5,1021.248,42.5,1017.248" style="stroke:#181818;stroke-width:1.0;"/><line style="stroke:#181818;stroke-width:1.0;stroke-dasharray:2.0,2.0;" x1="40.5" x2="498.5" y1="1017.248" y2="1017.248"/><text fill="#000000" font-family="sans-serif" font-size="13" lengthAdjust="spacing" textLength="211" x="52.5" y="1012.5059">Confirms result (success or error)</text><!--SRC=[bPLDZzem48Rl-HKZJY0jI5kfbmWXRRjxuD9AK7w06qzOIuwT-eEMVz-nax3v92m75Cmyu_7xpiHEE8bmn3yULORmAjZPi0BMS3h2rytpviipFRznuU3jdx1Eg3FyBD4m9xI2NzSIauHbJXjOlF12g0Km2omy9IKpJcIYPCh1uiO4vBIFOLx0TbiQjAXS_6-tcu2-Q-MCbX9D13FQUhjbPIb5TXyyehc832DbgsSYkIwOc8OEM6ehw4pNo1dwIP2vhVR15q_oj7TYOO6GUaUA3ng92tDOQnE_ORqZ3L8u1F6j0wS10uYDqFecj6k4hf9uaP1uX9CIAHKO-SQVZjHskVh0A3f9WdX4rhMbSCO7o3ewIHeHAKCG98LSAFuYvJGQmfAeuRgzBVRt_C4Aj0d7BlYnONFQUV1MR3ngBV8y5jK9iX8H_Kbf6cmfsHKaiQ3pAMTiiCwYnCor4v9BNQEFCQG7DxRFk7kh-nKT4z8kTLlnFN_0va-aQ2GSjVlRTS_li1E6wzxk3rXz3narkV6hfp0VudVCphmnz4Pw8CdGOF-xe07s9QU_-KG6M2fglQTeh30KPXtByoVWlWfUJNM2ZTbFLVA1cNvyVQulBaoA07RcOYhP9bJ-U9jy9bLi0IPTwtO94I3edb22HW3eZl4gUsVgZ3m1-WnxJEbmo9okXUwKnl1-luMrGU5LjKizK3543_axRLxxH5TNBapnS1dnxaX1wkxRkCesRN8dos1-Alg0rakNeBGuehBIhbPwucGZBx-_mhs33GbYbbnxnUSFELCUfHWRzFQSZvADQUhSNbtrfxuxzBKzuPOFqR2qFilGsj1jQ8msgzx0_mS0]--></g></svg>