<?xml version="1.0" encoding="us-ascii" standalone="no"?><svg xmlns="http://www.w3.org/2000/svg" xmlns:xlink="http://www.w3.org/1999/xlink" contentStyleType="text/css" height="556px" preserveAspectRatio="none" style="width:902px;height:556px;background:#FFFFFF;" version="1.1" viewBox="0 0 902 556" width="902px" zoomAndPan="magnify"><defs/><g><text fill="#000000" font-family="sans-serif" font-size="14" font-weight="bold" lengthAdjust="spacing" textLength="273" x="316.75" y="28.5352">System Sequence Diagram - US 5.1.21</text><rect fill="#FFFFFF" height="29.3105" style="stroke:#181818;stroke-width:1.0;" width="10" x="504.5" y="150.2871"/><rect fill="#FFFFFF" height="29.3105" style="stroke:#181818;stroke-width:1.0;" width="10" x="504.5" y="208.9082"/><rect fill="#FFFFFF" height="197.5078" style="stroke:#181818;stroke-width:1.0;" width="10" x="504.5" y="267.5293"/><rect fill="none" height="133.1973" style="stroke:#000000;stroke-width:1.5;" width="760.5" x="10" y="324.8398"/><line style="stroke:#181818;stroke-width:0.5;stroke-dasharray:5.0,5.0;" x1="45" x2="45" y1="118.9766" y2="475.0371"/><line style="stroke:#181818;stroke-width:0.5;stroke-dasharray:5.0,5.0;" x1="509.5" x2="509.5" y1="118.9766" y2="475.0371"/><text fill="#000000" font-family="sans-serif" font-size="14" lengthAdjust="spacing" textLength="45" x="20" y="116.0234">Admin</text><ellipse cx="45.5" cy="50.9883" fill="#E2E2F0" rx="8" ry="8" style="stroke:#181818;stroke-width:0.5;"/><path d="M45.5,58.9883 L45.5,85.9883 M32.5,66.9883 L58.5,66.9883 M45.5,85.9883 L32.5,100.9883 M45.5,85.9883 L58.5,100.9883 " fill="none" style="stroke:#181818;stroke-width:0.5;"/><text fill="#000000" font-family="sans-serif" font-size="14" lengthAdjust="spacing" textLength="45" x="20" y="487.5723">Admin</text><ellipse cx="45.5" cy="499.0254" fill="#E2E2F0" rx="8" ry="8" style="stroke:#181818;stroke-width:0.5;"/><path d="M45.5,507.0254 L45.5,534.0254 M32.5,515.0254 L58.5,515.0254 M45.5,534.0254 L32.5,549.0254 M45.5,534.0254 L58.5,549.0254 " fill="none" style="stroke:#181818;stroke-width:0.5;"/><text fill="#000000" font-family="sans-serif" font-size="14" lengthAdjust="spacing" textLength="48" x="482.5" y="116.0234">System</text><ellipse cx="509.5" cy="50.9883" fill="#E2E2F0" rx="8" ry="8" style="stroke:#181818;stroke-width:0.5;"/><path d="M509.5,58.9883 L509.5,85.9883 M496.5,66.9883 L522.5,66.9883 M509.5,85.9883 L496.5,100.9883 M509.5,85.9883 L522.5,100.9883 " fill="none" style="stroke:#181818;stroke-width:0.5;"/><text fill="#000000" font-family="sans-serif" font-size="14" lengthAdjust="spacing" textLength="48" x="482.5" y="487.5723">System</text><ellipse cx="509.5" cy="499.0254" fill="#E2E2F0" rx="8" ry="8" style="stroke:#181818;stroke-width:0.5;"/><path d="M509.5,507.0254 L509.5,534.0254 M496.5,515.0254 L522.5,515.0254 M509.5,534.0254 L496.5,549.0254 M509.5,534.0254 L522.5,549.0254 " fill="none" style="stroke:#181818;stroke-width:0.5;"/><rect fill="#FFFFFF" height="29.3105" style="stroke:#181818;stroke-width:1.0;" width="10" x="504.5" y="150.2871"/><rect fill="#FFFFFF" height="29.3105" style="stroke:#181818;stroke-width:1.0;" width="10" x="504.5" y="208.9082"/><rect fill="#FFFFFF" height="197.5078" style="stroke:#181818;stroke-width:1.0;" width="10" x="504.5" y="267.5293"/><polygon fill="#181818" points="492.5,146.2871,502.5,150.2871,492.5,154.2871,496.5,150.2871" style="stroke:#181818;stroke-width:1.0;"/><line style="stroke:#181818;stroke-width:1.0;" x1="45.5" x2="498.5" y1="150.2871" y2="150.2871"/><text fill="#000000" font-family="sans-serif" font-size="13" lengthAdjust="spacing" textLength="245" x="52.5" y="145.5449">Request to edit existing operation type</text><polygon fill="#181818" points="56.5,175.5977,46.5,179.5977,56.5,183.5977,52.5,179.5977" style="stroke:#181818;stroke-width:1.0;"/><line style="stroke:#181818;stroke-width:1.0;" x1="50.5" x2="508.5" y1="179.5977" y2="179.5977"/><text fill="#000000" font-family="sans-serif" font-size="13" lengthAdjust="spacing" textLength="245" x="62.5" y="174.8555">Display list of existing operation types</text><polygon fill="#181818" points="492.5,204.9082,502.5,208.9082,492.5,212.9082,496.5,208.9082" style="stroke:#181818;stroke-width:1.0;"/><line style="stroke:#181818;stroke-width:1.0;" x1="45.5" x2="498.5" y1="208.9082" y2="208.9082"/><text fill="#000000" font-family="sans-serif" font-size="13" lengthAdjust="spacing" textLength="177" x="52.5" y="204.166">Select operation type to edit</text><polygon fill="#181818" points="56.5,234.2188,46.5,238.2188,56.5,242.2188,52.5,238.2188" style="stroke:#181818;stroke-width:1.0;"/><line style="stroke:#181818;stroke-width:1.0;" x1="50.5" x2="508.5" y1="238.2188" y2="238.2188"/><text fill="#000000" font-family="sans-serif" font-size="13" lengthAdjust="spacing" textLength="244" x="62.5" y="233.4766">Display selected operation type details</text><polygon fill="#181818" points="492.5,263.5293,502.5,267.5293,492.5,271.5293,496.5,267.5293" style="stroke:#181818;stroke-width:1.0;"/><line style="stroke:#181818;stroke-width:1.0;" x1="45.5" x2="498.5" y1="267.5293" y2="267.5293"/><text fill="#000000" font-family="sans-serif" font-size="13" lengthAdjust="spacing" textLength="440" x="52.5" y="262.7871">Submit updated operation type details (name, required staff, duration)</text><line style="stroke:#181818;stroke-width:1.0;" x1="514.5" x2="556.5" y1="296.8398" y2="296.8398"/><line style="stroke:#181818;stroke-width:1.0;" x1="556.5" x2="556.5" y1="296.8398" y2="309.8398"/><line style="stroke:#181818;stroke-width:1.0;" x1="515.5" x2="556.5" y1="309.8398" y2="309.8398"/><polygon fill="#181818" points="525.5,305.8398,515.5,309.8398,525.5,313.8398,521.5,309.8398" style="stroke:#181818;stroke-width:1.0;"/><text fill="#000000" font-family="sans-serif" font-size="13" lengthAdjust="spacing" textLength="374" x="521.5" y="292.0977">Validates changes (operation name uniqueness, valid input)</text><path d="M10,324.8398 L72,324.8398 L72,332.1504 L62,342.1504 L10,342.1504 L10,324.8398 " fill="#EEEEEE" style="stroke:#000000;stroke-width:1.5;"/><rect fill="none" height="133.1973" style="stroke:#000000;stroke-width:1.5;" width="760.5" x="10" y="324.8398"/><text fill="#000000" font-family="sans-serif" font-size="13" font-weight="bold" lengthAdjust="spacing" textLength="17" x="25" y="338.4082">alt</text><text fill="#000000" font-family="sans-serif" font-size="11" font-weight="bold" lengthAdjust="spacing" textLength="153" x="87" y="337.4746">[Operation name is unique]</text><line style="stroke:#181818;stroke-width:1.0;" x1="514.5" x2="556.5" y1="363.4609" y2="363.4609"/><line style="stroke:#181818;stroke-width:1.0;" x1="556.5" x2="556.5" y1="363.4609" y2="376.4609"/><line style="stroke:#181818;stroke-width:1.0;" x1="515.5" x2="556.5" y1="376.4609" y2="376.4609"/><polygon fill="#181818" points="525.5,372.4609,515.5,376.4609,525.5,380.4609,521.5,376.4609" style="stroke:#181818;stroke-width:1.0;"/><text fill="#000000" font-family="sans-serif" font-size="13" lengthAdjust="spacing" textLength="237" x="521.5" y="358.7188">Logs the update of the operation type</text><polygon fill="#181818" points="56.5,401.7715,46.5,405.7715,56.5,409.7715,52.5,405.7715" style="stroke:#181818;stroke-width:1.0;"/><line style="stroke:#181818;stroke-width:1.0;" x1="50.5" x2="503.5" y1="405.7715" y2="405.7715"/><text fill="#000000" font-family="sans-serif" font-size="13" lengthAdjust="spacing" textLength="176" x="62.5" y="401.0293">Confirms successful update</text><line style="stroke:#000000;stroke-width:1.0;stroke-dasharray:2.0,2.0;" x1="10" x2="770.5" y1="414.7715" y2="414.7715"/><text fill="#000000" font-family="sans-serif" font-size="11" font-weight="bold" lengthAdjust="spacing" textLength="175" x="15" y="425.4063">[Operation name is not unique]</text><polygon fill="#181818" points="56.5,446.0371,46.5,450.0371,56.5,454.0371,52.5,450.0371" style="stroke:#181818;stroke-width:1.0;"/><line style="stroke:#181818;stroke-width:1.0;" x1="50.5" x2="503.5" y1="450.0371" y2="450.0371"/><text fill="#000000" font-family="sans-serif" font-size="13" lengthAdjust="spacing" textLength="237" x="62.5" y="445.2949">Error - Operation name already exists</text><!--SRC=[ZPB1QiCm343l_WeTEsW77UpIms1ikmq62zjTYvLMuDYP9PVbxsUtBgDfE-fBR2CzlKXMLaVGZABKGqFVYNnByCouZjZ30ZuQkBzTtjujZS5MGuH7sxEl-tsQCRixM3pKYnMy5v0eQ02oh40_BCf-3M6WYCh1Wuu35GnlKGy2fdfaqWwvoY8oE1p1vNm8tIMG64jJrebKGuvQdMGU5AzNaHs6x1HaIP7TTIRfgyzTIOF5oo2OUUnf3Z7tacCE4yMkcuDD- -2RVvGFXJxHSQaXq6xGh_DtzbUiu25vBZCdaJbiIpIm7v9ck5DuEuvbgU46yZgjzXhM0hgX-cDbNkKqcVbnRctkK_0Tnrv0KjjccIwvIZ7aXCwO-A3dRIhn9SRyGXVJJ7IHq8xxXoI6l3qTs2y0]--></g></svg>