<svg xmlns="http://www.w3.org/2000/svg" xmlns:xlink="http://www.w3.org/1999/xlink" contentStyleType="text/css" height="750px" preserveAspectRatio="none" style="width:592px;height:750px;background:#FFFFFF;" version="1.1" viewBox="0 0 592 750" width="592px" zoomAndPan="magnify"><title>US 5.1.19 System Sequence Diagram</title><defs/><g><text fill="#000000" font-family="sans-serif" font-size="14" font-weight="bold" lengthAdjust="spacing" textLength="261.167" x="166.8606" y="28.5352">US 5.1.19 System Sequence Diagram</text><rect fill="#FFFFFF" height="510.2344" style="stroke:#181818;stroke-width:1.0;" width="10" x="40.9106" y="150.2871"/><rect fill="#FFFFFF" height="510.2344" style="stroke:#181818;stroke-width:1.0;" width="10" x="539.8394" y="150.2871"/><rect fill="none" height="325.3711" style="stroke:#000000;stroke-width:1.5;" width="575.8882" x="10" y="327.1504"/><line style="stroke:#181818;stroke-width:0.5;stroke-dasharray:5.0,5.0;" x1="45" x2="45" y1="118.9766" y2="669.5215"/><line style="stroke:#181818;stroke-width:0.5;stroke-dasharray:5.0,5.0;" x1="544.7905" x2="544.7905" y1="118.9766" y2="669.5215"/><text fill="#000000" font-family="sans-serif" font-size="14" lengthAdjust="spacing" textLength="45.8213" x="20" y="116.0234">Doctor</text><ellipse cx="45.9106" cy="50.9883" fill="#E2E2F0" rx="8" ry="8" style="stroke:#181818;stroke-width:0.5;"/><path d="M45.9106,58.9883 L45.9106,85.9883 M32.9106,66.9883 L58.9106,66.9883 M45.9106,85.9883 L32.9106,100.9883 M45.9106,85.9883 L58.9106,100.9883 " fill="none" style="stroke:#181818;stroke-width:0.5;"/><text fill="#000000" font-family="sans-serif" font-size="14" lengthAdjust="spacing" textLength="45.8213" x="20" y="682.0566">Doctor</text><ellipse cx="45.9106" cy="693.5098" fill="#E2E2F0" rx="8" ry="8" style="stroke:#181818;stroke-width:0.5;"/><path d="M45.9106,701.5098 L45.9106,728.5098 M32.9106,709.5098 L58.9106,709.5098 M45.9106,728.5098 L32.9106,743.5098 M45.9106,728.5098 L58.9106,743.5098 " fill="none" style="stroke:#181818;stroke-width:0.5;"/><rect fill="#E2E2F0" height="30.4883" rx="2.5" ry="2.5" style="stroke:#181818;stroke-width:0.5;" width="62.0977" x="513.7905" y="87.4883"/><text fill="#000000" font-family="sans-serif" font-size="14" lengthAdjust="spacing" textLength="48.0977" x="520.7905" y="108.0234">System</text><rect fill="#E2E2F0" height="30.4883" rx="2.5" ry="2.5" style="stroke:#181818;stroke-width:0.5;" width="62.0977" x="513.7905" y="668.5215"/><text fill="#000000" font-family="sans-serif" font-size="14" lengthAdjust="spacing" textLength="48.0977" x="520.7905" y="689.0566">System</text><rect fill="#FFFFFF" height="510.2344" style="stroke:#181818;stroke-width:1.0;" width="10" x="40.9106" y="150.2871"/><rect fill="#FFFFFF" height="510.2344" style="stroke:#181818;stroke-width:1.0;" width="10" x="539.8394" y="150.2871"/><polygon fill="#181818" points="527.8394,146.2871,537.8394,150.2871,527.8394,154.2871,531.8394,150.2871" style="stroke:#181818;stroke-width:1.0;"/><line style="stroke:#181818;stroke-width:1.0;" x1="50.9106" x2="533.8394" y1="150.2871" y2="150.2871"/><text fill="#000000" font-family="sans-serif" font-size="13" font-weight="bold" lengthAdjust="spacing" textLength="8.5757" x="57.9106" y="145.5449">1</text><text fill="#000000" font-family="sans-serif" font-size="13" lengthAdjust="spacing" textLength="259.0225" x="70.4863" y="145.5449">Requests to list all operation requisitions</text><polygon fill="#181818" points="61.9106,190.9082,51.9106,194.9082,61.9106,198.9082,57.9106,194.9082" style="stroke:#181818;stroke-width:1.0;"/><line style="stroke:#181818;stroke-width:1.0;stroke-dasharray:2.0,2.0;" x1="55.9106" x2="538.8394" y1="194.9082" y2="194.9082"/><text fill="#000000" font-family="sans-serif" font-size="13" font-weight="bold" lengthAdjust="spacing" textLength="8.5757" x="67.9106" y="182.5107">2</text><text fill="#000000" font-family="sans-serif" font-size="13" lengthAdjust="spacing" textLength="452.353" x="80.4863" y="174.8555">Asks to choose th filter for the search, by patient name, operation type,</text><text fill="#000000" font-family="sans-serif" font-size="13" lengthAdjust="spacing" textLength="109.8462" x="84.5996" y="190.166">priority or status.</text><polygon fill="#181818" points="527.8394,220.2188,537.8394,224.2188,527.8394,228.2188,531.8394,224.2188" style="stroke:#181818;stroke-width:1.0;"/><line style="stroke:#181818;stroke-width:1.0;" x1="50.9106" x2="533.8394" y1="224.2188" y2="224.2188"/><text fill="#000000" font-family="sans-serif" font-size="13" font-weight="bold" lengthAdjust="spacing" textLength="8.5757" x="57.9106" y="219.4766">3</text><text fill="#000000" font-family="sans-serif" font-size="13" lengthAdjust="spacing" textLength="117.8442" x="70.4863" y="219.4766">Chooses an option</text><polygon fill="#181818" points="61.9106,249.5293,51.9106,253.5293,61.9106,257.5293,57.9106,253.5293" style="stroke:#181818;stroke-width:1.0;"/><line style="stroke:#181818;stroke-width:1.0;stroke-dasharray:2.0,2.0;" x1="55.9106" x2="538.8394" y1="253.5293" y2="253.5293"/><text fill="#000000" font-family="sans-serif" font-size="13" font-weight="bold" lengthAdjust="spacing" textLength="8.5757" x="67.9106" y="248.7871">4</text><text fill="#000000" font-family="sans-serif" font-size="13" lengthAdjust="spacing" textLength="392.2661" x="80.4863" y="248.7871">Shows the list of operation requisitions, according to the filter</text><polygon fill="#181818" points="527.8394,278.8398,537.8394,282.8398,527.8394,286.8398,531.8394,282.8398" style="stroke:#181818;stroke-width:1.0;"/><line style="stroke:#181818;stroke-width:1.0;stroke-dasharray:2.0,2.0;" x1="50.9106" x2="533.8394" y1="282.8398" y2="282.8398"/><text fill="#000000" font-family="sans-serif" font-size="13" font-weight="bold" lengthAdjust="spacing" textLength="8.5757" x="57.9106" y="278.0977">5</text><text fill="#000000" font-family="sans-serif" font-size="13" lengthAdjust="spacing" textLength="199.1895" x="70.4863" y="278.0977">Selects an operation requisition</text><polygon fill="#181818" points="61.9106,308.1504,51.9106,312.1504,61.9106,316.1504,57.9106,312.1504" style="stroke:#181818;stroke-width:1.0;"/><line style="stroke:#181818;stroke-width:1.0;stroke-dasharray:2.0,2.0;" x1="55.9106" x2="538.8394" y1="312.1504" y2="312.1504"/><text fill="#000000" font-family="sans-serif" font-size="13" font-weight="bold" lengthAdjust="spacing" textLength="8.5757" x="67.9106" y="307.4082">6</text><text fill="#000000" font-family="sans-serif" font-size="13" lengthAdjust="spacing" textLength="443.1807" x="80.4863" y="307.4082">Shows the operation requisition details and options to edit or delete it</text><path d="M10,327.1504 L72.1387,327.1504 L72.1387,334.4609 L62.1387,344.4609 L10,344.4609 L10,327.1504 " fill="#EEEEEE" style="stroke:#000000;stroke-width:1.5;"/><rect fill="none" height="325.3711" style="stroke:#000000;stroke-width:1.5;" width="575.8882" x="10" y="327.1504"/><text fill="#000000" font-family="sans-serif" font-size="13" font-weight="bold" lengthAdjust="spacing" textLength="17.1387" x="25" y="340.7188">alt</text><text fill="#000000" font-family="sans-serif" font-size="11" font-weight="bold" lengthAdjust="spacing" textLength="30.0835" x="87.1387" y="339.7852">[Edit]</text><polygon fill="#181818" points="527.8394,361.7715,537.8394,365.7715,527.8394,369.7715,531.8394,365.7715" style="stroke:#181818;stroke-width:1.0;"/><line style="stroke:#181818;stroke-width:1.0;" x1="50.9106" x2="533.8394" y1="365.7715" y2="365.7715"/><text fill="#000000" font-family="sans-serif" font-size="13" font-weight="bold" lengthAdjust="spacing" textLength="8.5757" x="57.9106" y="361.0293">7</text><text fill="#000000" font-family="sans-serif" font-size="13" lengthAdjust="spacing" textLength="262.9136" x="70.4863" y="361.0293">Requests to edit the operation requisition</text><polygon fill="#181818" points="61.9106,391.082,51.9106,395.082,61.9106,399.082,57.9106,395.082" style="stroke:#181818;stroke-width:1.0;"/><line style="stroke:#181818;stroke-width:1.0;stroke-dasharray:2.0,2.0;" x1="55.9106" x2="538.8394" y1="395.082" y2="395.082"/><text fill="#000000" font-family="sans-serif" font-size="13" font-weight="bold" lengthAdjust="spacing" textLength="8.5757" x="67.9106" y="390.3398">8</text><text fill="#000000" font-family="sans-serif" font-size="13" lengthAdjust="spacing" textLength="304.1606" x="80.4863" y="390.3398">Shows the form to edit the operation requisition</text><polygon fill="#181818" points="527.8394,420.3926,537.8394,424.3926,527.8394,428.3926,531.8394,424.3926" style="stroke:#181818;stroke-width:1.0;"/><line style="stroke:#181818;stroke-width:1.0;" x1="50.9106" x2="533.8394" y1="424.3926" y2="424.3926"/><text fill="#000000" font-family="sans-serif" font-size="13" font-weight="bold" lengthAdjust="spacing" textLength="8.5757" x="57.9106" y="419.6504">9</text><text fill="#000000" font-family="sans-serif" font-size="13" lengthAdjust="spacing" textLength="83.4907" x="70.4863" y="419.6504">Fills the form</text><polygon fill="#181818" points="61.9106,449.7031,51.9106,453.7031,61.9106,457.7031,57.9106,453.7031" style="stroke:#181818;stroke-width:1.0;"/><line style="stroke:#181818;stroke-width:1.0;stroke-dasharray:2.0,2.0;" x1="55.9106" x2="538.8394" y1="453.7031" y2="453.7031"/><text fill="#000000" font-family="sans-serif" font-size="13" font-weight="bold" lengthAdjust="spacing" textLength="17.1514" x="67.9106" y="448.9609">10</text><text fill="#000000" font-family="sans-serif" font-size="13" lengthAdjust="spacing" textLength="171.8564" x="89.062" y="448.9609">Asks to confirm the edition</text><polygon fill="#181818" points="527.8394,479.0137,537.8394,483.0137,527.8394,487.0137,531.8394,483.0137" style="stroke:#181818;stroke-width:1.0;"/><line style="stroke:#181818;stroke-width:1.0;" x1="50.9106" x2="533.8394" y1="483.0137" y2="483.0137"/><text fill="#000000" font-family="sans-serif" font-size="13" font-weight="bold" lengthAdjust="spacing" textLength="17.1514" x="57.9106" y="478.2715">11</text><text fill="#000000" font-family="sans-serif" font-size="13" lengthAdjust="spacing" textLength="129.9238" x="79.062" y="478.2715">Confirms the edition</text><polygon fill="#181818" points="61.9106,508.3242,51.9106,512.3242,61.9106,516.3242,57.9106,512.3242" style="stroke:#181818;stroke-width:1.0;"/><line style="stroke:#181818;stroke-width:1.0;stroke-dasharray:2.0,2.0;" x1="55.9106" x2="538.8394" y1="512.3242" y2="512.3242"/><text fill="#000000" font-family="sans-serif" font-size="13" font-weight="bold" lengthAdjust="spacing" textLength="17.1514" x="67.9106" y="507.582">12</text><text fill="#000000" font-family="sans-serif" font-size="13" lengthAdjust="spacing" textLength="162.8872" x="89.062" y="507.582">Shows a success message</text><line style="stroke:#000000;stroke-width:1.0;stroke-dasharray:2.0,2.0;" x1="10" x2="585.8882" y1="521.3242" y2="521.3242"/><text fill="#000000" font-family="sans-serif" font-size="11" font-weight="bold" lengthAdjust="spacing" textLength="44.2471" x="15" y="531.959">[Delete]</text><polygon fill="#181818" points="527.8394,552.5898,537.8394,556.5898,527.8394,560.5898,531.8394,556.5898" style="stroke:#181818;stroke-width:1.0;"/><line style="stroke:#181818;stroke-width:1.0;" x1="50.9106" x2="533.8394" y1="556.5898" y2="556.5898"/><text fill="#000000" font-family="sans-serif" font-size="13" font-weight="bold" lengthAdjust="spacing" textLength="17.1514" x="57.9106" y="551.8477">13</text><text fill="#000000" font-family="sans-serif" font-size="13" lengthAdjust="spacing" textLength="277.3989" x="79.062" y="551.8477">Requests to delete the operation requisition</text><polygon fill="#181818" points="61.9106,581.9004,51.9106,585.9004,61.9106,589.9004,57.9106,585.9004" style="stroke:#181818;stroke-width:1.0;"/><line style="stroke:#181818;stroke-width:1.0;stroke-dasharray:2.0,2.0;" x1="55.9106" x2="538.8394" y1="585.9004" y2="585.9004"/><text fill="#000000" font-family="sans-serif" font-size="13" font-weight="bold" lengthAdjust="spacing" textLength="17.1514" x="67.9106" y="581.1582">14</text><text fill="#000000" font-family="sans-serif" font-size="13" lengthAdjust="spacing" textLength="136.6904" x="89.062" y="581.1582">Asks for confirmation</text><polygon fill="#181818" points="527.8394,611.2109,537.8394,615.2109,527.8394,619.2109,531.8394,615.2109" style="stroke:#181818;stroke-width:1.0;"/><line style="stroke:#181818;stroke-width:1.0;" x1="50.9106" x2="533.8394" y1="615.2109" y2="615.2109"/><text fill="#000000" font-family="sans-serif" font-size="13" font-weight="bold" lengthAdjust="spacing" textLength="17.1514" x="57.9106" y="610.4688">15</text><text fill="#000000" font-family="sans-serif" font-size="13" lengthAdjust="spacing" textLength="137.1665" x="79.062" y="610.4688">Confirms the deletion</text><polygon fill="#181818" points="61.9106,640.5215,51.9106,644.5215,61.9106,648.5215,57.9106,644.5215" style="stroke:#181818;stroke-width:1.0;"/><line style="stroke:#181818;stroke-width:1.0;stroke-dasharray:2.0,2.0;" x1="55.9106" x2="538.8394" y1="644.5215" y2="644.5215"/><text fill="#000000" font-family="sans-serif" font-size="13" font-weight="bold" lengthAdjust="spacing" textLength="17.1514" x="67.9106" y="639.7793">16</text><text fill="#000000" font-family="sans-serif" font-size="13" lengthAdjust="spacing" textLength="162.8872" x="89.062" y="639.7793">Shows a success message</text><!--SRC=[bPFFRjim3CRlVWeYbrxo1ptii1m634tx03DssuMLc9YeB7aYtS5lFqenqc1njyu7Mx3uVRzFf7tNgGwot-s6W577FcnTwdT2FqUAZZQUyPInRneSDSMnVwRSA6iW-Dx2f-tzzlupj9CezT3E6ZXSD4vJXjKXbUSAKC2dPi2ix7Wm6gpEqhebKzCqFi7cYottyAsuYGfeWi2YW2506YYZSegGRPk5oreAXrzHgTXVrkOd4spCpgSzV9MNQkMwb8H0EpXoKCfmj8JQMJbXTjqQdYSO346MBc9FwokcJWEjVqGOCgVCEe59HL57sLu5VwW40OmcBRhh66sNVadbrJEbupj7MWCwbxBdU2gfY-2Sju9cKak1dCwa1PTby68fU5BaKBpy7BksYpnhEQOtbFMKrOOQ51xBwmRiMXvObRqBgyB5R3QC_eFwD_0JX_0c_zFyClWKZrpShQxOt_eyd2lafkGcAeACpf48z7R34pKKxACwr2RzfIrp5p_Sc9gzVA1pUFnNwWhudzZHsq_t6m00]--></g></svg>