<?xml version="1.0" encoding="us-ascii" standalone="no"?><svg xmlns="http://www.w3.org/2000/svg" xmlns:xlink="http://www.w3.org/1999/xlink" contentStyleType="text/css" height="881px" preserveAspectRatio="none" style="width:1549px;height:881px;background:#FFFFFF;" version="1.1" viewBox="0 0 1549 881" width="1549px" zoomAndPan="magnify"><defs/><g><text fill="#000000" font-family="sans-serif" font-size="14" font-weight="bold" lengthAdjust="spacing" textLength="416" x="567.75" y="28.5352">Sequence Diagram - US 5.1.20 - Add New Operation Type</text><rect fill="#FFFFFF" height="662.7871" style="stroke:#181818;stroke-width:1.0;" width="10" x="25.5" y="128.9766"/><rect fill="#FFFFFF" height="205.1738" style="stroke:#181818;stroke-width:1.0;" width="10" x="439.5" y="150.2871"/><rect fill="#FFFFFF" height="397.9922" style="stroke:#181818;stroke-width:1.0;" width="10" x="439.5" y="384.7715"/><rect fill="#FFFFFF" height="146.5527" style="stroke:#181818;stroke-width:1.0;" width="10" x="760.5" y="179.5977"/><rect fill="#FFFFFF" height="339.3711" style="stroke:#181818;stroke-width:1.0;" width="10" x="760.5" y="414.082"/><rect fill="#FFFFFF" height="87.9316" style="stroke:#181818;stroke-width:1.0;" width="10" x="1086.5" y="208.9082"/><rect fill="#FFFFFF" height="288.75" style="stroke:#181818;stroke-width:1.0;" width="10" x="1086.5" y="443.3926"/><rect fill="#FFFFFF" height="29.3105" style="stroke:#181818;stroke-width:1.0;" width="10" x="1340.5" y="238.2188"/><rect fill="#FFFFFF" height="53.6211" style="stroke:#181818;stroke-width:1.0;" width="10" x="1340.5" y="472.7031"/><rect fill="#FFFFFF" height="29.3105" style="stroke:#181818;stroke-width:1.0;" width="10" x="1340.5" y="555.6348"/><rect fill="none" height="237.4395" style="stroke:#000000;stroke-width:1.5;" width="863.5" x="679" y="487.7031"/><line style="stroke:#181818;stroke-width:0.5;stroke-dasharray:5.0,5.0;" x1="30" x2="30" y1="118.9766" y2="800.7637"/><line style="stroke:#181818;stroke-width:0.5;stroke-dasharray:5.0,5.0;" x1="444.5" x2="444.5" y1="118.9766" y2="800.7637"/><line style="stroke:#181818;stroke-width:0.5;stroke-dasharray:5.0,5.0;" x1="765" x2="765" y1="118.9766" y2="800.7637"/><line style="stroke:#181818;stroke-width:0.5;stroke-dasharray:5.0,5.0;" x1="1091" x2="1091" y1="118.9766" y2="800.7637"/><line style="stroke:#181818;stroke-width:0.5;stroke-dasharray:5.0,5.0;" x1="1345.5" x2="1345.5" y1="118.9766" y2="800.7637"/><line style="stroke:#181818;stroke-width:0.5;stroke-dasharray:5.0,5.0;" x1="1482.5" x2="1482.5" y1="118.9766" y2="800.7637"/><text fill="#000000" font-family="sans-serif" font-size="14" lengthAdjust="spacing" textLength="45" x="5" y="116.0234">Admin</text><ellipse cx="30.5" cy="50.9883" fill="#E2E2F0" rx="8" ry="8" style="stroke:#181818;stroke-width:0.5;"/><path d="M30.5,58.9883 L30.5,85.9883 M17.5,66.9883 L43.5,66.9883 M30.5,85.9883 L17.5,100.9883 M30.5,85.9883 L43.5,100.9883 " fill="none" style="stroke:#181818;stroke-width:0.5;"/><text fill="#000000" font-family="sans-serif" font-size="14" lengthAdjust="spacing" textLength="45" x="5" y="813.2988">Admin</text><ellipse cx="30.5" cy="824.752" fill="#E2E2F0" rx="8" ry="8" style="stroke:#181818;stroke-width:0.5;"/><path d="M30.5,832.752 L30.5,859.752 M17.5,840.752 L43.5,840.752 M30.5,859.752 L17.5,874.752 M30.5,859.752 L43.5,874.752 " fill="none" style="stroke:#181818;stroke-width:0.5;"/><rect fill="#E2E2F0" height="46.9766" rx="2.5" ry="2.5" style="stroke:#181818;stroke-width:0.5;" width="130" x="379.5" y="71"/><text fill="#000000" font-family="sans-serif" font-size="14" font-style="italic" lengthAdjust="spacing" textLength="101" x="394" y="91.5352">&#171;presentation&#187;</text><text fill="#000000" font-family="sans-serif" font-size="14" lengthAdjust="spacing" textLength="116" x="386.5" y="108.0234">OperationTypeUI</text><rect fill="#E2E2F0" height="46.9766" rx="2.5" ry="2.5" style="stroke:#181818;stroke-width:0.5;" width="130" x="379.5" y="799.7637"/><text fill="#000000" font-family="sans-serif" font-size="14" font-style="italic" lengthAdjust="spacing" textLength="101" x="394" y="820.2988">&#171;presentation&#187;</text><text fill="#000000" font-family="sans-serif" font-size="14" lengthAdjust="spacing" textLength="116" x="386.5" y="836.7871">OperationTypeUI</text><rect fill="#E2E2F0" height="46.9766" rx="2.5" ry="2.5" style="stroke:#181818;stroke-width:0.5;" width="153" x="689" y="71"/><text fill="#000000" font-family="sans-serif" font-size="14" font-style="italic" lengthAdjust="spacing" textLength="90" x="720.5" y="91.5352">&#171;application&#187;</text><text fill="#000000" font-family="sans-serif" font-size="14" lengthAdjust="spacing" textLength="139" x="696" y="108.0234">OperationController</text><rect fill="#E2E2F0" height="46.9766" rx="2.5" ry="2.5" style="stroke:#181818;stroke-width:0.5;" width="153" x="689" y="799.7637"/><text fill="#000000" font-family="sans-serif" font-size="14" font-style="italic" lengthAdjust="spacing" textLength="90" x="720.5" y="820.2988">&#171;application&#187;</text><text fill="#000000" font-family="sans-serif" font-size="14" lengthAdjust="spacing" textLength="139" x="696" y="836.7871">OperationController</text><rect fill="#E2E2F0" height="46.9766" rx="2.5" ry="2.5" style="stroke:#181818;stroke-width:0.5;" width="131" x="1026" y="71"/><text fill="#000000" font-family="sans-serif" font-size="14" font-style="italic" lengthAdjust="spacing" textLength="66" x="1058.5" y="91.5352">&#171;domain&#187;</text><text fill="#000000" font-family="sans-serif" font-size="14" lengthAdjust="spacing" textLength="117" x="1033" y="108.0234">OperationService</text><rect fill="#E2E2F0" height="46.9766" rx="2.5" ry="2.5" style="stroke:#181818;stroke-width:0.5;" width="131" x="1026" y="799.7637"/><text fill="#000000" font-family="sans-serif" font-size="14" font-style="italic" lengthAdjust="spacing" textLength="66" x="1058.5" y="820.2988">&#171;domain&#187;</text><text fill="#000000" font-family="sans-serif" font-size="14" lengthAdjust="spacing" textLength="117" x="1033" y="836.7871">OperationService</text><rect fill="#E2E2F0" height="46.9766" rx="2.5" ry="2.5" style="stroke:#181818;stroke-width:0.5;" width="156" x="1267.5" y="71"/><text fill="#000000" font-family="sans-serif" font-size="14" font-style="italic" lengthAdjust="spacing" textLength="84" x="1303.5" y="91.5352">&#171;repository&#187;</text><text fill="#000000" font-family="sans-serif" font-size="14" lengthAdjust="spacing" textLength="142" x="1274.5" y="108.0234">OperationRepository</text><rect fill="#E2E2F0" height="46.9766" rx="2.5" ry="2.5" style="stroke:#181818;stroke-width:0.5;" width="156" x="1267.5" y="799.7637"/><text fill="#000000" font-family="sans-serif" font-size="14" font-style="italic" lengthAdjust="spacing" textLength="84" x="1303.5" y="820.2988">&#171;repository&#187;</text><text fill="#000000" font-family="sans-serif" font-size="14" lengthAdjust="spacing" textLength="142" x="1274.5" y="836.7871">OperationRepository</text><rect fill="#E2E2F0" height="46.9766" rx="2.5" ry="2.5" style="stroke:#181818;stroke-width:0.5;" width="99" x="1433.5" y="71"/><text fill="#000000" font-family="sans-serif" font-size="14" font-style="italic" lengthAdjust="spacing" textLength="61" x="1452.5" y="91.5352">&#171;service&#187;</text><text fill="#000000" font-family="sans-serif" font-size="14" lengthAdjust="spacing" textLength="85" x="1440.5" y="108.0234">AuditService</text><rect fill="#E2E2F0" height="46.9766" rx="2.5" ry="2.5" style="stroke:#181818;stroke-width:0.5;" width="99" x="1433.5" y="799.7637"/><text fill="#000000" font-family="sans-serif" font-size="14" font-style="italic" lengthAdjust="spacing" textLength="61" x="1452.5" y="820.2988">&#171;service&#187;</text><text fill="#000000" font-family="sans-serif" font-size="14" lengthAdjust="spacing" textLength="85" x="1440.5" y="836.7871">AuditService</text><rect fill="#FFFFFF" height="662.7871" style="stroke:#181818;stroke-width:1.0;" width="10" x="25.5" y="128.9766"/><rect fill="#FFFFFF" height="205.1738" style="stroke:#181818;stroke-width:1.0;" width="10" x="439.5" y="150.2871"/><rect fill="#FFFFFF" height="397.9922" style="stroke:#181818;stroke-width:1.0;" width="10" x="439.5" y="384.7715"/><rect fill="#FFFFFF" height="146.5527" style="stroke:#181818;stroke-width:1.0;" width="10" x="760.5" y="179.5977"/><rect fill="#FFFFFF" height="339.3711" style="stroke:#181818;stroke-width:1.0;" width="10" x="760.5" y="414.082"/><rect fill="#FFFFFF" height="87.9316" style="stroke:#181818;stroke-width:1.0;" width="10" x="1086.5" y="208.9082"/><rect fill="#FFFFFF" height="288.75" style="stroke:#181818;stroke-width:1.0;" width="10" x="1086.5" y="443.3926"/><rect fill="#FFFFFF" height="29.3105" style="stroke:#181818;stroke-width:1.0;" width="10" x="1340.5" y="238.2188"/><rect fill="#FFFFFF" height="53.6211" style="stroke:#181818;stroke-width:1.0;" width="10" x="1340.5" y="472.7031"/><rect fill="#FFFFFF" height="29.3105" style="stroke:#181818;stroke-width:1.0;" width="10" x="1340.5" y="555.6348"/><polygon fill="#181818" points="427.5,146.2871,437.5,150.2871,427.5,154.2871,431.5,150.2871" style="stroke:#181818;stroke-width:1.0;"/><line style="stroke:#181818;stroke-width:1.0;" x1="35.5" x2="433.5" y1="150.2871" y2="150.2871"/><text fill="#000000" font-family="sans-serif" font-size="13" lengthAdjust="spacing" textLength="218" x="42.5" y="145.5449">Request to add new operation type</text><polygon fill="#181818" points="748.5,175.5977,758.5,179.5977,748.5,183.5977,752.5,179.5977" style="stroke:#181818;stroke-width:1.0;"/><line style="stroke:#181818;stroke-width:1.0;" x1="449.5" x2="754.5" y1="179.5977" y2="179.5977"/><text fill="#000000" font-family="sans-serif" font-size="13" lengthAdjust="spacing" textLength="205" x="456.5" y="174.8555">requestExistingOperationTypes()</text><polygon fill="#181818" points="1074.5,204.9082,1084.5,208.9082,1074.5,212.9082,1078.5,208.9082" style="stroke:#181818;stroke-width:1.0;"/><line style="stroke:#181818;stroke-width:1.0;" x1="770.5" x2="1080.5" y1="208.9082" y2="208.9082"/><text fill="#000000" font-family="sans-serif" font-size="13" lengthAdjust="spacing" textLength="178" x="777.5" y="204.166">getExistingOperationTypes()</text><polygon fill="#181818" points="1328.5,234.2188,1338.5,238.2188,1328.5,242.2188,1332.5,238.2188" style="stroke:#181818;stroke-width:1.0;"/><line style="stroke:#181818;stroke-width:1.0;" x1="1096.5" x2="1334.5" y1="238.2188" y2="238.2188"/><text fill="#000000" font-family="sans-serif" font-size="13" lengthAdjust="spacing" textLength="149" x="1103.5" y="233.4766">findAllOperationTypes()</text><polygon fill="#181818" points="1107.5,263.5293,1097.5,267.5293,1107.5,271.5293,1103.5,267.5293" style="stroke:#181818;stroke-width:1.0;"/><line style="stroke:#181818;stroke-width:1.0;stroke-dasharray:2.0,2.0;" x1="1101.5" x2="1344.5" y1="267.5293" y2="267.5293"/><text fill="#000000" font-family="sans-serif" font-size="13" lengthAdjust="spacing" textLength="156" x="1113.5" y="262.7871">existingOperationNames</text><polygon fill="#181818" points="781.5,292.8398,771.5,296.8398,781.5,300.8398,777.5,296.8398" style="stroke:#181818;stroke-width:1.0;"/><line style="stroke:#181818;stroke-width:1.0;stroke-dasharray:2.0,2.0;" x1="775.5" x2="1090.5" y1="296.8398" y2="296.8398"/><text fill="#000000" font-family="sans-serif" font-size="13" lengthAdjust="spacing" textLength="156" x="787.5" y="292.0977">existingOperationNames</text><polygon fill="#181818" points="460.5,322.1504,450.5,326.1504,460.5,330.1504,456.5,326.1504" style="stroke:#181818;stroke-width:1.0;"/><line style="stroke:#181818;stroke-width:1.0;stroke-dasharray:2.0,2.0;" x1="454.5" x2="764.5" y1="326.1504" y2="326.1504"/><text fill="#000000" font-family="sans-serif" font-size="13" lengthAdjust="spacing" textLength="156" x="466.5" y="321.4082">existingOperationNames</text><polygon fill="#181818" points="46.5,351.4609,36.5,355.4609,46.5,359.4609,42.5,355.4609" style="stroke:#181818;stroke-width:1.0;"/><line style="stroke:#181818;stroke-width:1.0;stroke-dasharray:2.0,2.0;" x1="40.5" x2="443.5" y1="355.4609" y2="355.4609"/><text fill="#000000" font-family="sans-serif" font-size="13" lengthAdjust="spacing" textLength="372" x="52.5" y="350.7188">Display existing operation type names to avoid duplication</text><polygon fill="#181818" points="427.5,380.7715,437.5,384.7715,427.5,388.7715,431.5,384.7715" style="stroke:#181818;stroke-width:1.0;"/><line style="stroke:#181818;stroke-width:1.0;" x1="35.5" x2="433.5" y1="384.7715" y2="384.7715"/><text fill="#000000" font-family="sans-serif" font-size="13" lengthAdjust="spacing" textLength="385" x="42.5" y="380.0293">Submit operation type details (name, required staff, duration)</text><polygon fill="#181818" points="748.5,410.082,758.5,414.082,748.5,418.082,752.5,414.082" style="stroke:#181818;stroke-width:1.0;"/><line style="stroke:#181818;stroke-width:1.0;" x1="449.5" x2="754.5" y1="414.082" y2="414.082"/><text fill="#000000" font-family="sans-serif" font-size="13" lengthAdjust="spacing" textLength="292" x="456.5" y="409.3398">submitOperationTypeDetails(operationDetails)</text><polygon fill="#181818" points="1074.5,439.3926,1084.5,443.3926,1074.5,447.3926,1078.5,443.3926" style="stroke:#181818;stroke-width:1.0;"/><line style="stroke:#181818;stroke-width:1.0;" x1="770.5" x2="1080.5" y1="443.3926" y2="443.3926"/><text fill="#000000" font-family="sans-serif" font-size="13" lengthAdjust="spacing" textLength="297" x="777.5" y="438.6504">validateOperationName(operationDetails.name)</text><polygon fill="#181818" points="1328.5,468.7031,1338.5,472.7031,1328.5,476.7031,1332.5,472.7031" style="stroke:#181818;stroke-width:1.0;"/><line style="stroke:#181818;stroke-width:1.0;" x1="1096.5" x2="1334.5" y1="472.7031" y2="472.7031"/><text fill="#000000" font-family="sans-serif" font-size="13" lengthAdjust="spacing" textLength="225" x="1103.5" y="467.9609">findByName(operationDetails.name)</text><path d="M679,487.7031 L741,487.7031 L741,495.0137 L731,505.0137 L679,505.0137 L679,487.7031 " fill="#EEEEEE" style="stroke:#000000;stroke-width:1.5;"/><rect fill="none" height="237.4395" style="stroke:#000000;stroke-width:1.5;" width="863.5" x="679" y="487.7031"/><text fill="#000000" font-family="sans-serif" font-size="13" font-weight="bold" lengthAdjust="spacing" textLength="17" x="694" y="501.2715">alt</text><text fill="#000000" font-family="sans-serif" font-size="11" font-weight="bold" lengthAdjust="spacing" textLength="153" x="756" y="500.3379">[Operation name is unique]</text><polygon fill="#181818" points="1107.5,522.3242,1097.5,526.3242,1107.5,530.3242,1103.5,526.3242" style="stroke:#181818;stroke-width:1.0;"/><line style="stroke:#181818;stroke-width:1.0;stroke-dasharray:2.0,2.0;" x1="1101.5" x2="1344.5" y1="526.3242" y2="526.3242"/><text fill="#000000" font-family="sans-serif" font-size="13" lengthAdjust="spacing" textLength="135" x="1113.5" y="521.582">no existing operation</text><polygon fill="#181818" points="1328.5,551.6348,1338.5,555.6348,1328.5,559.6348,1332.5,555.6348" style="stroke:#181818;stroke-width:1.0;"/><line style="stroke:#181818;stroke-width:1.0;" x1="1096.5" x2="1334.5" y1="555.6348" y2="555.6348"/><text fill="#000000" font-family="sans-serif" font-size="13" lengthAdjust="spacing" textLength="140" x="1103.5" y="550.8926">save(operationDetails)</text><polygon fill="#181818" points="1107.5,580.9453,1097.5,584.9453,1107.5,588.9453,1103.5,584.9453" style="stroke:#181818;stroke-width:1.0;"/><line style="stroke:#181818;stroke-width:1.0;stroke-dasharray:2.0,2.0;" x1="1101.5" x2="1344.5" y1="584.9453" y2="584.9453"/><text fill="#000000" font-family="sans-serif" font-size="13" lengthAdjust="spacing" textLength="179" x="1113.5" y="580.2031">operationSavedConfirmation</text><polygon fill="#181818" points="1471,610.2559,1481,614.2559,1471,618.2559,1475,614.2559" style="stroke:#181818;stroke-width:1.0;"/><line style="stroke:#181818;stroke-width:1.0;" x1="1096.5" x2="1477" y1="614.2559" y2="614.2559"/><text fill="#000000" font-family="sans-serif" font-size="13" lengthAdjust="spacing" textLength="277" x="1103.5" y="609.5137">logOperationTypeCreation(operationDetails)</text><polygon fill="#181818" points="781.5,639.5664,771.5,643.5664,781.5,647.5664,777.5,643.5664" style="stroke:#181818;stroke-width:1.0;"/><line style="stroke:#181818;stroke-width:1.0;stroke-dasharray:2.0,2.0;" x1="775.5" x2="1085.5" y1="643.5664" y2="643.5664"/><text fill="#000000" font-family="sans-serif" font-size="13" lengthAdjust="spacing" textLength="163" x="787.5" y="638.8242">operationCreationSuccess</text><line style="stroke:#000000;stroke-width:1.0;stroke-dasharray:2.0,2.0;" x1="679" x2="1542.5" y1="652.5664" y2="652.5664"/><text fill="#000000" font-family="sans-serif" font-size="11" font-weight="bold" lengthAdjust="spacing" textLength="175" x="684" y="663.2012">[Operation name is not unique]</text><polygon fill="#181818" points="1107.5,683.832,1097.5,687.832,1107.5,691.832,1103.5,687.832" style="stroke:#181818;stroke-width:1.0;"/><line style="stroke:#181818;stroke-width:1.0;stroke-dasharray:2.0,2.0;" x1="1101.5" x2="1344.5" y1="687.832" y2="687.832"/><text fill="#000000" font-family="sans-serif" font-size="13" lengthAdjust="spacing" textLength="156" x="1113.5" y="683.0898">existing operation found</text><polygon fill="#181818" points="781.5,713.1426,771.5,717.1426,781.5,721.1426,777.5,717.1426" style="stroke:#181818;stroke-width:1.0;"/><line style="stroke:#181818;stroke-width:1.0;stroke-dasharray:2.0,2.0;" x1="775.5" x2="1085.5" y1="717.1426" y2="717.1426"/><text fill="#000000" font-family="sans-serif" font-size="13" lengthAdjust="spacing" textLength="150" x="787.5" y="712.4004">operationCreationFailed</text><polygon fill="#181818" points="460.5,749.4531,450.5,753.4531,460.5,757.4531,456.5,753.4531" style="stroke:#181818;stroke-width:1.0;"/><line style="stroke:#181818;stroke-width:1.0;stroke-dasharray:2.0,2.0;" x1="454.5" x2="764.5" y1="753.4531" y2="753.4531"/><text fill="#000000" font-family="sans-serif" font-size="13" lengthAdjust="spacing" textLength="265" x="466.5" y="748.7109">operationCreationResult (success or error)</text><polygon fill="#181818" points="46.5,778.7637,36.5,782.7637,46.5,786.7637,42.5,782.7637" style="stroke:#181818;stroke-width:1.0;"/><line style="stroke:#181818;stroke-width:1.0;stroke-dasharray:2.0,2.0;" x1="40.5" x2="443.5" y1="782.7637" y2="782.7637"/><text fill="#000000" font-family="sans-serif" font-size="13" lengthAdjust="spacing" textLength="211" x="52.5" y="778.0215">Confirms result (success or error)</text><!--SRC=[ZPNDZXen3CVlUGgB4qWBQYlrCa98x6vNwcKhCTq7I2S6MSeaiqc6bhUl4uPPvck10mg9VxRpjnq21OsGutkDfa1u9dbmieGblENmVVLrzUqBhxTAmIl-XLyLEXd86lXzgb08MGJhOBPL9PaPI0yohaGbNQ22Aca2p5ec8cy_arbDi5vN3ZsQaCuscmdeoPhWhDRe4bXmwFLQLfMcudCmHtUa0XFbpsicbIqbJKCxhAmdljCfSOv_CkJQtJwuhHM5wqWoRZ3IH6Jxg14TPS16c_GDomrhaC4koku31Ckd2WnBR5k9mqNYCrwJODaOP0qoJYsHF_wH3sGE7P7zVF61iRKGKJOccwmoEE0TP6Cjn4K-zX2bo61FHcsrdaQZcKZgBQ_3OZ_cgopH2uLTy2FWvRQtmJRPTDL6tjjOKYVAoaIgJCOJu2ijJotSgmYOw2DLx6X9WQhRNhnsp3v5jzPv_QVatkXvKnWaQG_pwFOXbPKSAl11xlSFxFril9Zg0v-yTYhnV7OvRoCr6xUQuYWrAJxjg3Nmieg9ZdJ9Q9CydkxoaQekTRXwNw854ByKXhZH1V1ds4_6ZbGfsVPRAkuDClJoY2CgHTiXFOpUaZdxKVnGxScLTwUGNeeCjErEu9F3j9x8Qp0PhTa5pEkYGEy5QeyZUXeRFjTqfEttjZRgzfqcKthX_549P2TZ8tiziGDsXxxcnfZxyxM0_sxGEUiM_Idk3d5JZVY4ty7pIFq7]--></g></svg>