<?xml version="1.0" encoding="us-ascii" standalone="no"?><svg xmlns="http://www.w3.org/2000/svg" xmlns:xlink="http://www.w3.org/1999/xlink" contentStyleType="text/css" height="497px" preserveAspectRatio="none" style="width:759px;height:497px;background:#FFFFFF;" version="1.1" viewBox="0 0 759 497" width="759px" zoomAndPan="magnify"><defs/><g><text fill="#000000" font-family="sans-serif" font-size="14" font-weight="bold" lengthAdjust="spacing" textLength="273" x="244.25" y="28.5352">System Sequence Diagram - US 5.1.20</text><rect fill="#FFFFFF" height="29.3105" style="stroke:#181818;stroke-width:1.0;" width="10" x="449.5" y="150.2871"/><rect fill="#FFFFFF" height="197.5078" style="stroke:#181818;stroke-width:1.0;" width="10" x="449.5" y="208.9082"/><rect fill="none" height="133.1973" style="stroke:#000000;stroke-width:1.5;" width="742.5" x="10" y="266.2188"/><line style="stroke:#181818;stroke-width:0.5;stroke-dasharray:5.0,5.0;" x1="45" x2="45" y1="118.9766" y2="416.416"/><line style="stroke:#181818;stroke-width:0.5;stroke-dasharray:5.0,5.0;" x1="454.5" x2="454.5" y1="118.9766" y2="416.416"/><text fill="#000000" font-family="sans-serif" font-size="14" lengthAdjust="spacing" textLength="45" x="20" y="116.0234">Admin</text><ellipse cx="45.5" cy="50.9883" fill="#E2E2F0" rx="8" ry="8" style="stroke:#181818;stroke-width:0.5;"/><path d="M45.5,58.9883 L45.5,85.9883 M32.5,66.9883 L58.5,66.9883 M45.5,85.9883 L32.5,100.9883 M45.5,85.9883 L58.5,100.9883 " fill="none" style="stroke:#181818;stroke-width:0.5;"/><text fill="#000000" font-family="sans-serif" font-size="14" lengthAdjust="spacing" textLength="45" x="20" y="428.9512">Admin</text><ellipse cx="45.5" cy="440.4043" fill="#E2E2F0" rx="8" ry="8" style="stroke:#181818;stroke-width:0.5;"/><path d="M45.5,448.4043 L45.5,475.4043 M32.5,456.4043 L58.5,456.4043 M45.5,475.4043 L32.5,490.4043 M45.5,475.4043 L58.5,490.4043 " fill="none" style="stroke:#181818;stroke-width:0.5;"/><text fill="#000000" font-family="sans-serif" font-size="14" lengthAdjust="spacing" textLength="48" x="427.5" y="116.0234">System</text><ellipse cx="454.5" cy="50.9883" fill="#E2E2F0" rx="8" ry="8" style="stroke:#181818;stroke-width:0.5;"/><path d="M454.5,58.9883 L454.5,85.9883 M441.5,66.9883 L467.5,66.9883 M454.5,85.9883 L441.5,100.9883 M454.5,85.9883 L467.5,100.9883 " fill="none" style="stroke:#181818;stroke-width:0.5;"/><text fill="#000000" font-family="sans-serif" font-size="14" lengthAdjust="spacing" textLength="48" x="427.5" y="428.9512">System</text><ellipse cx="454.5" cy="440.4043" fill="#E2E2F0" rx="8" ry="8" style="stroke:#181818;stroke-width:0.5;"/><path d="M454.5,448.4043 L454.5,475.4043 M441.5,456.4043 L467.5,456.4043 M454.5,475.4043 L441.5,490.4043 M454.5,475.4043 L467.5,490.4043 " fill="none" style="stroke:#181818;stroke-width:0.5;"/><rect fill="#FFFFFF" height="29.3105" style="stroke:#181818;stroke-width:1.0;" width="10" x="449.5" y="150.2871"/><rect fill="#FFFFFF" height="197.5078" style="stroke:#181818;stroke-width:1.0;" width="10" x="449.5" y="208.9082"/><polygon fill="#181818" points="437.5,146.2871,447.5,150.2871,437.5,154.2871,441.5,150.2871" style="stroke:#181818;stroke-width:1.0;"/><line style="stroke:#181818;stroke-width:1.0;" x1="45.5" x2="443.5" y1="150.2871" y2="150.2871"/><text fill="#000000" font-family="sans-serif" font-size="13" lengthAdjust="spacing" textLength="218" x="52.5" y="145.5449">Request to add new operation type</text><polygon fill="#181818" points="56.5,175.5977,46.5,179.5977,56.5,183.5977,52.5,179.5977" style="stroke:#181818;stroke-width:1.0;"/><line style="stroke:#181818;stroke-width:1.0;" x1="50.5" x2="453.5" y1="179.5977" y2="179.5977"/><text fill="#000000" font-family="sans-serif" font-size="13" lengthAdjust="spacing" textLength="372" x="62.5" y="174.8555">Display existing operation type names to avoid duplication</text><polygon fill="#181818" points="437.5,204.9082,447.5,208.9082,437.5,212.9082,441.5,208.9082" style="stroke:#181818;stroke-width:1.0;"/><line style="stroke:#181818;stroke-width:1.0;" x1="45.5" x2="443.5" y1="208.9082" y2="208.9082"/><text fill="#000000" font-family="sans-serif" font-size="13" lengthAdjust="spacing" textLength="385" x="52.5" y="204.166">Submit operation type details (name, required staff, duration)</text><line style="stroke:#181818;stroke-width:1.0;" x1="459.5" x2="501.5" y1="238.2188" y2="238.2188"/><line style="stroke:#181818;stroke-width:1.0;" x1="501.5" x2="501.5" y1="238.2188" y2="251.2188"/><line style="stroke:#181818;stroke-width:1.0;" x1="460.5" x2="501.5" y1="251.2188" y2="251.2188"/><polygon fill="#181818" points="470.5,247.2188,460.5,251.2188,470.5,255.2188,466.5,251.2188" style="stroke:#181818;stroke-width:1.0;"/><text fill="#000000" font-family="sans-serif" font-size="13" lengthAdjust="spacing" textLength="250" x="466.5" y="233.4766">Validates that operation name is unique</text><path d="M10,266.2188 L72,266.2188 L72,273.5293 L62,283.5293 L10,283.5293 L10,266.2188 " fill="#EEEEEE" style="stroke:#000000;stroke-width:1.5;"/><rect fill="none" height="133.1973" style="stroke:#000000;stroke-width:1.5;" width="742.5" x="10" y="266.2188"/><text fill="#000000" font-family="sans-serif" font-size="13" font-weight="bold" lengthAdjust="spacing" textLength="17" x="25" y="279.7871">alt</text><text fill="#000000" font-family="sans-serif" font-size="11" font-weight="bold" lengthAdjust="spacing" textLength="153" x="87" y="278.8535">[Operation name is unique]</text><line style="stroke:#181818;stroke-width:1.0;" x1="459.5" x2="501.5" y1="304.8398" y2="304.8398"/><line style="stroke:#181818;stroke-width:1.0;" x1="501.5" x2="501.5" y1="304.8398" y2="317.8398"/><line style="stroke:#181818;stroke-width:1.0;" x1="460.5" x2="501.5" y1="317.8398" y2="317.8398"/><polygon fill="#181818" points="470.5,313.8398,460.5,317.8398,470.5,321.8398,466.5,317.8398" style="stroke:#181818;stroke-width:1.0;"/><text fill="#000000" font-family="sans-serif" font-size="13" lengthAdjust="spacing" textLength="274" x="466.5" y="300.0977">Logs the creation of the new operation type</text><polygon fill="#181818" points="56.5,343.1504,46.5,347.1504,56.5,351.1504,52.5,347.1504" style="stroke:#181818;stroke-width:1.0;"/><line style="stroke:#181818;stroke-width:1.0;" x1="50.5" x2="448.5" y1="347.1504" y2="347.1504"/><text fill="#000000" font-family="sans-serif" font-size="13" lengthAdjust="spacing" textLength="184" x="62.5" y="342.4082">Confirms successful creation</text><line style="stroke:#000000;stroke-width:1.0;stroke-dasharray:2.0,2.0;" x1="10" x2="752.5" y1="356.1504" y2="356.1504"/><text fill="#000000" font-family="sans-serif" font-size="11" font-weight="bold" lengthAdjust="spacing" textLength="175" x="15" y="366.7852">[Operation name is not unique]</text><polygon fill="#181818" points="56.5,387.416,46.5,391.416,56.5,395.416,52.5,391.416" style="stroke:#181818;stroke-width:1.0;"/><line style="stroke:#181818;stroke-width:1.0;" x1="50.5" x2="448.5" y1="391.416" y2="391.416"/><text fill="#000000" font-family="sans-serif" font-size="13" lengthAdjust="spacing" textLength="237" x="62.5" y="386.6738">Error - Operation name already exists</text><!--SRC=[VP91JyCm38Nl-HNl2DA608dB3aW8k24XKS7TDEwmb2ObTWVxzwHTXw0Rv9JOyVTUx9XOO5HRDMvHyNlFiMRS2QqpjLZYkSBLsSNPvJcSezfInerl9KxxNPrpOmpBwocmmjD0KeCbaFU8_87KSIQJ567RZWU0RCZsscwoK1WZR5KyQ1Te2_uKDOdh6G2HMjPHO9F4m_TTa7hCEyzp-e71gdzjnUPCpqOI52S3V85SNY6PFTIeQHP5OtVvz1_tUu4N2kBBZMBnZNuA3MY8eezIUkGe61x_IgAiG_H3MWzKHfrvLvQQyNoapRy9KsjlKsmajmhjwvfLcpvyinm7vIEEOhBZhYRcVSxbGopdbHGArqzJLCVH7qxd2m00]--></g></svg>