<?xml version="1.0" encoding="us-ascii" standalone="no"?><svg xmlns="http://www.w3.org/2000/svg" xmlns:xlink="http://www.w3.org/1999/xlink" contentStyleType="text/css" height="1512px" preserveAspectRatio="none" style="width:3365px;height:1512px;background:#FFFFFF;" version="1.1" viewBox="0 0 3365 1512" width="3365px" zoomAndPan="magnify"><defs/><g><text fill="#000000" font-family="sans-serif" font-size="14" font-weight="bold" lengthAdjust="spacing" textLength="275" x="1546.5" y="28.5352">System Sequence Diagram - US 2000a</text><rect fill="#FFFFFF" height="1276.6641" style="stroke:#181818;stroke-width:1.0;" width="10" x="34" y="131.4648"/><rect fill="#FFFFFF" height="1255.3535" style="stroke:#181818;stroke-width:1.0;" width="10" x="415" y="152.7754"/><rect fill="#FFFFFF" height="762.0742" style="stroke:#181818;stroke-width:1.0;" width="10" x="840" y="285.3281"/><rect fill="#FFFFFF" height="293.1055" style="stroke:#181818;stroke-width:1.0;" width="10" x="1026.5" y="1076.7129"/><rect fill="#FFFFFF" height="615.5215" style="stroke:#181818;stroke-width:1.0;" width="10" x="1376.5" y="431.8809"/><rect fill="#FFFFFF" height="29.3105" style="stroke:#181818;stroke-width:1.0;" width="10" x="1650.5" y="754.2969"/><rect fill="#FFFFFF" height="58.6211" style="stroke:#181818;stroke-width:1.0;" width="10" x="1820.5" y="842.2285"/><rect fill="#FFFFFF" height="58.6211" style="stroke:#181818;stroke-width:1.0;" width="10" x="1820.5" y="1106.0234"/><rect fill="#FFFFFF" height="58.6211" style="stroke:#181818;stroke-width:1.0;" width="10" x="1972" y="930.1602"/><rect fill="#FFFFFF" height="58.6211" style="stroke:#181818;stroke-width:1.0;" width="10" x="1972" y="1193.9551"/><rect fill="#FFFFFF" height="263.7949" style="stroke:#181818;stroke-width:1.0;" width="10" x="2143.5" y="461.1914"/><rect fill="#FFFFFF" height="87.9316" style="stroke:#181818;stroke-width:1.0;" width="10" x="2442.5" y="549.123"/><rect fill="#FFFFFF" height="29.3105" style="stroke:#181818;stroke-width:1.0;" width="10" x="3031.5" y="578.4336"/><rect fill="#FFFFFF" height="29.3105" style="stroke:#181818;stroke-width:1.0;" width="10" x="3145" y="666.3652"/><line style="stroke:#181818;stroke-width:0.5;stroke-dasharray:5.0,5.0;" x1="39" x2="39" y1="121.4648" y2="1417.1289"/><line style="stroke:#181818;stroke-width:0.5;stroke-dasharray:5.0,5.0;" x1="420" x2="420" y1="121.4648" y2="1417.1289"/><line style="stroke:#181818;stroke-width:0.5;stroke-dasharray:5.0,5.0;" x1="844.5" x2="844.5" y1="121.4648" y2="1417.1289"/><line style="stroke:#181818;stroke-width:0.5;stroke-dasharray:5.0,5.0;" x1="1031.5" x2="1031.5" y1="121.4648" y2="1417.1289"/><line style="stroke:#181818;stroke-width:0.5;stroke-dasharray:5.0,5.0;" x1="1223.5" x2="1223.5" y1="121.4648" y2="1417.1289"/><line style="stroke:#181818;stroke-width:0.5;stroke-dasharray:5.0,5.0;" x1="1381.5" x2="1381.5" y1="121.4648" y2="1417.1289"/><line style="stroke:#181818;stroke-width:0.5;stroke-dasharray:5.0,5.0;" x1="1655.5" x2="1655.5" y1="121.4648" y2="1417.1289"/><line style="stroke:#181818;stroke-width:0.5;stroke-dasharray:5.0,5.0;" x1="1825.5" x2="1825.5" y1="121.4648" y2="1417.1289"/><line style="stroke:#181818;stroke-width:0.5;stroke-dasharray:5.0,5.0;" x1="1976.5" x2="1976.5" y1="121.4648" y2="1417.1289"/><line style="stroke:#181818;stroke-width:0.5;stroke-dasharray:5.0,5.0;" x1="2148.5" x2="2148.5" y1="121.4648" y2="1417.1289"/><line style="stroke:#181818;stroke-width:0.5;stroke-dasharray:5.0,5.0;" x1="2447" x2="2447" y1="121.4648" y2="1417.1289"/><line style="stroke:#181818;stroke-width:0.5;stroke-dasharray:5.0,5.0;" x1="3036" x2="3036" y1="121.4648" y2="1417.1289"/><line style="stroke:#181818;stroke-width:0.5;stroke-dasharray:5.0,5.0;" x1="3150" x2="3150" y1="121.4648" y2="1417.1289"/><line style="stroke:#181818;stroke-width:0.5;stroke-dasharray:5.0,5.0;" x1="3289" x2="3289" y1="121.4648" y2="1417.1289"/><text fill="#000000" font-family="sans-serif" font-size="14" lengthAdjust="spacing" textLength="62" x="5" y="118.5117">Operator</text><ellipse cx="39" cy="53.4766" fill="#E3E3E3" rx="8" ry="8" style="stroke:#181818;stroke-width:0.5;"/><path d="M39,61.4766 L39,88.4766 M26,69.4766 L52,69.4766 M39,88.4766 L26,103.4766 M39,88.4766 L52,103.4766 " fill="none" style="stroke:#181818;stroke-width:0.5;"/><text fill="#000000" font-family="sans-serif" font-size="14" lengthAdjust="spacing" textLength="62" x="5" y="1429.6641">Operator</text><ellipse cx="39" cy="1441.1172" fill="#E3E3E3" rx="8" ry="8" style="stroke:#181818;stroke-width:0.5;"/><path d="M39,1449.1172 L39,1476.1172 M26,1457.1172 L52,1457.1172 M39,1476.1172 L26,1491.1172 M39,1476.1172 L52,1491.1172 " fill="none" style="stroke:#181818;stroke-width:0.5;"/><rect fill="#E3E3E3" height="46.9766" rx="2.5" ry="2.5" style="stroke:#181818;stroke-width:0.5;" width="154" x="343" y="73.4883"/><text fill="#000000" font-family="sans-serif" font-size="14" font-style="italic" lengthAdjust="spacing" textLength="101" x="369.5" y="94.0234">&#171;presentation&#187;</text><text fill="#000000" font-family="sans-serif" font-size="14" lengthAdjust="spacing" textLength="140" x="350" y="110.5117">RegisterCandidateUI</text><rect fill="#E3E3E3" height="46.9766" rx="2.5" ry="2.5" style="stroke:#181818;stroke-width:0.5;" width="154" x="343" y="1416.1289"/><text fill="#000000" font-family="sans-serif" font-size="14" font-style="italic" lengthAdjust="spacing" textLength="101" x="369.5" y="1436.6641">&#171;presentation&#187;</text><text fill="#000000" font-family="sans-serif" font-size="14" lengthAdjust="spacing" textLength="140" x="350" y="1453.1523">RegisterCandidateUI</text><rect fill="#E3E3E3" height="46.9766" rx="2.5" ry="2.5" style="stroke:#181818;stroke-width:0.5;" width="143" x="773.5" y="73.4883"/><text fill="#000000" font-family="sans-serif" font-size="14" font-style="italic" lengthAdjust="spacing" textLength="90" x="800" y="94.0234">&#171;application&#187;</text><text fill="#000000" font-family="sans-serif" font-size="14" lengthAdjust="spacing" textLength="129" x="780.5" y="110.5117">AddUserController</text><rect fill="#E3E3E3" height="46.9766" rx="2.5" ry="2.5" style="stroke:#181818;stroke-width:0.5;" width="143" x="773.5" y="1416.1289"/><text fill="#000000" font-family="sans-serif" font-size="14" font-style="italic" lengthAdjust="spacing" textLength="90" x="800" y="1436.6641">&#171;application&#187;</text><text fill="#000000" font-family="sans-serif" font-size="14" lengthAdjust="spacing" textLength="129" x="780.5" y="1453.1523">AddUserController</text><rect fill="#E3E3E3" height="46.9766" rx="2.5" ry="2.5" style="stroke:#181818;stroke-width:0.5;" width="210" x="926.5" y="73.4883"/><text fill="#000000" font-family="sans-serif" font-size="14" font-style="italic" lengthAdjust="spacing" textLength="90" x="986.5" y="94.0234">&#171;application&#187;</text><text fill="#000000" font-family="sans-serif" font-size="14" lengthAdjust="spacing" textLength="196" x="933.5" y="110.5117">RegisterCandidateController</text><rect fill="#E3E3E3" height="46.9766" rx="2.5" ry="2.5" style="stroke:#181818;stroke-width:0.5;" width="210" x="926.5" y="1416.1289"/><text fill="#000000" font-family="sans-serif" font-size="14" font-style="italic" lengthAdjust="spacing" textLength="90" x="986.5" y="1436.6641">&#171;application&#187;</text><text fill="#000000" font-family="sans-serif" font-size="14" lengthAdjust="spacing" textLength="196" x="933.5" y="1453.1523">RegisterCandidateController</text><rect fill="#E3E3E3" height="46.9766" rx="2.5" ry="2.5" style="stroke:#181818;stroke-width:0.5;" width="155" x="1146.5" y="73.4883"/><text fill="#000000" font-family="sans-serif" font-size="14" font-style="italic" lengthAdjust="spacing" textLength="66" x="1191" y="94.0234">&#171;domain&#187;</text><text fill="#000000" font-family="sans-serif" font-size="14" lengthAdjust="spacing" textLength="141" x="1153.5" y="110.5117">candidate:Candidate</text><rect fill="#E3E3E3" height="46.9766" rx="2.5" ry="2.5" style="stroke:#181818;stroke-width:0.5;" width="155" x="1146.5" y="1416.1289"/><text fill="#000000" font-family="sans-serif" font-size="14" font-style="italic" lengthAdjust="spacing" textLength="66" x="1191" y="1436.6641">&#171;domain&#187;</text><text fill="#000000" font-family="sans-serif" font-size="14" lengthAdjust="spacing" textLength="141" x="1153.5" y="1453.1523">candidate:Candidate</text><rect fill="#E3E3E3" height="46.9766" rx="2.5" ry="2.5" style="stroke:#181818;stroke-width:0.5;" width="140" x="1311.5" y="73.4883"/><text fill="#000000" font-family="sans-serif" font-size="14" font-style="italic" lengthAdjust="spacing" textLength="63" x="1350" y="94.0234">&#171;builder&#187;</text><text fill="#000000" font-family="sans-serif" font-size="14" lengthAdjust="spacing" textLength="126" x="1318.5" y="110.5117">Jobs4uUserBuilder</text><rect fill="#E3E3E3" height="46.9766" rx="2.5" ry="2.5" style="stroke:#181818;stroke-width:0.5;" width="140" x="1311.5" y="1416.1289"/><text fill="#000000" font-family="sans-serif" font-size="14" font-style="italic" lengthAdjust="spacing" textLength="63" x="1350" y="1436.6641">&#171;builder&#187;</text><text fill="#000000" font-family="sans-serif" font-size="14" lengthAdjust="spacing" textLength="126" x="1318.5" y="1453.1523">Jobs4uUserBuilder</text><rect fill="#E3E3E3" height="46.9766" rx="2.5" ry="2.5" style="stroke:#181818;stroke-width:0.5;" width="174" x="1568.5" y="73.4883"/><text fill="#000000" font-family="sans-serif" font-size="14" font-style="italic" lengthAdjust="spacing" textLength="66" x="1622.5" y="94.0234">&#171;domain&#187;</text><text fill="#000000" font-family="sans-serif" font-size="14" lengthAdjust="spacing" textLength="160" x="1575.5" y="110.5117">jobs4uUser:Jobs4uUser</text><rect fill="#E3E3E3" height="46.9766" rx="2.5" ry="2.5" style="stroke:#181818;stroke-width:0.5;" width="174" x="1568.5" y="1416.1289"/><text fill="#000000" font-family="sans-serif" font-size="14" font-style="italic" lengthAdjust="spacing" textLength="66" x="1622.5" y="1436.6641">&#171;domain&#187;</text><text fill="#000000" font-family="sans-serif" font-size="14" lengthAdjust="spacing" textLength="160" x="1575.5" y="1453.1523">jobs4uUser:Jobs4uUser</text><rect fill="#E3E3E3" height="46.9766" rx="2.5" ry="2.5" style="stroke:#181818;stroke-width:0.5;" width="146" x="1752.5" y="73.4883"/><text fill="#000000" font-family="sans-serif" font-size="14" font-style="italic" lengthAdjust="spacing" textLength="92" x="1779.5" y="94.0234">&#171;persistence&#187;</text><text fill="#000000" font-family="sans-serif" font-size="14" lengthAdjust="spacing" textLength="132" x="1759.5" y="110.5117">PersistenceContext</text><rect fill="#E3E3E3" height="46.9766" rx="2.5" ry="2.5" style="stroke:#181818;stroke-width:0.5;" width="146" x="1752.5" y="1416.1289"/><text fill="#000000" font-family="sans-serif" font-size="14" font-style="italic" lengthAdjust="spacing" textLength="92" x="1779.5" y="1436.6641">&#171;persistence&#187;</text><text fill="#000000" font-family="sans-serif" font-size="14" lengthAdjust="spacing" textLength="132" x="1759.5" y="1453.1523">PersistenceContext</text><rect fill="#E3E3E3" height="46.9766" rx="2.5" ry="2.5" style="stroke:#181818;stroke-width:0.5;" width="137" x="1908.5" y="73.4883"/><text fill="#000000" font-family="sans-serif" font-size="14" font-style="italic" lengthAdjust="spacing" textLength="61" x="1946.5" y="94.0234">&#171;factory&#187;</text><text fill="#000000" font-family="sans-serif" font-size="14" lengthAdjust="spacing" textLength="123" x="1915.5" y="110.5117">RepositoryFactory</text><rect fill="#E3E3E3" height="46.9766" rx="2.5" ry="2.5" style="stroke:#181818;stroke-width:0.5;" width="137" x="1908.5" y="1416.1289"/><text fill="#000000" font-family="sans-serif" font-size="14" font-style="italic" lengthAdjust="spacing" textLength="61" x="1946.5" y="1436.6641">&#171;factory&#187;</text><text fill="#000000" font-family="sans-serif" font-size="14" lengthAdjust="spacing" textLength="123" x="1915.5" y="1453.1523">RepositoryFactory</text><rect fill="#E3E3E3" height="30.4883" rx="2.5" ry="2.5" style="stroke:#181818;stroke-width:0.5;" width="186" x="2055.5" y="89.9766"/><text fill="#000000" font-family="sans-serif" font-size="14" lengthAdjust="spacing" textLength="172" x="2062.5" y="110.5117">:UserManagementService</text><rect fill="#E3E3E3" height="30.4883" rx="2.5" ry="2.5" style="stroke:#181818;stroke-width:0.5;" width="186" x="2055.5" y="1416.1289"/><text fill="#000000" font-family="sans-serif" font-size="14" lengthAdjust="spacing" textLength="172" x="2062.5" y="1436.6641">:UserManagementService</text><rect fill="#E3E3E3" height="30.4883" rx="2.5" ry="2.5" style="stroke:#181818;stroke-width:0.5;" width="145" x="2375" y="89.9766"/><text fill="#000000" font-family="sans-serif" font-size="14" lengthAdjust="spacing" textLength="131" x="2382" y="110.5117">:SystemUserBuilder</text><rect fill="#E3E3E3" height="30.4883" rx="2.5" ry="2.5" style="stroke:#181818;stroke-width:0.5;" width="145" x="2375" y="1416.1289"/><text fill="#000000" font-family="sans-serif" font-size="14" lengthAdjust="spacing" textLength="131" x="2382" y="1436.6641">:SystemUserBuilder</text><rect fill="#E3E3E3" height="30.4883" rx="2.5" ry="2.5" style="stroke:#181818;stroke-width:0.5;" width="97" x="2988" y="89.9766"/><text fill="#000000" font-family="sans-serif" font-size="14" lengthAdjust="spacing" textLength="83" x="2995" y="110.5117">:SystemUser</text><rect fill="#E3E3E3" height="30.4883" rx="2.5" ry="2.5" style="stroke:#181818;stroke-width:0.5;" width="97" x="2988" y="1416.1289"/><text fill="#000000" font-family="sans-serif" font-size="14" lengthAdjust="spacing" textLength="83" x="2995" y="1436.6641">:SystemUser</text><text fill="#000000" font-family="sans-serif" font-size="14" font-style="italic" lengthAdjust="spacing" textLength="84" x="3105" y="102.0234">&#171;repository&#187;</text><text fill="#000000" font-family="sans-serif" font-size="14" lengthAdjust="spacing" textLength="104" x="3095" y="118.5117">UserRepository</text><path d="M3132,52.4883 C3132,42.4883 3150,42.4883 3150,42.4883 C3150,42.4883 3168,42.4883 3168,52.4883 L3168,78.4883 C3168,88.4883 3150,88.4883 3150,88.4883 C3150,88.4883 3132,88.4883 3132,78.4883 L3132,52.4883 " fill="#E3E3E3" style="stroke:#181818;stroke-width:1.5;"/><path d="M3132,52.4883 C3132,62.4883 3150,62.4883 3150,62.4883 C3150,62.4883 3168,62.4883 3168,52.4883 " fill="none" style="stroke:#181818;stroke-width:1.5;"/><text fill="#000000" font-family="sans-serif" font-size="14" font-style="italic" lengthAdjust="spacing" textLength="84" x="3105" y="1429.6641">&#171;repository&#187;</text><text fill="#000000" font-family="sans-serif" font-size="14" lengthAdjust="spacing" textLength="104" x="3095" y="1446.1523">UserRepository</text><path d="M3132,1459.1055 C3132,1449.1055 3150,1449.1055 3150,1449.1055 C3150,1449.1055 3168,1449.1055 3168,1459.1055 L3168,1485.1055 C3168,1495.1055 3150,1495.1055 3150,1495.1055 C3150,1495.1055 3132,1495.1055 3132,1485.1055 L3132,1459.1055 " fill="#E3E3E3" style="stroke:#181818;stroke-width:1.5;"/><path d="M3132,1459.1055 C3132,1469.1055 3150,1469.1055 3150,1469.1055 C3150,1469.1055 3168,1469.1055 3168,1459.1055 " fill="none" style="stroke:#181818;stroke-width:1.5;"/><text fill="#000000" font-family="sans-serif" font-size="14" font-style="italic" lengthAdjust="spacing" textLength="84" x="3244.5" y="102.0234">&#171;repository&#187;</text><text fill="#000000" font-family="sans-serif" font-size="14" lengthAdjust="spacing" textLength="143" x="3215" y="118.5117">CandidateRepository</text><path d="M3271.5,52.4883 C3271.5,42.4883 3289.5,42.4883 3289.5,42.4883 C3289.5,42.4883 3307.5,42.4883 3307.5,52.4883 L3307.5,78.4883 C3307.5,88.4883 3289.5,88.4883 3289.5,88.4883 C3289.5,88.4883 3271.5,88.4883 3271.5,78.4883 L3271.5,52.4883 " fill="#E3E3E3" style="stroke:#181818;stroke-width:1.5;"/><path d="M3271.5,52.4883 C3271.5,62.4883 3289.5,62.4883 3289.5,62.4883 C3289.5,62.4883 3307.5,62.4883 3307.5,52.4883 " fill="none" style="stroke:#181818;stroke-width:1.5;"/><text fill="#000000" font-family="sans-serif" font-size="14" font-style="italic" lengthAdjust="spacing" textLength="84" x="3244.5" y="1429.6641">&#171;repository&#187;</text><text fill="#000000" font-family="sans-serif" font-size="14" lengthAdjust="spacing" textLength="143" x="3215" y="1446.1523">CandidateRepository</text><path d="M3271.5,1459.1055 C3271.5,1449.1055 3289.5,1449.1055 3289.5,1449.1055 C3289.5,1449.1055 3307.5,1449.1055 3307.5,1459.1055 L3307.5,1485.1055 C3307.5,1495.1055 3289.5,1495.1055 3289.5,1495.1055 C3289.5,1495.1055 3271.5,1495.1055 3271.5,1485.1055 L3271.5,1459.1055 " fill="#E3E3E3" style="stroke:#181818;stroke-width:1.5;"/><path d="M3271.5,1459.1055 C3271.5,1469.1055 3289.5,1469.1055 3289.5,1469.1055 C3289.5,1469.1055 3307.5,1469.1055 3307.5,1459.1055 " fill="none" style="stroke:#181818;stroke-width:1.5;"/><rect fill="#FFFFFF" height="1276.6641" style="stroke:#181818;stroke-width:1.0;" width="10" x="34" y="131.4648"/><rect fill="#FFFFFF" height="1255.3535" style="stroke:#181818;stroke-width:1.0;" width="10" x="415" y="152.7754"/><rect fill="#FFFFFF" height="762.0742" style="stroke:#181818;stroke-width:1.0;" width="10" x="840" y="285.3281"/><rect fill="#FFFFFF" height="293.1055" style="stroke:#181818;stroke-width:1.0;" width="10" x="1026.5" y="1076.7129"/><rect fill="#FFFFFF" height="615.5215" style="stroke:#181818;stroke-width:1.0;" width="10" x="1376.5" y="431.8809"/><rect fill="#FFFFFF" height="29.3105" style="stroke:#181818;stroke-width:1.0;" width="10" x="1650.5" y="754.2969"/><rect fill="#FFFFFF" height="58.6211" style="stroke:#181818;stroke-width:1.0;" width="10" x="1820.5" y="842.2285"/><rect fill="#FFFFFF" height="58.6211" style="stroke:#181818;stroke-width:1.0;" width="10" x="1820.5" y="1106.0234"/><rect fill="#FFFFFF" height="58.6211" style="stroke:#181818;stroke-width:1.0;" width="10" x="1972" y="930.1602"/><rect fill="#FFFFFF" height="58.6211" style="stroke:#181818;stroke-width:1.0;" width="10" x="1972" y="1193.9551"/><rect fill="#FFFFFF" height="263.7949" style="stroke:#181818;stroke-width:1.0;" width="10" x="2143.5" y="461.1914"/><rect fill="#FFFFFF" height="87.9316" style="stroke:#181818;stroke-width:1.0;" width="10" x="2442.5" y="549.123"/><rect fill="#FFFFFF" height="29.3105" style="stroke:#181818;stroke-width:1.0;" width="10" x="3031.5" y="578.4336"/><rect fill="#FFFFFF" height="29.3105" style="stroke:#181818;stroke-width:1.0;" width="10" x="3145" y="666.3652"/><polygon fill="#181818" points="403,148.7754,413,152.7754,403,156.7754,407,152.7754" style="stroke:#181818;stroke-width:1.0;"/><line style="stroke:#181818;stroke-width:1.0;" x1="44" x2="409" y1="152.7754" y2="152.7754"/><text fill="#000000" font-family="sans-serif" font-size="13" font-weight="bold" lengthAdjust="spacing" textLength="9" x="51" y="148.0332">1</text><text fill="#000000" font-family="sans-serif" font-size="13" lengthAdjust="spacing" textLength="162" x="64" y="148.0332">ask to register a new user</text><polygon fill="#181818" points="833,178.0859,843,182.0859,833,186.0859,837,182.0859" style="stroke:#181818;stroke-width:1.0;"/><line style="stroke:#181818;stroke-width:1.0;" x1="425" x2="839" y1="182.0859" y2="182.0859"/><text fill="#000000" font-family="sans-serif" font-size="13" font-weight="bold" lengthAdjust="spacing" textLength="9" x="432" y="177.3438">2</text><text fill="#000000" font-family="sans-serif" font-size="13" lengthAdjust="spacing" textLength="38" x="445" y="177.3438">create</text><polygon fill="#181818" points="55,222.707,45,226.707,55,230.707,51,226.707" style="stroke:#181818;stroke-width:1.0;"/><line style="stroke:#181818;stroke-width:1.0;stroke-dasharray:2.0,2.0;" x1="49" x2="414" y1="226.707" y2="226.707"/><text fill="#000000" font-family="sans-serif" font-size="13" font-weight="bold" lengthAdjust="spacing" textLength="9" x="61" y="214.3096">3</text><text fill="#000000" font-family="sans-serif" font-size="13" lengthAdjust="spacing" textLength="289" x="74" y="206.6543">request user information(Username, Password</text><text fill="#000000" font-family="sans-serif" font-size="13" lengthAdjust="spacing" textLength="334" x="74" y="221.9648">FirstName, LastName, Email, phoneNumber, address)</text><polygon fill="#181818" points="403,252.0176,413,256.0176,403,260.0176,407,256.0176" style="stroke:#181818;stroke-width:1.0;"/><line style="stroke:#181818;stroke-width:1.0;" x1="44" x2="409" y1="256.0176" y2="256.0176"/><text fill="#000000" font-family="sans-serif" font-size="13" font-weight="bold" lengthAdjust="spacing" textLength="9" x="51" y="251.2754">4</text><text fill="#000000" font-family="sans-serif" font-size="13" lengthAdjust="spacing" textLength="259" x="64" y="251.2754">types the request information of the user</text><polygon fill="#181818" points="828,281.3281,838,285.3281,828,289.3281,832,285.3281" style="stroke:#181818;stroke-width:1.0;"/><line style="stroke:#181818;stroke-width:1.0;" x1="425" x2="834" y1="285.3281" y2="285.3281"/><text fill="#000000" font-family="sans-serif" font-size="13" font-weight="bold" lengthAdjust="spacing" textLength="9" x="432" y="280.5859">5</text><text fill="#000000" font-family="sans-serif" font-size="13" lengthAdjust="spacing" textLength="383" x="445" y="280.5859">regCandidate(username,password,firstName,lastName,email)</text><polygon fill="#181818" points="1369.5,310.6387,1379.5,314.6387,1369.5,318.6387,1373.5,314.6387" style="stroke:#181818;stroke-width:1.0;"/><line style="stroke:#181818;stroke-width:1.0;" x1="850" x2="1375.5" y1="314.6387" y2="314.6387"/><text fill="#000000" font-family="sans-serif" font-size="13" font-weight="bold" lengthAdjust="spacing" textLength="9" x="857" y="309.8965">6</text><text fill="#000000" font-family="sans-serif" font-size="13" lengthAdjust="spacing" textLength="38" x="870" y="309.8965">create</text><polygon fill="#181818" points="1369.5,339.9492,1379.5,343.9492,1369.5,347.9492,1373.5,343.9492" style="stroke:#181818;stroke-width:1.0;"/><line style="stroke:#181818;stroke-width:1.0;" x1="850" x2="1375.5" y1="343.9492" y2="343.9492"/><text fill="#000000" font-family="sans-serif" font-size="13" font-weight="bold" lengthAdjust="spacing" textLength="9" x="857" y="339.207">7</text><text fill="#000000" font-family="sans-serif" font-size="13" lengthAdjust="spacing" textLength="142" x="870" y="339.207">withSystemUser(email)</text><polygon fill="#181818" points="1369.5,369.2598,1379.5,373.2598,1369.5,377.2598,1373.5,373.2598" style="stroke:#181818;stroke-width:1.0;"/><line style="stroke:#181818;stroke-width:1.0;" x1="850" x2="1375.5" y1="373.2598" y2="373.2598"/><text fill="#000000" font-family="sans-serif" font-size="13" font-weight="bold" lengthAdjust="spacing" textLength="9" x="857" y="368.5176">8</text><text fill="#000000" font-family="sans-serif" font-size="13" lengthAdjust="spacing" textLength="135" x="870" y="368.5176">withAddress(address)</text><polygon fill="#181818" points="1369.5,398.5703,1379.5,402.5703,1369.5,406.5703,1373.5,402.5703" style="stroke:#181818;stroke-width:1.0;"/><line style="stroke:#181818;stroke-width:1.0;" x1="850" x2="1375.5" y1="402.5703" y2="402.5703"/><text fill="#000000" font-family="sans-serif" font-size="13" font-weight="bold" lengthAdjust="spacing" textLength="9" x="857" y="397.8281">9</text><text fill="#000000" font-family="sans-serif" font-size="13" lengthAdjust="spacing" textLength="162" x="870" y="397.8281">withPhone(phoneNumber)</text><polygon fill="#181818" points="1364.5,427.8809,1374.5,431.8809,1364.5,435.8809,1368.5,431.8809" style="stroke:#181818;stroke-width:1.0;"/><line style="stroke:#181818;stroke-width:1.0;" x1="850" x2="1370.5" y1="431.8809" y2="431.8809"/><text fill="#000000" font-family="sans-serif" font-size="13" font-weight="bold" lengthAdjust="spacing" textLength="18" x="857" y="427.1387">10</text><text fill="#000000" font-family="sans-serif" font-size="13" lengthAdjust="spacing" textLength="40" x="879" y="427.1387">build()</text><polygon fill="#181818" points="2131.5,457.1914,2141.5,461.1914,2131.5,465.1914,2135.5,461.1914" style="stroke:#181818;stroke-width:1.0;"/><line style="stroke:#181818;stroke-width:1.0;" x1="1386.5" x2="2137.5" y1="461.1914" y2="461.1914"/><text fill="#000000" font-family="sans-serif" font-size="13" font-weight="bold" lengthAdjust="spacing" textLength="18" x="1393.5" y="456.4492">11</text><text fill="#000000" font-family="sans-serif" font-size="13" lengthAdjust="spacing" textLength="530" x="1415.5" y="456.4492">registerNewUser(username, password, firstName, lastName, email, roles, createdOn)</text><polygon fill="#181818" points="2435.5,486.502,2445.5,490.502,2435.5,494.502,2439.5,490.502" style="stroke:#181818;stroke-width:1.0;"/><line style="stroke:#181818;stroke-width:1.0;" x1="2153.5" x2="2441.5" y1="490.502" y2="490.502"/><text fill="#000000" font-family="sans-serif" font-size="13" font-weight="bold" lengthAdjust="spacing" textLength="18" x="2160.5" y="485.7598">12</text><text fill="#000000" font-family="sans-serif" font-size="13" lengthAdjust="spacing" textLength="248" x="2182.5" y="485.7598">with(username, password, name, email)</text><polygon fill="#181818" points="2435.5,515.8125,2445.5,519.8125,2435.5,523.8125,2439.5,519.8125" style="stroke:#181818;stroke-width:1.0;"/><line style="stroke:#181818;stroke-width:1.0;" x1="2153.5" x2="2441.5" y1="519.8125" y2="519.8125"/><text fill="#000000" font-family="sans-serif" font-size="13" font-weight="bold" lengthAdjust="spacing" textLength="18" x="2160.5" y="515.0703">13</text><text fill="#000000" font-family="sans-serif" font-size="13" lengthAdjust="spacing" textLength="104" x="2182.5" y="515.0703">withRoles(roles);</text><polygon fill="#181818" points="2430.5,545.123,2440.5,549.123,2430.5,553.123,2434.5,549.123" style="stroke:#181818;stroke-width:1.0;"/><line style="stroke:#181818;stroke-width:1.0;" x1="2153.5" x2="2436.5" y1="549.123" y2="549.123"/><text fill="#000000" font-family="sans-serif" font-size="13" font-weight="bold" lengthAdjust="spacing" textLength="18" x="2160.5" y="544.3809">14</text><text fill="#000000" font-family="sans-serif" font-size="13" lengthAdjust="spacing" textLength="40" x="2182.5" y="544.3809">build()</text><polygon fill="#181818" points="3019.5,574.4336,3029.5,578.4336,3019.5,582.4336,3023.5,578.4336" style="stroke:#181818;stroke-width:1.0;"/><line style="stroke:#181818;stroke-width:1.0;" x1="2452.5" x2="3025.5" y1="578.4336" y2="578.4336"/><text fill="#000000" font-family="sans-serif" font-size="13" font-weight="bold" lengthAdjust="spacing" textLength="18" x="2459.5" y="573.6914">15</text><text fill="#000000" font-family="sans-serif" font-size="13" lengthAdjust="spacing" textLength="538" x="2481.5" y="573.6914">create(this.username, this.password, this.name, this.email, this.roles, this.createdOn)</text><polygon fill="#181818" points="2463.5,603.7441,2453.5,607.7441,2463.5,611.7441,2459.5,607.7441" style="stroke:#181818;stroke-width:1.0;"/><line style="stroke:#181818;stroke-width:1.0;" x1="2457.5" x2="3035.5" y1="607.7441" y2="607.7441"/><text fill="#000000" font-family="sans-serif" font-size="13" font-weight="bold" lengthAdjust="spacing" textLength="18" x="2469.5" y="603.002">16</text><text fill="#000000" font-family="sans-serif" font-size="13" lengthAdjust="spacing" textLength="73" x="2491.5" y="603.002">systemUser</text><polygon fill="#181818" points="2164.5,633.0547,2154.5,637.0547,2164.5,641.0547,2160.5,637.0547" style="stroke:#181818;stroke-width:1.0;"/><line style="stroke:#181818;stroke-width:1.0;" x1="2158.5" x2="2446.5" y1="637.0547" y2="637.0547"/><text fill="#000000" font-family="sans-serif" font-size="13" font-weight="bold" lengthAdjust="spacing" textLength="18" x="2170.5" y="632.3125">17</text><text fill="#000000" font-family="sans-serif" font-size="13" lengthAdjust="spacing" textLength="73" x="2192.5" y="632.3125">systemUser</text><polygon fill="#181818" points="3133,662.3652,3143,666.3652,3133,670.3652,3137,666.3652" style="stroke:#181818;stroke-width:1.0;"/><line style="stroke:#181818;stroke-width:1.0;" x1="2153.5" x2="3139" y1="666.3652" y2="666.3652"/><text fill="#000000" font-family="sans-serif" font-size="13" font-weight="bold" lengthAdjust="spacing" textLength="18" x="2160.5" y="661.623">18</text><text fill="#000000" font-family="sans-serif" font-size="13" lengthAdjust="spacing" textLength="109" x="2182.5" y="661.623">save(systemUser)</text><polygon fill="#181818" points="2164.5,691.6758,2154.5,695.6758,2164.5,699.6758,2160.5,695.6758" style="stroke:#181818;stroke-width:1.0;"/><line style="stroke:#181818;stroke-width:1.0;" x1="2158.5" x2="3149" y1="695.6758" y2="695.6758"/><text fill="#000000" font-family="sans-serif" font-size="13" font-weight="bold" lengthAdjust="spacing" textLength="18" x="2170.5" y="690.9336">19</text><text fill="#000000" font-family="sans-serif" font-size="13" lengthAdjust="spacing" textLength="73" x="2192.5" y="690.9336">systemUser</text><polygon fill="#181818" points="1397.5,720.9863,1387.5,724.9863,1397.5,728.9863,1393.5,724.9863" style="stroke:#181818;stroke-width:1.0;"/><line style="stroke:#181818;stroke-width:1.0;" x1="1391.5" x2="2147.5" y1="724.9863" y2="724.9863"/><text fill="#000000" font-family="sans-serif" font-size="13" font-weight="bold" lengthAdjust="spacing" textLength="18" x="1403.5" y="720.2441">20</text><text fill="#000000" font-family="sans-serif" font-size="13" lengthAdjust="spacing" textLength="73" x="1425.5" y="720.2441">systemUser</text><polygon fill="#181818" points="1638.5,750.2969,1648.5,754.2969,1638.5,758.2969,1642.5,754.2969" style="stroke:#181818;stroke-width:1.0;"/><line style="stroke:#181818;stroke-width:1.0;" x1="1386.5" x2="1644.5" y1="754.2969" y2="754.2969"/><text fill="#000000" font-family="sans-serif" font-size="13" font-weight="bold" lengthAdjust="spacing" textLength="18" x="1393.5" y="749.5547">21</text><text fill="#000000" font-family="sans-serif" font-size="13" lengthAdjust="spacing" textLength="223" x="1415.5" y="749.5547">create(systemUser, address, phone)</text><polygon fill="#181818" points="1397.5,779.6074,1387.5,783.6074,1397.5,787.6074,1393.5,783.6074" style="stroke:#181818;stroke-width:1.0;"/><line style="stroke:#181818;stroke-width:1.0;" x1="1391.5" x2="1654.5" y1="783.6074" y2="783.6074"/><text fill="#000000" font-family="sans-serif" font-size="13" font-weight="bold" lengthAdjust="spacing" textLength="18" x="1403.5" y="778.8652">22</text><text fill="#000000" font-family="sans-serif" font-size="13" lengthAdjust="spacing" textLength="71" x="1425.5" y="778.8652">jobs4uUser</text><polygon fill="#181818" points="861,808.918,851,812.918,861,816.918,857,812.918" style="stroke:#181818;stroke-width:1.0;"/><line style="stroke:#181818;stroke-width:1.0;" x1="855" x2="1375.5" y1="812.918" y2="812.918"/><text fill="#000000" font-family="sans-serif" font-size="13" font-weight="bold" lengthAdjust="spacing" textLength="18" x="867" y="808.1758">23</text><text fill="#000000" font-family="sans-serif" font-size="13" lengthAdjust="spacing" textLength="71" x="889" y="808.1758">jobs4uUser</text><polygon fill="#181818" points="1808.5,838.2285,1818.5,842.2285,1808.5,846.2285,1812.5,842.2285" style="stroke:#181818;stroke-width:1.0;"/><line style="stroke:#181818;stroke-width:1.0;" x1="850" x2="1814.5" y1="842.2285" y2="842.2285"/><text fill="#000000" font-family="sans-serif" font-size="13" font-weight="bold" lengthAdjust="spacing" textLength="18" x="857" y="837.4863">24</text><text fill="#000000" font-family="sans-serif" font-size="13" lengthAdjust="spacing" textLength="83" x="879" y="837.4863">repositories()</text><polygon fill="#181818" points="1965,867.5391,1975,871.5391,1965,875.5391,1969,871.5391" style="stroke:#181818;stroke-width:1.0;"/><line style="stroke:#181818;stroke-width:1.0;" x1="1830.5" x2="1971" y1="871.5391" y2="871.5391"/><text fill="#000000" font-family="sans-serif" font-size="13" font-weight="bold" lengthAdjust="spacing" textLength="18" x="1837.5" y="866.7969">25</text><text fill="#000000" font-family="sans-serif" font-size="13" lengthAdjust="spacing" textLength="38" x="1859.5" y="866.7969">create</text><polygon fill="#181818" points="861,896.8496,851,900.8496,861,904.8496,857,900.8496" style="stroke:#181818;stroke-width:1.0;"/><line style="stroke:#181818;stroke-width:1.0;" x1="855" x2="1824.5" y1="900.8496" y2="900.8496"/><text fill="#000000" font-family="sans-serif" font-size="13" font-weight="bold" lengthAdjust="spacing" textLength="18" x="867" y="896.1074">26</text><text fill="#000000" font-family="sans-serif" font-size="13" lengthAdjust="spacing" textLength="44" x="889" y="896.1074">factory</text><polygon fill="#181818" points="1960,926.1602,1970,930.1602,1960,934.1602,1964,930.1602" style="stroke:#181818;stroke-width:1.0;"/><line style="stroke:#181818;stroke-width:1.0;" x1="850" x2="1966" y1="930.1602" y2="930.1602"/><text fill="#000000" font-family="sans-serif" font-size="13" font-weight="bold" lengthAdjust="spacing" textLength="18" x="857" y="925.418">27</text><text fill="#000000" font-family="sans-serif" font-size="13" lengthAdjust="spacing" textLength="86" x="879" y="925.418">jobs4uUsers()</text><polygon fill="#181818" points="3138,955.4707,3148,959.4707,3138,963.4707,3142,959.4707" style="stroke:#181818;stroke-width:1.0;"/><line style="stroke:#181818;stroke-width:1.0;" x1="1982" x2="3144" y1="959.4707" y2="959.4707"/><text fill="#000000" font-family="sans-serif" font-size="13" font-weight="bold" lengthAdjust="spacing" textLength="18" x="1989" y="954.7285">28</text><text fill="#000000" font-family="sans-serif" font-size="13" lengthAdjust="spacing" textLength="38" x="2011" y="954.7285">create</text><polygon fill="#181818" points="861,984.7813,851,988.7813,861,992.7813,857,988.7813" style="stroke:#181818;stroke-width:1.0;"/><line style="stroke:#181818;stroke-width:1.0;" x1="855" x2="1976" y1="988.7813" y2="988.7813"/><text fill="#000000" font-family="sans-serif" font-size="13" font-weight="bold" lengthAdjust="spacing" textLength="18" x="867" y="984.0391">29</text><text fill="#000000" font-family="sans-serif" font-size="13" lengthAdjust="spacing" textLength="138" x="889" y="984.0391">jobs4uUserRepository</text><polygon fill="#181818" points="3138,1014.0918,3148,1018.0918,3138,1022.0918,3142,1018.0918" style="stroke:#181818;stroke-width:1.0;"/><line style="stroke:#181818;stroke-width:1.0;" x1="850" x2="3144" y1="1018.0918" y2="1018.0918"/><text fill="#000000" font-family="sans-serif" font-size="13" font-weight="bold" lengthAdjust="spacing" textLength="18" x="857" y="1013.3496">30</text><text fill="#000000" font-family="sans-serif" font-size="13" lengthAdjust="spacing" textLength="106" x="879" y="1013.3496">save(jobs4uuser)</text><polygon fill="#181818" points="856,1043.4023,846,1047.4023,856,1051.4023,852,1047.4023" style="stroke:#181818;stroke-width:1.0;"/><line style="stroke:#181818;stroke-width:1.0;" x1="850" x2="3149" y1="1047.4023" y2="1047.4023"/><text fill="#000000" font-family="sans-serif" font-size="13" font-weight="bold" lengthAdjust="spacing" textLength="18" x="862" y="1042.6602">31</text><text fill="#000000" font-family="sans-serif" font-size="13" lengthAdjust="spacing" textLength="70" x="884" y="1042.6602">jobs4uuser</text><polygon fill="#181818" points="1014.5,1072.7129,1024.5,1076.7129,1014.5,1080.7129,1018.5,1076.7129" style="stroke:#181818;stroke-width:1.0;"/><line style="stroke:#181818;stroke-width:1.0;" x1="425" x2="1020.5" y1="1076.7129" y2="1076.7129"/><text fill="#000000" font-family="sans-serif" font-size="13" font-weight="bold" lengthAdjust="spacing" textLength="18" x="432" y="1071.9707">32</text><text fill="#000000" font-family="sans-serif" font-size="13" lengthAdjust="spacing" textLength="343" x="454" y="1071.9707">registerCandidate(jobs4uuser, address, phoneNumber)</text><polygon fill="#181818" points="1808.5,1102.0234,1818.5,1106.0234,1808.5,1110.0234,1812.5,1106.0234" style="stroke:#181818;stroke-width:1.0;"/><line style="stroke:#181818;stroke-width:1.0;" x1="1036.5" x2="1814.5" y1="1106.0234" y2="1106.0234"/><text fill="#000000" font-family="sans-serif" font-size="13" font-weight="bold" lengthAdjust="spacing" textLength="18" x="1043.5" y="1101.2813">33</text><text fill="#000000" font-family="sans-serif" font-size="13" lengthAdjust="spacing" textLength="83" x="1065.5" y="1101.2813">repositories()</text><polygon fill="#181818" points="1965,1131.334,1975,1135.334,1965,1139.334,1969,1135.334" style="stroke:#181818;stroke-width:1.0;"/><line style="stroke:#181818;stroke-width:1.0;" x1="1830.5" x2="1971" y1="1135.334" y2="1135.334"/><text fill="#000000" font-family="sans-serif" font-size="13" font-weight="bold" lengthAdjust="spacing" textLength="18" x="1837.5" y="1130.5918">34</text><text fill="#000000" font-family="sans-serif" font-size="13" lengthAdjust="spacing" textLength="38" x="1859.5" y="1130.5918">create</text><polygon fill="#181818" points="1047.5,1160.6445,1037.5,1164.6445,1047.5,1168.6445,1043.5,1164.6445" style="stroke:#181818;stroke-width:1.0;"/><line style="stroke:#181818;stroke-width:1.0;stroke-dasharray:2.0,2.0;" x1="1041.5" x2="1824.5" y1="1164.6445" y2="1164.6445"/><text fill="#000000" font-family="sans-serif" font-size="13" font-weight="bold" lengthAdjust="spacing" textLength="18" x="1053.5" y="1159.9023">35</text><text fill="#000000" font-family="sans-serif" font-size="13" lengthAdjust="spacing" textLength="44" x="1075.5" y="1159.9023">factory</text><polygon fill="#181818" points="1960,1189.9551,1970,1193.9551,1960,1197.9551,1964,1193.9551" style="stroke:#181818;stroke-width:1.0;"/><line style="stroke:#181818;stroke-width:1.0;" x1="1036.5" x2="1966" y1="1193.9551" y2="1193.9551"/><text fill="#000000" font-family="sans-serif" font-size="13" font-weight="bold" lengthAdjust="spacing" textLength="18" x="1043.5" y="1189.2129">36</text><text fill="#000000" font-family="sans-serif" font-size="13" lengthAdjust="spacing" textLength="76" x="1065.5" y="1189.2129">candidates()</text><polygon fill="#181818" points="3277.5,1219.2656,3287.5,1223.2656,3277.5,1227.2656,3281.5,1223.2656" style="stroke:#181818;stroke-width:1.0;"/><line style="stroke:#181818;stroke-width:1.0;" x1="1982" x2="3283.5" y1="1223.2656" y2="1223.2656"/><text fill="#000000" font-family="sans-serif" font-size="13" font-weight="bold" lengthAdjust="spacing" textLength="18" x="1989" y="1218.5234">37</text><text fill="#000000" font-family="sans-serif" font-size="13" lengthAdjust="spacing" textLength="38" x="2011" y="1218.5234">create</text><polygon fill="#181818" points="1047.5,1248.5762,1037.5,1252.5762,1047.5,1256.5762,1043.5,1252.5762" style="stroke:#181818;stroke-width:1.0;"/><line style="stroke:#181818;stroke-width:1.0;" x1="1041.5" x2="1976" y1="1252.5762" y2="1252.5762"/><text fill="#000000" font-family="sans-serif" font-size="13" font-weight="bold" lengthAdjust="spacing" textLength="18" x="1053.5" y="1247.834">38</text><text fill="#000000" font-family="sans-serif" font-size="13" lengthAdjust="spacing" textLength="128" x="1075.5" y="1247.834">candidateRepository</text><polygon fill="#181818" points="1212,1277.8867,1222,1281.8867,1212,1285.8867,1216,1281.8867" style="stroke:#181818;stroke-width:1.0;"/><line style="stroke:#181818;stroke-width:1.0;" x1="1036.5" x2="1218" y1="1281.8867" y2="1281.8867"/><text fill="#000000" font-family="sans-serif" font-size="13" font-weight="bold" lengthAdjust="spacing" textLength="18" x="1043.5" y="1277.1445">39</text><text fill="#000000" font-family="sans-serif" font-size="13" lengthAdjust="spacing" textLength="46" x="1065.5" y="1277.1445">create()</text><polygon fill="#181818" points="3277.5,1307.1973,3287.5,1311.1973,3277.5,1315.1973,3281.5,1311.1973" style="stroke:#181818;stroke-width:1.0;"/><line style="stroke:#181818;stroke-width:1.0;" x1="1036.5" x2="3283.5" y1="1311.1973" y2="1311.1973"/><text fill="#000000" font-family="sans-serif" font-size="13" font-weight="bold" lengthAdjust="spacing" textLength="18" x="1043.5" y="1306.4551">40</text><text fill="#000000" font-family="sans-serif" font-size="13" lengthAdjust="spacing" textLength="97" x="1065.5" y="1306.4551">save(candidate)</text><polygon fill="#181818" points="1047.5,1336.5078,1037.5,1340.5078,1047.5,1344.5078,1043.5,1340.5078" style="stroke:#181818;stroke-width:1.0;"/><line style="stroke:#181818;stroke-width:1.0;stroke-dasharray:2.0,2.0;" x1="1041.5" x2="3288.5" y1="1340.5078" y2="1340.5078"/><text fill="#000000" font-family="sans-serif" font-size="13" font-weight="bold" lengthAdjust="spacing" textLength="18" x="1053.5" y="1335.7656">41</text><text fill="#000000" font-family="sans-serif" font-size="13" lengthAdjust="spacing" textLength="61" x="1075.5" y="1335.7656">candidate</text><polygon fill="#181818" points="436,1365.8184,426,1369.8184,436,1373.8184,432,1369.8184" style="stroke:#181818;stroke-width:1.0;"/><line style="stroke:#181818;stroke-width:1.0;stroke-dasharray:2.0,2.0;" x1="430" x2="1030.5" y1="1369.8184" y2="1369.8184"/><text fill="#000000" font-family="sans-serif" font-size="13" font-weight="bold" lengthAdjust="spacing" textLength="18" x="442" y="1365.0762">42</text><text fill="#000000" font-family="sans-serif" font-size="13" lengthAdjust="spacing" textLength="61" x="464" y="1365.0762">candidate</text><polygon fill="#181818" points="55,1395.1289,45,1399.1289,55,1403.1289,51,1399.1289" style="stroke:#181818;stroke-width:1.0;"/><line style="stroke:#181818;stroke-width:1.0;stroke-dasharray:2.0,2.0;" x1="49" x2="414" y1="1399.1289" y2="1399.1289"/><text fill="#000000" font-family="sans-serif" font-size="13" font-weight="bold" lengthAdjust="spacing" textLength="18" x="61" y="1394.3867">43</text><text fill="#000000" font-family="sans-serif" font-size="13" lengthAdjust="spacing" textLength="182" x="83" y="1394.3867">displayCandidateInformation</text><!--SRC=[dLV1RkCs4BthAuYzL0QS8btqv1e1qcu3fEXcWpLowuMMQ9kDHAea5Q__laDA94SKbMJNXu0IvxrvCtoa6FtCHKSLRKahXQnEIhQC6DMpGeUPZbRFzCXsvj8mebXbg3WsE42VQ2tFN1p9WJQQ5GNjZHHzksUgA0mt0DjTj64jsR7_UYOgHZvnUhJGA_Aq8n-lhwzfKVnquZKZ1odDNduhQ6Ma8bywfgWTK4rkxPi2KXfUyOuAGxwo8mTUzGSLDQ-fOK_tDX3-RhUTOfe9GmsNukPc0hkjwoSDA2cCaat377jy-WNGjEiQNkN0ivnBDA-oVAWyV1E8FbZy9zbIBZu2k7QZ1FUNtEjVUwl-zvutzP3J3xVR_J1Aa_qRK9j8WD8jPNjaIjjYOSLiNUoRiHZqrlOvFiqwrKdDOSqkTsunBnRiXzljOHYbMZTMssSgm74jhD-EgHTU3RtfjVfyRCtkfKeWWxjGLroulcZqQX4IOrK1oq3tL3DY9w9-Pwhfc-rMXGSe8G33QaxHkTS91VoW8_m5WaQhkx_awWOClG6IPs8axB_1VeGImSxG4gWim9xk2m8_y3-0aA4tf58C0Y35E0tp0_i6665FQkEe21S7gLhdsD9MB6ZBrkIHQdsMgYR_Y3kkj7bmR_-cVlGdUATPa-ua1Njm-tvDQ5t33jIh8ISg1LAQIySqCISMagEyH1xSb2jjGESgWaQ4ffQzbzgDIjU7eBFnCfbLkN9yeME8Sao5pm78wVVMj8NBKMTkJj5R9ShvAkHsw5OPklOcuj4skqGjVmFZZeOoAT_lZQ4e-FbuWCRTvamosEw1dLrTeU4aT9p4bfFGSy86Qu0afjTZ3-ilOkKJ1YbeSmSrI088ckxdiGrP9IAcNdq7rrShidHILx-z4uVRYij93fzGKaBWAQF1IdFY-kTObNkCfRb7D3Fsrut79hlnlDCpTQf0KwEAN8aws1d5rombMonmOgGvMSg4cfPTWkGW1ahwmih8Er-BAIBG9aJVfNI1SghqjHOYBkpy-JOSlz317f4gdB7ZoJilVC3YPHxP9kBYxI2_ldCM90-VDnEg8dzIuik3FLR65dBOUCdPX2BT14O2aRz8X8Cv4pCLDruuYgGyd2UdE2QArSt4tY5k3yXv5Mb5OKjDH0vBHFjyES7v3JAmzcw3Z1_LrFyv6Rst1KgEFvh9L3plyX_k-2M97- -OA7Kq_h1bicSyzkCMUvV7va6Jwdx8P4aYtvRtMYntitpRPpZJsowR2_R_feHZQPK9oajpRWp9HrmcycfHS95TU7-vZ66BjWtMHDVWckkkePUWv3xUI8lCxty0]--></g></svg>