<?xml version="1.0" encoding="us-ascii" standalone="no"?><svg xmlns="http://www.w3.org/2000/svg" xmlns:xlink="http://www.w3.org/1999/xlink" contentStyleType="text/css" height="1175px" preserveAspectRatio="none" style="width:2603px;height:1175px;background:#FFFFFF;" version="1.1" viewBox="0 0 2603 1175" width="2603px" zoomAndPan="magnify"><defs/><g><text fill="#000000" font-family="sans-serif" font-size="14" font-weight="bold" lengthAdjust="spacing" textLength="275" x="1165.75" y="28.5352">System Sequence Diagram - US 2000a</text><rect fill="#FFFFFF" height="940.248" style="stroke:#181818;stroke-width:1.0;" width="10" x="34" y="131.4648"/><rect fill="#FFFFFF" height="918.9375" style="stroke:#181818;stroke-width:1.0;" width="10" x="415" y="152.7754"/><rect fill="#FFFFFF" height="454.9688" style="stroke:#181818;stroke-width:1.0;" width="10" x="840" y="285.3281"/><rect fill="#FFFFFF" height="263.7949" style="stroke:#181818;stroke-width:1.0;" width="10" x="1026.5" y="769.6074"/><rect fill="#FFFFFF" height="103.2422" style="stroke:#181818;stroke-width:1.0;" width="10" x="1376.5" y="431.8809"/><rect fill="#FFFFFF" height="29.3105" style="stroke:#181818;stroke-width:1.0;" width="10" x="1911.5" y="476.502"/><rect fill="#FFFFFF" height="58.6211" style="stroke:#181818;stroke-width:1.0;" width="10" x="2081.5" y="564.4336"/><rect fill="#FFFFFF" height="58.6211" style="stroke:#181818;stroke-width:1.0;" width="10" x="2081.5" y="798.918"/><rect fill="#FFFFFF" height="58.6211" style="stroke:#181818;stroke-width:1.0;" width="10" x="2233" y="652.3652"/><rect fill="#FFFFFF" height="58.6211" style="stroke:#181818;stroke-width:1.0;" width="10" x="2233" y="886.8496"/><line style="stroke:#181818;stroke-width:0.5;stroke-dasharray:5.0,5.0;" x1="39" x2="39" y1="121.4648" y2="1080.7129"/><line style="stroke:#181818;stroke-width:0.5;stroke-dasharray:5.0,5.0;" x1="420" x2="420" y1="121.4648" y2="1080.7129"/><line style="stroke:#181818;stroke-width:0.5;stroke-dasharray:5.0,5.0;" x1="844.5" x2="844.5" y1="121.4648" y2="1080.7129"/><line style="stroke:#181818;stroke-width:0.5;stroke-dasharray:5.0,5.0;" x1="1031.5" x2="1031.5" y1="121.4648" y2="1080.7129"/><line style="stroke:#181818;stroke-width:0.5;stroke-dasharray:5.0,5.0;" x1="1223.5" x2="1223.5" y1="121.4648" y2="1080.7129"/><line style="stroke:#181818;stroke-width:0.5;stroke-dasharray:5.0,5.0;" x1="1381.5" x2="1381.5" y1="121.4648" y2="1080.7129"/><line style="stroke:#181818;stroke-width:0.5;stroke-dasharray:5.0,5.0;" x1="1916.5" x2="1916.5" y1="121.4648" y2="1080.7129"/><line style="stroke:#181818;stroke-width:0.5;stroke-dasharray:5.0,5.0;" x1="2086.5" x2="2086.5" y1="121.4648" y2="1080.7129"/><line style="stroke:#181818;stroke-width:0.5;stroke-dasharray:5.0,5.0;" x1="2237.5" x2="2237.5" y1="121.4648" y2="1080.7129"/><line style="stroke:#181818;stroke-width:0.5;stroke-dasharray:5.0,5.0;" x1="2379.5" x2="2379.5" y1="121.4648" y2="1080.7129"/><line style="stroke:#181818;stroke-width:0.5;stroke-dasharray:5.0,5.0;" x1="2527.5" x2="2527.5" y1="121.4648" y2="1080.7129"/><text fill="#000000" font-family="sans-serif" font-size="14" lengthAdjust="spacing" textLength="62" x="5" y="118.5117">Operator</text><ellipse cx="39" cy="53.4766" fill="#E3E3E3" rx="8" ry="8" style="stroke:#181818;stroke-width:0.5;"/><path d="M39,61.4766 L39,88.4766 M26,69.4766 L52,69.4766 M39,88.4766 L26,103.4766 M39,88.4766 L52,103.4766 " fill="none" style="stroke:#181818;stroke-width:0.5;"/><text fill="#000000" font-family="sans-serif" font-size="14" lengthAdjust="spacing" textLength="62" x="5" y="1093.248">Operator</text><ellipse cx="39" cy="1104.7012" fill="#E3E3E3" rx="8" ry="8" style="stroke:#181818;stroke-width:0.5;"/><path d="M39,1112.7012 L39,1139.7012 M26,1120.7012 L52,1120.7012 M39,1139.7012 L26,1154.7012 M39,1139.7012 L52,1154.7012 " fill="none" style="stroke:#181818;stroke-width:0.5;"/><rect fill="#E3E3E3" height="46.9766" rx="2.5" ry="2.5" style="stroke:#181818;stroke-width:0.5;" width="154" x="343" y="73.4883"/><text fill="#000000" font-family="sans-serif" font-size="14" font-style="italic" lengthAdjust="spacing" textLength="101" x="369.5" y="94.0234">&#171;presentation&#187;</text><text fill="#000000" font-family="sans-serif" font-size="14" lengthAdjust="spacing" textLength="140" x="350" y="110.5117">RegisterCandidateUI</text><rect fill="#E3E3E3" height="46.9766" rx="2.5" ry="2.5" style="stroke:#181818;stroke-width:0.5;" width="154" x="343" y="1079.7129"/><text fill="#000000" font-family="sans-serif" font-size="14" font-style="italic" lengthAdjust="spacing" textLength="101" x="369.5" y="1100.248">&#171;presentation&#187;</text><text fill="#000000" font-family="sans-serif" font-size="14" lengthAdjust="spacing" textLength="140" x="350" y="1116.7363">RegisterCandidateUI</text><rect fill="#E3E3E3" height="46.9766" rx="2.5" ry="2.5" style="stroke:#181818;stroke-width:0.5;" width="143" x="773.5" y="73.4883"/><text fill="#000000" font-family="sans-serif" font-size="14" font-style="italic" lengthAdjust="spacing" textLength="90" x="800" y="94.0234">&#171;application&#187;</text><text fill="#000000" font-family="sans-serif" font-size="14" lengthAdjust="spacing" textLength="129" x="780.5" y="110.5117">AddUserController</text><rect fill="#E3E3E3" height="46.9766" rx="2.5" ry="2.5" style="stroke:#181818;stroke-width:0.5;" width="143" x="773.5" y="1079.7129"/><text fill="#000000" font-family="sans-serif" font-size="14" font-style="italic" lengthAdjust="spacing" textLength="90" x="800" y="1100.248">&#171;application&#187;</text><text fill="#000000" font-family="sans-serif" font-size="14" lengthAdjust="spacing" textLength="129" x="780.5" y="1116.7363">AddUserController</text><rect fill="#E3E3E3" height="46.9766" rx="2.5" ry="2.5" style="stroke:#181818;stroke-width:0.5;" width="210" x="926.5" y="73.4883"/><text fill="#000000" font-family="sans-serif" font-size="14" font-style="italic" lengthAdjust="spacing" textLength="90" x="986.5" y="94.0234">&#171;application&#187;</text><text fill="#000000" font-family="sans-serif" font-size="14" lengthAdjust="spacing" textLength="196" x="933.5" y="110.5117">RegisterCandidateController</text><rect fill="#E3E3E3" height="46.9766" rx="2.5" ry="2.5" style="stroke:#181818;stroke-width:0.5;" width="210" x="926.5" y="1079.7129"/><text fill="#000000" font-family="sans-serif" font-size="14" font-style="italic" lengthAdjust="spacing" textLength="90" x="986.5" y="1100.248">&#171;application&#187;</text><text fill="#000000" font-family="sans-serif" font-size="14" lengthAdjust="spacing" textLength="196" x="933.5" y="1116.7363">RegisterCandidateController</text><rect fill="#E3E3E3" height="46.9766" rx="2.5" ry="2.5" style="stroke:#181818;stroke-width:0.5;" width="155" x="1146.5" y="73.4883"/><text fill="#000000" font-family="sans-serif" font-size="14" font-style="italic" lengthAdjust="spacing" textLength="66" x="1191" y="94.0234">&#171;domain&#187;</text><text fill="#000000" font-family="sans-serif" font-size="14" lengthAdjust="spacing" textLength="141" x="1153.5" y="110.5117">candidate:Candidate</text><rect fill="#E3E3E3" height="46.9766" rx="2.5" ry="2.5" style="stroke:#181818;stroke-width:0.5;" width="155" x="1146.5" y="1079.7129"/><text fill="#000000" font-family="sans-serif" font-size="14" font-style="italic" lengthAdjust="spacing" textLength="66" x="1191" y="1100.248">&#171;domain&#187;</text><text fill="#000000" font-family="sans-serif" font-size="14" lengthAdjust="spacing" textLength="141" x="1153.5" y="1116.7363">candidate:Candidate</text><rect fill="#E3E3E3" height="46.9766" rx="2.5" ry="2.5" style="stroke:#181818;stroke-width:0.5;" width="140" x="1311.5" y="73.4883"/><text fill="#000000" font-family="sans-serif" font-size="14" font-style="italic" lengthAdjust="spacing" textLength="63" x="1350" y="94.0234">&#171;builder&#187;</text><text fill="#000000" font-family="sans-serif" font-size="14" lengthAdjust="spacing" textLength="126" x="1318.5" y="110.5117">Jobs4uUserBuilder</text><rect fill="#E3E3E3" height="46.9766" rx="2.5" ry="2.5" style="stroke:#181818;stroke-width:0.5;" width="140" x="1311.5" y="1079.7129"/><text fill="#000000" font-family="sans-serif" font-size="14" font-style="italic" lengthAdjust="spacing" textLength="63" x="1350" y="1100.248">&#171;builder&#187;</text><text fill="#000000" font-family="sans-serif" font-size="14" lengthAdjust="spacing" textLength="126" x="1318.5" y="1116.7363">Jobs4uUserBuilder</text><rect fill="#E3E3E3" height="46.9766" rx="2.5" ry="2.5" style="stroke:#181818;stroke-width:0.5;" width="174" x="1829.5" y="73.4883"/><text fill="#000000" font-family="sans-serif" font-size="14" font-style="italic" lengthAdjust="spacing" textLength="66" x="1883.5" y="94.0234">&#171;domain&#187;</text><text fill="#000000" font-family="sans-serif" font-size="14" lengthAdjust="spacing" textLength="160" x="1836.5" y="110.5117">jobs4uUser:Jobs4uUser</text><rect fill="#E3E3E3" height="46.9766" rx="2.5" ry="2.5" style="stroke:#181818;stroke-width:0.5;" width="174" x="1829.5" y="1079.7129"/><text fill="#000000" font-family="sans-serif" font-size="14" font-style="italic" lengthAdjust="spacing" textLength="66" x="1883.5" y="1100.248">&#171;domain&#187;</text><text fill="#000000" font-family="sans-serif" font-size="14" lengthAdjust="spacing" textLength="160" x="1836.5" y="1116.7363">jobs4uUser:Jobs4uUser</text><rect fill="#E3E3E3" height="46.9766" rx="2.5" ry="2.5" style="stroke:#181818;stroke-width:0.5;" width="146" x="2013.5" y="73.4883"/><text fill="#000000" font-family="sans-serif" font-size="14" font-style="italic" lengthAdjust="spacing" textLength="92" x="2040.5" y="94.0234">&#171;persistence&#187;</text><text fill="#000000" font-family="sans-serif" font-size="14" lengthAdjust="spacing" textLength="132" x="2020.5" y="110.5117">PersistenceContext</text><rect fill="#E3E3E3" height="46.9766" rx="2.5" ry="2.5" style="stroke:#181818;stroke-width:0.5;" width="146" x="2013.5" y="1079.7129"/><text fill="#000000" font-family="sans-serif" font-size="14" font-style="italic" lengthAdjust="spacing" textLength="92" x="2040.5" y="1100.248">&#171;persistence&#187;</text><text fill="#000000" font-family="sans-serif" font-size="14" lengthAdjust="spacing" textLength="132" x="2020.5" y="1116.7363">PersistenceContext</text><rect fill="#E3E3E3" height="46.9766" rx="2.5" ry="2.5" style="stroke:#181818;stroke-width:0.5;" width="137" x="2169.5" y="73.4883"/><text fill="#000000" font-family="sans-serif" font-size="14" font-style="italic" lengthAdjust="spacing" textLength="61" x="2207.5" y="94.0234">&#171;factory&#187;</text><text fill="#000000" font-family="sans-serif" font-size="14" lengthAdjust="spacing" textLength="123" x="2176.5" y="110.5117">RepositoryFactory</text><rect fill="#E3E3E3" height="46.9766" rx="2.5" ry="2.5" style="stroke:#181818;stroke-width:0.5;" width="137" x="2169.5" y="1079.7129"/><text fill="#000000" font-family="sans-serif" font-size="14" font-style="italic" lengthAdjust="spacing" textLength="61" x="2207.5" y="1100.248">&#171;factory&#187;</text><text fill="#000000" font-family="sans-serif" font-size="14" lengthAdjust="spacing" textLength="123" x="2176.5" y="1116.7363">RepositoryFactory</text><text fill="#000000" font-family="sans-serif" font-size="14" font-style="italic" lengthAdjust="spacing" textLength="84" x="2335" y="102.0234">&#171;repository&#187;</text><text fill="#000000" font-family="sans-serif" font-size="14" lengthAdjust="spacing" textLength="121" x="2316.5" y="118.5117">Jobs4URepository</text><path d="M2362,52.4883 C2362,42.4883 2380,42.4883 2380,42.4883 C2380,42.4883 2398,42.4883 2398,52.4883 L2398,78.4883 C2398,88.4883 2380,88.4883 2380,88.4883 C2380,88.4883 2362,88.4883 2362,78.4883 L2362,52.4883 " fill="#E3E3E3" style="stroke:#181818;stroke-width:1.5;"/><path d="M2362,52.4883 C2362,62.4883 2380,62.4883 2380,62.4883 C2380,62.4883 2398,62.4883 2398,52.4883 " fill="none" style="stroke:#181818;stroke-width:1.5;"/><text fill="#000000" font-family="sans-serif" font-size="14" font-style="italic" lengthAdjust="spacing" textLength="84" x="2335" y="1093.248">&#171;repository&#187;</text><text fill="#000000" font-family="sans-serif" font-size="14" lengthAdjust="spacing" textLength="121" x="2316.5" y="1109.7363">Jobs4URepository</text><path d="M2362,1122.6895 C2362,1112.6895 2380,1112.6895 2380,1112.6895 C2380,1112.6895 2398,1112.6895 2398,1122.6895 L2398,1148.6895 C2398,1158.6895 2380,1158.6895 2380,1158.6895 C2380,1158.6895 2362,1158.6895 2362,1148.6895 L2362,1122.6895 " fill="#E3E3E3" style="stroke:#181818;stroke-width:1.5;"/><path d="M2362,1122.6895 C2362,1132.6895 2380,1132.6895 2380,1132.6895 C2380,1132.6895 2398,1132.6895 2398,1122.6895 " fill="none" style="stroke:#181818;stroke-width:1.5;"/><text fill="#000000" font-family="sans-serif" font-size="14" font-style="italic" lengthAdjust="spacing" textLength="84" x="2483" y="102.0234">&#171;repository&#187;</text><text fill="#000000" font-family="sans-serif" font-size="14" lengthAdjust="spacing" textLength="143" x="2453.5" y="118.5117">CandidateRepository</text><path d="M2510,52.4883 C2510,42.4883 2528,42.4883 2528,42.4883 C2528,42.4883 2546,42.4883 2546,52.4883 L2546,78.4883 C2546,88.4883 2528,88.4883 2528,88.4883 C2528,88.4883 2510,88.4883 2510,78.4883 L2510,52.4883 " fill="#E3E3E3" style="stroke:#181818;stroke-width:1.5;"/><path d="M2510,52.4883 C2510,62.4883 2528,62.4883 2528,62.4883 C2528,62.4883 2546,62.4883 2546,52.4883 " fill="none" style="stroke:#181818;stroke-width:1.5;"/><text fill="#000000" font-family="sans-serif" font-size="14" font-style="italic" lengthAdjust="spacing" textLength="84" x="2483" y="1093.248">&#171;repository&#187;</text><text fill="#000000" font-family="sans-serif" font-size="14" lengthAdjust="spacing" textLength="143" x="2453.5" y="1109.7363">CandidateRepository</text><path d="M2510,1122.6895 C2510,1112.6895 2528,1112.6895 2528,1112.6895 C2528,1112.6895 2546,1112.6895 2546,1122.6895 L2546,1148.6895 C2546,1158.6895 2528,1158.6895 2528,1158.6895 C2528,1158.6895 2510,1158.6895 2510,1148.6895 L2510,1122.6895 " fill="#E3E3E3" style="stroke:#181818;stroke-width:1.5;"/><path d="M2510,1122.6895 C2510,1132.6895 2528,1132.6895 2528,1132.6895 C2528,1132.6895 2546,1132.6895 2546,1122.6895 " fill="none" style="stroke:#181818;stroke-width:1.5;"/><rect fill="#FFFFFF" height="940.248" style="stroke:#181818;stroke-width:1.0;" width="10" x="34" y="131.4648"/><rect fill="#FFFFFF" height="918.9375" style="stroke:#181818;stroke-width:1.0;" width="10" x="415" y="152.7754"/><rect fill="#FFFFFF" height="454.9688" style="stroke:#181818;stroke-width:1.0;" width="10" x="840" y="285.3281"/><rect fill="#FFFFFF" height="263.7949" style="stroke:#181818;stroke-width:1.0;" width="10" x="1026.5" y="769.6074"/><rect fill="#FFFFFF" height="103.2422" style="stroke:#181818;stroke-width:1.0;" width="10" x="1376.5" y="431.8809"/><rect fill="#FFFFFF" height="29.3105" style="stroke:#181818;stroke-width:1.0;" width="10" x="1911.5" y="476.502"/><rect fill="#FFFFFF" height="58.6211" style="stroke:#181818;stroke-width:1.0;" width="10" x="2081.5" y="564.4336"/><rect fill="#FFFFFF" height="58.6211" style="stroke:#181818;stroke-width:1.0;" width="10" x="2081.5" y="798.918"/><rect fill="#FFFFFF" height="58.6211" style="stroke:#181818;stroke-width:1.0;" width="10" x="2233" y="652.3652"/><rect fill="#FFFFFF" height="58.6211" style="stroke:#181818;stroke-width:1.0;" width="10" x="2233" y="886.8496"/><polygon fill="#181818" points="403,148.7754,413,152.7754,403,156.7754,407,152.7754" style="stroke:#181818;stroke-width:1.0;"/><line style="stroke:#181818;stroke-width:1.0;" x1="44" x2="409" y1="152.7754" y2="152.7754"/><text fill="#000000" font-family="sans-serif" font-size="13" font-weight="bold" lengthAdjust="spacing" textLength="9" x="51" y="148.0332">1</text><text fill="#000000" font-family="sans-serif" font-size="13" lengthAdjust="spacing" textLength="162" x="64" y="148.0332">ask to register a new user</text><polygon fill="#181818" points="833,178.0859,843,182.0859,833,186.0859,837,182.0859" style="stroke:#181818;stroke-width:1.0;"/><line style="stroke:#181818;stroke-width:1.0;" x1="425" x2="839" y1="182.0859" y2="182.0859"/><text fill="#000000" font-family="sans-serif" font-size="13" font-weight="bold" lengthAdjust="spacing" textLength="9" x="432" y="177.3438">2</text><text fill="#000000" font-family="sans-serif" font-size="13" lengthAdjust="spacing" textLength="38" x="445" y="177.3438">create</text><polygon fill="#181818" points="55,222.707,45,226.707,55,230.707,51,226.707" style="stroke:#181818;stroke-width:1.0;"/><line style="stroke:#181818;stroke-width:1.0;stroke-dasharray:2.0,2.0;" x1="49" x2="414" y1="226.707" y2="226.707"/><text fill="#000000" font-family="sans-serif" font-size="13" font-weight="bold" lengthAdjust="spacing" textLength="9" x="61" y="214.3096">3</text><text fill="#000000" font-family="sans-serif" font-size="13" lengthAdjust="spacing" textLength="289" x="74" y="206.6543">request user information(Username, Password</text><text fill="#000000" font-family="sans-serif" font-size="13" lengthAdjust="spacing" textLength="334" x="74" y="221.9648">FirstName, LastName, Email, phoneNumber, address)</text><polygon fill="#181818" points="403,252.0176,413,256.0176,403,260.0176,407,256.0176" style="stroke:#181818;stroke-width:1.0;"/><line style="stroke:#181818;stroke-width:1.0;" x1="44" x2="409" y1="256.0176" y2="256.0176"/><text fill="#000000" font-family="sans-serif" font-size="13" font-weight="bold" lengthAdjust="spacing" textLength="9" x="51" y="251.2754">4</text><text fill="#000000" font-family="sans-serif" font-size="13" lengthAdjust="spacing" textLength="259" x="64" y="251.2754">types the request information of the user</text><polygon fill="#181818" points="828,281.3281,838,285.3281,828,289.3281,832,285.3281" style="stroke:#181818;stroke-width:1.0;"/><line style="stroke:#181818;stroke-width:1.0;" x1="425" x2="834" y1="285.3281" y2="285.3281"/><text fill="#000000" font-family="sans-serif" font-size="13" font-weight="bold" lengthAdjust="spacing" textLength="9" x="432" y="280.5859">5</text><text fill="#000000" font-family="sans-serif" font-size="13" lengthAdjust="spacing" textLength="383" x="445" y="280.5859">regCandidate(username,password,firstName,lastName,email)</text><polygon fill="#181818" points="1369.5,310.6387,1379.5,314.6387,1369.5,318.6387,1373.5,314.6387" style="stroke:#181818;stroke-width:1.0;"/><line style="stroke:#181818;stroke-width:1.0;" x1="850" x2="1375.5" y1="314.6387" y2="314.6387"/><text fill="#000000" font-family="sans-serif" font-size="13" font-weight="bold" lengthAdjust="spacing" textLength="9" x="857" y="309.8965">6</text><text fill="#000000" font-family="sans-serif" font-size="13" lengthAdjust="spacing" textLength="38" x="870" y="309.8965">create</text><polygon fill="#181818" points="1369.5,339.9492,1379.5,343.9492,1369.5,347.9492,1373.5,343.9492" style="stroke:#181818;stroke-width:1.0;"/><line style="stroke:#181818;stroke-width:1.0;" x1="850" x2="1375.5" y1="343.9492" y2="343.9492"/><text fill="#000000" font-family="sans-serif" font-size="13" font-weight="bold" lengthAdjust="spacing" textLength="9" x="857" y="339.207">7</text><text fill="#000000" font-family="sans-serif" font-size="13" lengthAdjust="spacing" textLength="142" x="870" y="339.207">withSystemUser(email)</text><polygon fill="#181818" points="1369.5,369.2598,1379.5,373.2598,1369.5,377.2598,1373.5,373.2598" style="stroke:#181818;stroke-width:1.0;"/><line style="stroke:#181818;stroke-width:1.0;" x1="850" x2="1375.5" y1="373.2598" y2="373.2598"/><text fill="#000000" font-family="sans-serif" font-size="13" font-weight="bold" lengthAdjust="spacing" textLength="9" x="857" y="368.5176">8</text><text fill="#000000" font-family="sans-serif" font-size="13" lengthAdjust="spacing" textLength="135" x="870" y="368.5176">withAddress(address)</text><polygon fill="#181818" points="1369.5,398.5703,1379.5,402.5703,1369.5,406.5703,1373.5,402.5703" style="stroke:#181818;stroke-width:1.0;"/><line style="stroke:#181818;stroke-width:1.0;" x1="850" x2="1375.5" y1="402.5703" y2="402.5703"/><text fill="#000000" font-family="sans-serif" font-size="13" font-weight="bold" lengthAdjust="spacing" textLength="9" x="857" y="397.8281">9</text><text fill="#000000" font-family="sans-serif" font-size="13" lengthAdjust="spacing" textLength="162" x="870" y="397.8281">withPhone(phoneNumber)</text><polygon fill="#181818" points="1364.5,427.8809,1374.5,431.8809,1364.5,435.8809,1368.5,431.8809" style="stroke:#181818;stroke-width:1.0;"/><line style="stroke:#181818;stroke-width:1.0;" x1="850" x2="1370.5" y1="431.8809" y2="431.8809"/><text fill="#000000" font-family="sans-serif" font-size="13" font-weight="bold" lengthAdjust="spacing" textLength="18" x="857" y="427.1387">10</text><text fill="#000000" font-family="sans-serif" font-size="13" lengthAdjust="spacing" textLength="59" x="879" y="427.1387">addUser()</text><polygon fill="#181818" points="1899.5,472.502,1909.5,476.502,1899.5,480.502,1903.5,476.502" style="stroke:#181818;stroke-width:1.0;"/><line style="stroke:#181818;stroke-width:1.0;" x1="1386.5" x2="1905.5" y1="476.502" y2="476.502"/><text fill="#000000" font-family="sans-serif" font-size="13" font-weight="bold" lengthAdjust="spacing" textLength="18" x="1393.5" y="464.1045">11</text><text fill="#000000" font-family="sans-serif" font-size="13" lengthAdjust="spacing" textLength="184" x="1415.5" y="456.4492">addUser(Username, Password</text><text fill="#000000" font-family="sans-serif" font-size="13" lengthAdjust="spacing" textLength="484" x="1415.5" y="471.7598">FirstName, LastName, Email, phoneNumber, address, BaseRoles.CANDIDATE)</text><polygon fill="#181818" points="1397.5,501.8125,1387.5,505.8125,1397.5,509.8125,1393.5,505.8125" style="stroke:#181818;stroke-width:1.0;"/><line style="stroke:#181818;stroke-width:1.0;stroke-dasharray:2.0,2.0;" x1="1391.5" x2="1915.5" y1="505.8125" y2="505.8125"/><text fill="#000000" font-family="sans-serif" font-size="13" font-weight="bold" lengthAdjust="spacing" textLength="18" x="1403.5" y="501.0703">12</text><text fill="#000000" font-family="sans-serif" font-size="13" lengthAdjust="spacing" textLength="27" x="1425.5" y="501.0703">user</text><polygon fill="#181818" points="861,531.123,851,535.123,861,539.123,857,535.123" style="stroke:#181818;stroke-width:1.0;"/><line style="stroke:#181818;stroke-width:1.0;" x1="855" x2="1380.5" y1="535.123" y2="535.123"/><text fill="#000000" font-family="sans-serif" font-size="13" font-weight="bold" lengthAdjust="spacing" textLength="18" x="867" y="530.3809">13</text><text fill="#000000" font-family="sans-serif" font-size="13" lengthAdjust="spacing" textLength="27" x="889" y="530.3809">user</text><polygon fill="#181818" points="2069.5,560.4336,2079.5,564.4336,2069.5,568.4336,2073.5,564.4336" style="stroke:#181818;stroke-width:1.0;"/><line style="stroke:#181818;stroke-width:1.0;" x1="850" x2="2075.5" y1="564.4336" y2="564.4336"/><text fill="#000000" font-family="sans-serif" font-size="13" font-weight="bold" lengthAdjust="spacing" textLength="18" x="857" y="559.6914">14</text><text fill="#000000" font-family="sans-serif" font-size="13" lengthAdjust="spacing" textLength="83" x="879" y="559.6914">repositories()</text><polygon fill="#181818" points="2226,589.7441,2236,593.7441,2226,597.7441,2230,593.7441" style="stroke:#181818;stroke-width:1.0;"/><line style="stroke:#181818;stroke-width:1.0;" x1="2091.5" x2="2232" y1="593.7441" y2="593.7441"/><text fill="#000000" font-family="sans-serif" font-size="13" font-weight="bold" lengthAdjust="spacing" textLength="18" x="2098.5" y="589.002">15</text><text fill="#000000" font-family="sans-serif" font-size="13" lengthAdjust="spacing" textLength="38" x="2120.5" y="589.002">create</text><polygon fill="#181818" points="861,619.0547,851,623.0547,861,627.0547,857,623.0547" style="stroke:#181818;stroke-width:1.0;"/><line style="stroke:#181818;stroke-width:1.0;stroke-dasharray:2.0,2.0;" x1="855" x2="2085.5" y1="623.0547" y2="623.0547"/><text fill="#000000" font-family="sans-serif" font-size="13" font-weight="bold" lengthAdjust="spacing" textLength="18" x="867" y="618.3125">16</text><text fill="#000000" font-family="sans-serif" font-size="13" lengthAdjust="spacing" textLength="44" x="889" y="618.3125">factory</text><polygon fill="#181818" points="2221,648.3652,2231,652.3652,2221,656.3652,2225,652.3652" style="stroke:#181818;stroke-width:1.0;"/><line style="stroke:#181818;stroke-width:1.0;" x1="850" x2="2227" y1="652.3652" y2="652.3652"/><text fill="#000000" font-family="sans-serif" font-size="13" font-weight="bold" lengthAdjust="spacing" textLength="18" x="857" y="647.623">17</text><text fill="#000000" font-family="sans-serif" font-size="13" lengthAdjust="spacing" textLength="42" x="879" y="647.623">users()</text><polygon fill="#181818" points="2368,677.6758,2378,681.6758,2368,685.6758,2372,681.6758" style="stroke:#181818;stroke-width:1.0;"/><line style="stroke:#181818;stroke-width:1.0;" x1="2243" x2="2374" y1="681.6758" y2="681.6758"/><text fill="#000000" font-family="sans-serif" font-size="13" font-weight="bold" lengthAdjust="spacing" textLength="18" x="2250" y="676.9336">18</text><text fill="#000000" font-family="sans-serif" font-size="13" lengthAdjust="spacing" textLength="38" x="2272" y="676.9336">create</text><polygon fill="#181818" points="861,706.9863,851,710.9863,861,714.9863,857,710.9863" style="stroke:#181818;stroke-width:1.0;"/><line style="stroke:#181818;stroke-width:1.0;stroke-dasharray:2.0,2.0;" x1="855" x2="2237" y1="710.9863" y2="710.9863"/><text fill="#000000" font-family="sans-serif" font-size="13" font-weight="bold" lengthAdjust="spacing" textLength="18" x="867" y="706.2441">19</text><text fill="#000000" font-family="sans-serif" font-size="13" lengthAdjust="spacing" textLength="138" x="889" y="706.2441">jobs4uUserRepository</text><polygon fill="#181818" points="2368,736.2969,2378,740.2969,2368,744.2969,2372,740.2969" style="stroke:#181818;stroke-width:1.0;"/><line style="stroke:#181818;stroke-width:1.0;" x1="845" x2="2374" y1="740.2969" y2="740.2969"/><text fill="#000000" font-family="sans-serif" font-size="13" font-weight="bold" lengthAdjust="spacing" textLength="18" x="852" y="735.5547">20</text><text fill="#000000" font-family="sans-serif" font-size="13" lengthAdjust="spacing" textLength="63" x="874" y="735.5547">save(user)</text><polygon fill="#181818" points="1014.5,765.6074,1024.5,769.6074,1014.5,773.6074,1018.5,769.6074" style="stroke:#181818;stroke-width:1.0;"/><line style="stroke:#181818;stroke-width:1.0;" x1="425" x2="1020.5" y1="769.6074" y2="769.6074"/><text fill="#000000" font-family="sans-serif" font-size="13" font-weight="bold" lengthAdjust="spacing" textLength="18" x="432" y="764.8652">21</text><text fill="#000000" font-family="sans-serif" font-size="13" lengthAdjust="spacing" textLength="300" x="454" y="764.8652">registerCandidate(user, address, phoneNumber)</text><polygon fill="#181818" points="2069.5,794.918,2079.5,798.918,2069.5,802.918,2073.5,798.918" style="stroke:#181818;stroke-width:1.0;"/><line style="stroke:#181818;stroke-width:1.0;" x1="1036.5" x2="2075.5" y1="798.918" y2="798.918"/><text fill="#000000" font-family="sans-serif" font-size="13" font-weight="bold" lengthAdjust="spacing" textLength="18" x="1043.5" y="794.1758">22</text><text fill="#000000" font-family="sans-serif" font-size="13" lengthAdjust="spacing" textLength="83" x="1065.5" y="794.1758">repositories()</text><polygon fill="#181818" points="2226,824.2285,2236,828.2285,2226,832.2285,2230,828.2285" style="stroke:#181818;stroke-width:1.0;"/><line style="stroke:#181818;stroke-width:1.0;" x1="2091.5" x2="2232" y1="828.2285" y2="828.2285"/><text fill="#000000" font-family="sans-serif" font-size="13" font-weight="bold" lengthAdjust="spacing" textLength="18" x="2098.5" y="823.4863">23</text><text fill="#000000" font-family="sans-serif" font-size="13" lengthAdjust="spacing" textLength="38" x="2120.5" y="823.4863">create</text><polygon fill="#181818" points="1047.5,853.5391,1037.5,857.5391,1047.5,861.5391,1043.5,857.5391" style="stroke:#181818;stroke-width:1.0;"/><line style="stroke:#181818;stroke-width:1.0;stroke-dasharray:2.0,2.0;" x1="1041.5" x2="2085.5" y1="857.5391" y2="857.5391"/><text fill="#000000" font-family="sans-serif" font-size="13" font-weight="bold" lengthAdjust="spacing" textLength="18" x="1053.5" y="852.7969">24</text><text fill="#000000" font-family="sans-serif" font-size="13" lengthAdjust="spacing" textLength="44" x="1075.5" y="852.7969">factory</text><polygon fill="#181818" points="2221,882.8496,2231,886.8496,2221,890.8496,2225,886.8496" style="stroke:#181818;stroke-width:1.0;"/><line style="stroke:#181818;stroke-width:1.0;" x1="1036.5" x2="2227" y1="886.8496" y2="886.8496"/><text fill="#000000" font-family="sans-serif" font-size="13" font-weight="bold" lengthAdjust="spacing" textLength="18" x="1043.5" y="882.1074">25</text><text fill="#000000" font-family="sans-serif" font-size="13" lengthAdjust="spacing" textLength="76" x="1065.5" y="882.1074">candidates()</text><polygon fill="#181818" points="2516,912.1602,2526,916.1602,2516,920.1602,2520,916.1602" style="stroke:#181818;stroke-width:1.0;"/><line style="stroke:#181818;stroke-width:1.0;" x1="2243" x2="2522" y1="916.1602" y2="916.1602"/><text fill="#000000" font-family="sans-serif" font-size="13" font-weight="bold" lengthAdjust="spacing" textLength="18" x="2250" y="911.418">26</text><text fill="#000000" font-family="sans-serif" font-size="13" lengthAdjust="spacing" textLength="38" x="2272" y="911.418">create</text><polygon fill="#181818" points="1047.5,941.4707,1037.5,945.4707,1047.5,949.4707,1043.5,945.4707" style="stroke:#181818;stroke-width:1.0;"/><line style="stroke:#181818;stroke-width:1.0;stroke-dasharray:2.0,2.0;" x1="1041.5" x2="2237" y1="945.4707" y2="945.4707"/><text fill="#000000" font-family="sans-serif" font-size="13" font-weight="bold" lengthAdjust="spacing" textLength="18" x="1053.5" y="940.7285">27</text><text fill="#000000" font-family="sans-serif" font-size="13" lengthAdjust="spacing" textLength="128" x="1075.5" y="940.7285">candidateRepository</text><polygon fill="#181818" points="1212,970.7813,1222,974.7813,1212,978.7813,1216,974.7813" style="stroke:#181818;stroke-width:1.0;"/><line style="stroke:#181818;stroke-width:1.0;" x1="1036.5" x2="1218" y1="974.7813" y2="974.7813"/><text fill="#000000" font-family="sans-serif" font-size="13" font-weight="bold" lengthAdjust="spacing" textLength="18" x="1043.5" y="970.0391">28</text><text fill="#000000" font-family="sans-serif" font-size="13" lengthAdjust="spacing" textLength="117" x="1065.5" y="970.0391">create(jobs4uUser)</text><polygon fill="#181818" points="2516,1000.0918,2526,1004.0918,2516,1008.0918,2520,1004.0918" style="stroke:#181818;stroke-width:1.0;"/><line style="stroke:#181818;stroke-width:1.0;" x1="1036.5" x2="2522" y1="1004.0918" y2="1004.0918"/><text fill="#000000" font-family="sans-serif" font-size="13" font-weight="bold" lengthAdjust="spacing" textLength="18" x="1043.5" y="999.3496">29</text><text fill="#000000" font-family="sans-serif" font-size="13" lengthAdjust="spacing" textLength="97" x="1065.5" y="999.3496">save(candidate)</text><polygon fill="#181818" points="436,1029.4023,426,1033.4023,436,1037.4023,432,1033.4023" style="stroke:#181818;stroke-width:1.0;"/><line style="stroke:#181818;stroke-width:1.0;stroke-dasharray:2.0,2.0;" x1="430" x2="1030.5" y1="1033.4023" y2="1033.4023"/><text fill="#000000" font-family="sans-serif" font-size="13" font-weight="bold" lengthAdjust="spacing" textLength="18" x="442" y="1028.6602">30</text><text fill="#000000" font-family="sans-serif" font-size="13" lengthAdjust="spacing" textLength="61" x="464" y="1028.6602">candidate</text><polygon fill="#181818" points="55,1058.7129,45,1062.7129,55,1066.7129,51,1062.7129" style="stroke:#181818;stroke-width:1.0;"/><line style="stroke:#181818;stroke-width:1.0;stroke-dasharray:2.0,2.0;" x1="49" x2="414" y1="1062.7129" y2="1062.7129"/><text fill="#000000" font-family="sans-serif" font-size="13" font-weight="bold" lengthAdjust="spacing" textLength="18" x="61" y="1057.9707">31</text><text fill="#000000" font-family="sans-serif" font-size="13" lengthAdjust="spacing" textLength="182" x="83" y="1057.9707">displayCandidateInformation</text><!--SRC=[hLPDRzim3BtxLmYxp07IeIjs2em2QTC26OQkQ9RRBehD95fjoPFafldtesHBbZ_I5CLoC6I9Zu-a7kcePyPBAcb12i55kfUY0A9b1P7o9oLDd-aELlgO0v6GQiftUMYWzZGJ1yPtP4jp1L54AoruLMn0Hf5c6c6hez9Ga1NyhO2dG1QCxWpqWgnNvEhoyf96qUSzou1iXT0RyHhHL0j9VfOWgLbGHUPc9q9ApL9MKgx94-mO-fMtb6SienhMIsE8poGf9IZWccec-FLr1pRFihL2bE1QYZm7wxrz-ufeMfOvIyV00yvJRjxqyYbry9btzCdW5wAWZ5yXEBEh7kwxsAXlbOd-fc9vLdEwPP9iwbMVx8z7pLe70TqfjaUGoYIBDsRoWbTjCC6kgNFxDgXKAHJ3EplUsyiy6h1R9icsNY48awSRgg3ERjtYx6LYgC5EaaZ_4a9z5RleiUsUYyX8ZRsWJQCm-oGNrwYZ6Vfu9bgWxEjR9vHmE90AWsfXwsL4y8UoGr2Wenb99Q01KZJ7U5vxdw57R0MbhIl2-5R8mWebDWbpMi2KF5Ab3a9cv3U_PrBf1xlxWxhL7LvPFYNbNd1uiEqs9JJBKFXgKdC6gI2bFfQWYDw39mzuYTZQ8vjQZHxB20lXQnfNBjIoYNIwzN7cBammKKwiFr-nm6L35ROVSZf9Tqjuskh0zBwUCQPySS3v9cHULolsLJkBU3J5ZeEIJyv4HkjX4_Sgq1WqbNRcY2HDJxR8_oA8ARd1DdaIEQWlj_E7nN8n_tNNYwacjdlDNBZef6AbOKupw6FiTf15M8vne2_0IFN22MCartGh0zKlOs1f3q8aEdBJnijeO3E8jHbB_N13eh6GMoQJx23E-y2hCpLjsHrkdJ2zsI34Tfots7wyZd0irW6heYzrCq_wRhgDEZeKPduuTWT38BrEkvmO154qwF6FI-5TMZWZXWzfeKVa2l9UFOnzhjuXYf3gl2I64Ri_7OugRXKs6J4VZzAAo8SnYKOlr7sAlDrfmNcn1H_DZAaofqSVmBBzVaN3tpy0]--></g></svg>