<svg xmlns="http://www.w3.org/2000/svg" xmlns:xlink="http://www.w3.org/1999/xlink" contentStyleType="text/css" height="581px" preserveAspectRatio="none" style="width:538px;height:581px;background:#FFFFFF;" version="1.1" viewBox="0 0 538 581" width="538px" zoomAndPan="magnify"><title>System Sequence Diagram - US 5.1.10</title><defs/><g><text fill="#000000" font-family="sans-serif" font-size="14" font-weight="bold" lengthAdjust="spacing" textLength="274.7227" x="138.7542" y="28.5352">System Sequence Diagram - US 5.1.10</text><rect fill="#FFFFFF" height="71.6211" style="stroke:#181818;stroke-width:1.0;" width="10" x="326.4609" y="150.2871"/><rect fill="#FFFFFF" height="29.3105" style="stroke:#181818;stroke-width:1.0;" width="10" x="326.4609" y="251.2188"/><rect fill="#FFFFFF" height="29.3105" style="stroke:#181818;stroke-width:1.0;" width="10" x="326.4609" y="309.8398"/><rect fill="#FFFFFF" height="113.9316" style="stroke:#181818;stroke-width:1.0;" width="10" x="326.4609" y="368.4609"/><line style="stroke:#181818;stroke-width:0.5;stroke-dasharray:5.0,5.0;" x1="30" x2="30" y1="118.9766" y2="500.3926"/><line style="stroke:#181818;stroke-width:0.5;stroke-dasharray:5.0,5.0;" x1="331.4121" x2="331.4121" y1="118.9766" y2="500.3926"/><text fill="#000000" font-family="sans-serif" font-size="14" lengthAdjust="spacing" textLength="44.2764" x="5" y="116.0234">Admin</text><ellipse cx="30.1382" cy="50.9883" fill="#E2E2F0" rx="8" ry="8" style="stroke:#181818;stroke-width:0.5;"/><path d="M30.1382,58.9883 L30.1382,85.9883 M17.1382,66.9883 L43.1382,66.9883 M30.1382,85.9883 L17.1382,100.9883 M30.1382,85.9883 L43.1382,100.9883 " fill="none" style="stroke:#181818;stroke-width:0.5;"/><text fill="#000000" font-family="sans-serif" font-size="14" lengthAdjust="spacing" textLength="44.2764" x="5" y="512.9277">Admin</text><ellipse cx="30.1382" cy="524.3809" fill="#E2E2F0" rx="8" ry="8" style="stroke:#181818;stroke-width:0.5;"/><path d="M30.1382,532.3809 L30.1382,559.3809 M17.1382,540.3809 L43.1382,540.3809 M30.1382,559.3809 L17.1382,574.3809 M30.1382,559.3809 L43.1382,574.3809 " fill="none" style="stroke:#181818;stroke-width:0.5;"/><text fill="#000000" font-family="sans-serif" font-size="14" lengthAdjust="spacing" textLength="48.0977" x="304.4121" y="116.0234">System</text><ellipse cx="331.4609" cy="50.9883" fill="#E2E2F0" rx="8" ry="8" style="stroke:#181818;stroke-width:0.5;"/><path d="M331.4609,58.9883 L331.4609,85.9883 M318.4609,66.9883 L344.4609,66.9883 M331.4609,85.9883 L318.4609,100.9883 M331.4609,85.9883 L344.4609,100.9883 " fill="none" style="stroke:#181818;stroke-width:0.5;"/><text fill="#000000" font-family="sans-serif" font-size="14" lengthAdjust="spacing" textLength="48.0977" x="304.4121" y="512.9277">System</text><ellipse cx="331.4609" cy="524.3809" fill="#E2E2F0" rx="8" ry="8" style="stroke:#181818;stroke-width:0.5;"/><path d="M331.4609,532.3809 L331.4609,559.3809 M318.4609,540.3809 L344.4609,540.3809 M331.4609,559.3809 L318.4609,574.3809 M331.4609,559.3809 L344.4609,574.3809 " fill="none" style="stroke:#181818;stroke-width:0.5;"/><rect fill="#FFFFFF" height="71.6211" style="stroke:#181818;stroke-width:1.0;" width="10" x="326.4609" y="150.2871"/><rect fill="#FFFFFF" height="29.3105" style="stroke:#181818;stroke-width:1.0;" width="10" x="326.4609" y="251.2188"/><rect fill="#FFFFFF" height="29.3105" style="stroke:#181818;stroke-width:1.0;" width="10" x="326.4609" y="309.8398"/><rect fill="#FFFFFF" height="113.9316" style="stroke:#181818;stroke-width:1.0;" width="10" x="326.4609" y="368.4609"/><polygon fill="#181818" points="314.4609,146.2871,324.4609,150.2871,314.4609,154.2871,318.4609,150.2871" style="stroke:#181818;stroke-width:1.0;"/><line style="stroke:#181818;stroke-width:1.0;" x1="30.1382" x2="320.4609" y1="150.2871" y2="150.2871"/><text fill="#000000" font-family="sans-serif" font-size="13" lengthAdjust="spacing" textLength="277.3228" x="37.1382" y="145.5449">Request to delete an existing patient profile</text><line style="stroke:#181818;stroke-width:1.0;" x1="336.4609" x2="378.4609" y1="179.5977" y2="179.5977"/><line style="stroke:#181818;stroke-width:1.0;" x1="378.4609" x2="378.4609" y1="179.5977" y2="192.5977"/><line style="stroke:#181818;stroke-width:1.0;" x1="337.4609" x2="378.4609" y1="192.5977" y2="192.5977"/><polygon fill="#181818" points="347.4609,188.5977,337.4609,192.5977,347.4609,196.5977,343.4609,192.5977" style="stroke:#181818;stroke-width:1.0;"/><text fill="#000000" font-family="sans-serif" font-size="13" lengthAdjust="spacing" textLength="133.231" x="343.4609" y="174.8555">Validates the request</text><polygon fill="#181818" points="41.1382,217.9082,31.1382,221.9082,41.1382,225.9082,37.1382,221.9082" style="stroke:#181818;stroke-width:1.0;"/><line style="stroke:#181818;stroke-width:1.0;" x1="35.1382" x2="330.4609" y1="221.9082" y2="221.9082"/><text fill="#000000" font-family="sans-serif" font-size="13" lengthAdjust="spacing" textLength="216.9756" x="47.1382" y="217.166">Displays the list of patient profiles</text><polygon fill="#181818" points="314.4609,247.2188,324.4609,251.2188,314.4609,255.2188,318.4609,251.2188" style="stroke:#181818;stroke-width:1.0;"/><line style="stroke:#181818;stroke-width:1.0;" x1="30.1382" x2="320.4609" y1="251.2188" y2="251.2188"/><text fill="#000000" font-family="sans-serif" font-size="13" lengthAdjust="spacing" textLength="148.0908" x="37.1382" y="246.4766">Selects a patient profile</text><polygon fill="#181818" points="41.1382,276.5293,31.1382,280.5293,41.1382,284.5293,37.1382,280.5293" style="stroke:#181818;stroke-width:1.0;"/><line style="stroke:#181818;stroke-width:1.0;" x1="35.1382" x2="330.4609" y1="280.5293" y2="280.5293"/><text fill="#000000" font-family="sans-serif" font-size="13" lengthAdjust="spacing" textLength="248.3647" x="47.1382" y="275.7871">Displays the patient profile information</text><polygon fill="#181818" points="314.4609,305.8398,324.4609,309.8398,314.4609,313.8398,318.4609,309.8398" style="stroke:#181818;stroke-width:1.0;"/><line style="stroke:#181818;stroke-width:1.0;" x1="30.1382" x2="320.4609" y1="309.8398" y2="309.8398"/><text fill="#000000" font-family="sans-serif" font-size="13" lengthAdjust="spacing" textLength="245.2607" x="37.1382" y="305.0977">Remove the patient profile information</text><polygon fill="#181818" points="41.1382,335.1504,31.1382,339.1504,41.1382,343.1504,37.1382,339.1504" style="stroke:#181818;stroke-width:1.0;"/><line style="stroke:#181818;stroke-width:1.0;" x1="35.1382" x2="330.4609" y1="339.1504" y2="339.1504"/><text fill="#000000" font-family="sans-serif" font-size="13" lengthAdjust="spacing" textLength="168.5239" x="47.1382" y="334.4082">Show confirmation prompt</text><polygon fill="#181818" points="314.4609,364.4609,324.4609,368.4609,314.4609,372.4609,318.4609,368.4609" style="stroke:#181818;stroke-width:1.0;"/><line style="stroke:#181818;stroke-width:1.0;" x1="30.1382" x2="320.4609" y1="368.4609" y2="368.4609"/><text fill="#000000" font-family="sans-serif" font-size="13" lengthAdjust="spacing" textLength="105.5044" x="37.1382" y="363.7188">Confirm removal</text><line style="stroke:#181818;stroke-width:1.0;" x1="336.4609" x2="378.4609" y1="397.7715" y2="397.7715"/><line style="stroke:#181818;stroke-width:1.0;" x1="378.4609" x2="378.4609" y1="397.7715" y2="410.7715"/><line style="stroke:#181818;stroke-width:1.0;" x1="337.4609" x2="378.4609" y1="410.7715" y2="410.7715"/><polygon fill="#181818" points="347.4609,406.7715,337.4609,410.7715,347.4609,414.7715,343.4609,410.7715" style="stroke:#181818;stroke-width:1.0;"/><text fill="#000000" font-family="sans-serif" font-size="13" lengthAdjust="spacing" textLength="142.9619" x="343.4609" y="393.0293">Remove patient profile</text><line style="stroke:#181818;stroke-width:1.0;" x1="336.4609" x2="378.4609" y1="440.082" y2="440.082"/><line style="stroke:#181818;stroke-width:1.0;" x1="378.4609" x2="378.4609" y1="440.082" y2="453.082"/><line style="stroke:#181818;stroke-width:1.0;" x1="337.4609" x2="378.4609" y1="453.082" y2="453.082"/><polygon fill="#181818" points="347.4609,449.082,337.4609,453.082,347.4609,457.082,343.4609,453.082" style="stroke:#181818;stroke-width:1.0;"/><text fill="#000000" font-family="sans-serif" font-size="13" lengthAdjust="spacing" textLength="187.77" x="343.4609" y="435.3398">Log removal of patient profile</text><polygon fill="#181818" points="41.1382,478.3926,31.1382,482.3926,41.1382,486.3926,37.1382,482.3926" style="stroke:#181818;stroke-width:1.0;"/><line style="stroke:#181818;stroke-width:1.0;" x1="35.1382" x2="330.4609" y1="482.3926" y2="482.3926"/><text fill="#000000" font-family="sans-serif" font-size="13" lengthAdjust="spacing" textLength="161.7954" x="47.1382" y="477.6504">display operation success</text><!--SRC=[ZP6nRiCm34HtVSNzG89cw9AXGD6EdMAako3JZW19T2KcRVw-SkG0WMoqtWZYxlX8YXL7QAv9oAEXhpC5GtYtke_QOuDZW-VjRhjxKaeRuOZNrjimrSMcrAs7pSlKsECm1YM1C5fo90GTG3ysYGqz1YsMWc28t5b7OvYzQBbZg8dc8UzJEzjcHOAS2B6aF-Xk0FkCdGQdhqNbyZHmLqzBK2tL4sSBD9dQI8AkxVY3TecYjjlGSVIvoM4Dnu4yN-ZVf3e7CwZcnDym73exUSOSFyWQYBTYotVFCDgj-DU4NJzwBlpW_Xwxy2lCZzkMuu87YcMFT3Q6KbfOv1S0]--></g></svg>