<svg xmlns="http://www.w3.org/2000/svg" xmlns:xlink="http://www.w3.org/1999/xlink" contentStyleType="text/css" height="300px" preserveAspectRatio="none" style="width:502px;height:300px;background:#FFFFFF;" version="1.1" viewBox="0 0 502 300" width="502px" zoomAndPan="magnify"><defs/><g><rect fill="#FFFFFF" height="146.5527" style="stroke:#181818;stroke-width:1.0;" width="10" x="199.96" y="84.2871"/><rect fill="#FFFFFF" height="29.3105" style="stroke:#181818;stroke-width:1.0;" width="10" x="381.7998" y="172.2188"/><rect fill="#FFFFFF" height="29.3105" style="stroke:#181818;stroke-width:1.0;" width="10" x="464.1924" y="113.5977"/><line style="stroke:#181818;stroke-width:0.5;stroke-dasharray:5.0,5.0;" x1="204.7778" x2="204.7778" y1="52.9766" y2="248.8398"/><line style="stroke:#181818;stroke-width:0.5;stroke-dasharray:5.0,5.0;" x1="385.9697" x2="385.9697" y1="52.9766" y2="248.8398"/><line style="stroke:#181818;stroke-width:0.5;stroke-dasharray:5.0,5.0;" x1="468.6299" x2="468.6299" y1="52.9766" y2="248.8398"/><rect fill="#E2E2F0" height="46.9766" rx="2.5" ry="2.5" style="stroke:#181818;stroke-width:0.5;" width="76.3643" x="166.7778" y="5"/><text fill="#000000" font-family="sans-serif" font-size="14" font-style="italic" lengthAdjust="spacing" textLength="62.3643" x="173.7778" y="25.5352">&#171;system&#187;</text><text fill="#000000" font-family="sans-serif" font-size="14" lengthAdjust="spacing" textLength="48.0977" x="180.9111" y="42.0234">System</text><rect fill="#E2E2F0" height="46.9766" rx="2.5" ry="2.5" style="stroke:#181818;stroke-width:0.5;" width="76.3643" x="166.7778" y="247.8398"/><text fill="#000000" font-family="sans-serif" font-size="14" font-style="italic" lengthAdjust="spacing" textLength="62.3643" x="173.7778" y="268.375">&#171;system&#187;</text><text fill="#000000" font-family="sans-serif" font-size="14" lengthAdjust="spacing" textLength="48.0977" x="180.9111" y="284.8633">System</text><rect fill="#E2E2F0" height="46.9766" rx="2.5" ry="2.5" style="stroke:#181818;stroke-width:0.5;" width="89.6602" x="341.9697" y="5"/><text fill="#000000" font-family="sans-serif" font-size="14" font-style="italic" lengthAdjust="spacing" textLength="75.6602" x="348.9697" y="25.5352">&#171;database&#187;</text><text fill="#000000" font-family="sans-serif" font-size="14" lengthAdjust="spacing" textLength="18.5391" x="377.5303" y="42.0234">DB</text><rect fill="#E2E2F0" height="46.9766" rx="2.5" ry="2.5" style="stroke:#181818;stroke-width:0.5;" width="89.6602" x="341.9697" y="247.8398"/><text fill="#000000" font-family="sans-serif" font-size="14" font-style="italic" lengthAdjust="spacing" textLength="75.6602" x="348.9697" y="268.375">&#171;database&#187;</text><text fill="#000000" font-family="sans-serif" font-size="14" lengthAdjust="spacing" textLength="18.5391" x="377.5303" y="284.8633">DB</text><rect fill="#E2E2F0" height="46.9766" rx="2.5" ry="2.5" style="stroke:#181818;stroke-width:0.5;" width="55.125" x="441.6299" y="5"/><text fill="#000000" font-family="sans-serif" font-size="14" font-style="italic" lengthAdjust="spacing" textLength="40.4209" x="448.9819" y="25.5352">&#171;IAM&#187;</text><text fill="#000000" font-family="sans-serif" font-size="14" lengthAdjust="spacing" textLength="41.125" x="448.6299" y="42.0234">Auth0</text><rect fill="#E2E2F0" height="46.9766" rx="2.5" ry="2.5" style="stroke:#181818;stroke-width:0.5;" width="55.125" x="441.6299" y="247.8398"/><text fill="#000000" font-family="sans-serif" font-size="14" font-style="italic" lengthAdjust="spacing" textLength="40.4209" x="448.9819" y="268.375">&#171;IAM&#187;</text><text fill="#000000" font-family="sans-serif" font-size="14" lengthAdjust="spacing" textLength="41.125" x="448.6299" y="284.8633">Auth0</text><rect fill="#FFFFFF" height="146.5527" style="stroke:#181818;stroke-width:1.0;" width="10" x="199.96" y="84.2871"/><rect fill="#FFFFFF" height="29.3105" style="stroke:#181818;stroke-width:1.0;" width="10" x="381.7998" y="172.2188"/><rect fill="#FFFFFF" height="29.3105" style="stroke:#181818;stroke-width:1.0;" width="10" x="464.1924" y="113.5977"/><ellipse cx="44.7295" cy="83.5371" fill="#000000" rx="4" ry="4" style="stroke:#181818;stroke-width:1.5;"/><polygon fill="#181818" points="187.96,80.2871,197.96,84.2871,187.96,88.2871,191.96,84.2871" style="stroke:#181818;stroke-width:1.0;"/><line style="stroke:#181818;stroke-width:1.0;" x1="49.2295" x2="193.96" y1="84.2871" y2="84.2871"/><text fill="#000000" font-family="sans-serif" font-size="13" font-weight="bold" lengthAdjust="spacing" textLength="8.5757" x="52.2295" y="79.5449">1</text><text fill="#000000" font-family="sans-serif" font-size="13" lengthAdjust="spacing" textLength="120.1548" x="64.8052" y="79.5449">POST /api/patients</text><polygon fill="#181818" points="452.1924,109.5977,462.1924,113.5977,452.1924,117.5977,456.1924,113.5977" style="stroke:#181818;stroke-width:1.0;"/><line style="stroke:#181818;stroke-width:1.0;" x1="209.96" x2="458.1924" y1="113.5977" y2="113.5977"/><text fill="#000000" font-family="sans-serif" font-size="13" font-weight="bold" lengthAdjust="spacing" textLength="8.5757" x="216.96" y="108.8555">2</text><text fill="#000000" font-family="sans-serif" font-size="13" lengthAdjust="spacing" textLength="120.1548" x="229.5356" y="108.8555">POST /api/patients</text><polygon fill="#181818" points="220.96,138.9082,210.96,142.9082,220.96,146.9082,216.96,142.9082" style="stroke:#181818;stroke-width:1.0;"/><line style="stroke:#181818;stroke-width:1.0;stroke-dasharray:2.0,2.0;" x1="214.96" x2="468.1924" y1="142.9082" y2="142.9082"/><text fill="#000000" font-family="sans-serif" font-size="13" font-weight="bold" lengthAdjust="spacing" textLength="8.5757" x="226.96" y="138.166">3</text><text fill="#000000" font-family="sans-serif" font-size="13" lengthAdjust="spacing" textLength="77.7969" x="239.5356" y="138.166">201 Created</text><polygon fill="#181818" points="369.7998,168.2188,379.7998,172.2188,369.7998,176.2188,373.7998,172.2188" style="stroke:#181818;stroke-width:1.0;"/><line style="stroke:#181818;stroke-width:1.0;" x1="209.96" x2="375.7998" y1="172.2188" y2="172.2188"/><text fill="#000000" font-family="sans-serif" font-size="13" font-weight="bold" lengthAdjust="spacing" textLength="8.5757" x="216.96" y="167.4766">4</text><text fill="#000000" font-family="sans-serif" font-size="13" lengthAdjust="spacing" textLength="140.2642" x="229.5356" y="167.4766">link user with patients</text><polygon fill="#181818" points="220.96,197.5293,210.96,201.5293,220.96,205.5293,216.96,201.5293" style="stroke:#181818;stroke-width:1.0;"/><line style="stroke:#181818;stroke-width:1.0;stroke-dasharray:2.0,2.0;" x1="214.96" x2="385.7998" y1="201.5293" y2="201.5293"/><text fill="#000000" font-family="sans-serif" font-size="13" font-weight="bold" lengthAdjust="spacing" textLength="8.5757" x="226.96" y="196.7871">5</text><text fill="#000000" font-family="sans-serif" font-size="13" lengthAdjust="spacing" textLength="48.5088" x="239.5356" y="196.7871">success</text><polygon fill="#181818" points="11,226.8398,1,230.8398,11,234.8398,7,230.8398" style="stroke:#181818;stroke-width:1.0;"/><line style="stroke:#181818;stroke-width:1.0;stroke-dasharray:2.0,2.0;" x1="5" x2="203.96" y1="230.8398" y2="230.8398"/><text fill="#000000" font-family="sans-serif" font-size="13" font-weight="bold" lengthAdjust="spacing" textLength="8.5757" x="17" y="226.0977">6</text><text fill="#000000" font-family="sans-serif" font-size="13" lengthAdjust="spacing" textLength="168.3843" x="29.5757" y="226.0977">201 Created (Patient JSON)</text><!--SRC=[VSyzQyD0383XNRz2P4g78n-ZCIvnlIIGEd1TEYgs84SQsrYwXlpxtfsXf6dffk7HAqHU-yvVZZm233IgQzn0dQ9zjqY2CtiJvSiCyrpIL1G_M5KcLPLHjAHq9E47i_5wMYQMfYYtctr00C-zATAf30-rVSC53Muna3hkL80QTP-a70L45V0K-vyd0vCqtmVMonM-Z1n0Yz3oWmx65E6R33zSTqOlFEBLwGb_vwiIgZ9qmqeclcbOvBuN8f0RyyVL-M5guSxMhq_tE_71Bm00]--></g></svg>