<?xml version="1.0" encoding="us-ascii" standalone="no"?><svg xmlns="http://www.w3.org/2000/svg" xmlns:xlink="http://www.w3.org/1999/xlink" contentStyleType="text/css" height="1013px" preserveAspectRatio="none" style="width:1504px;height:1013px;background:#FFFFFF;" version="1.1" viewBox="0 0 1504 1013" width="1504px" zoomAndPan="magnify"><defs/><g><text fill="#000000" font-family="sans-serif" font-size="14" font-weight="bold" lengthAdjust="spacing" textLength="363" x="569.5" y="28.5352">Sequence Diagram - US 5.1.9 - Edit Patient Profile</text><rect fill="#FFFFFF" height="794.3848" style="stroke:#181818;stroke-width:1.0;" width="10" x="25.5" y="128.9766"/><rect fill="#FFFFFF" height="205.1738" style="stroke:#181818;stroke-width:1.0;" width="10" x="456.5" y="150.2871"/><rect fill="#FFFFFF" height="205.1738" style="stroke:#181818;stroke-width:1.0;" width="10" x="456.5" y="384.7715"/><rect fill="#FFFFFF" height="295.1055" style="stroke:#181818;stroke-width:1.0;" width="10" x="456.5" y="619.2559"/><rect fill="#FFFFFF" height="146.5527" style="stroke:#181818;stroke-width:1.0;" width="10" x="668.5" y="179.5977"/><rect fill="#FFFFFF" height="146.5527" style="stroke:#181818;stroke-width:1.0;" width="10" x="668.5" y="414.082"/><rect fill="#FFFFFF" height="236.4844" style="stroke:#181818;stroke-width:1.0;" width="10" x="668.5" y="648.5664"/><rect fill="#FFFFFF" height="87.9316" style="stroke:#181818;stroke-width:1.0;" width="10" x="933.5" y="208.9082"/><rect fill="#FFFFFF" height="87.9316" style="stroke:#181818;stroke-width:1.0;" width="10" x="933.5" y="443.3926"/><rect fill="#FFFFFF" height="177.8633" style="stroke:#181818;stroke-width:1.0;" width="10" x="933.5" y="677.877"/><rect fill="#FFFFFF" height="29.3105" style="stroke:#181818;stroke-width:1.0;" width="10" x="1129.5" y="238.2188"/><rect fill="#FFFFFF" height="29.3105" style="stroke:#181818;stroke-width:1.0;" width="10" x="1129.5" y="472.7031"/><rect fill="#FFFFFF" height="29.3105" style="stroke:#181818;stroke-width:1.0;" width="10" x="1129.5" y="767.8086"/><rect fill="none" height="46.6211" style="stroke:#000000;stroke-width:1.5;" width="523.5" x="875.5" y="692.877"/><line style="stroke:#181818;stroke-width:0.5;stroke-dasharray:5.0,5.0;" x1="30" x2="30" y1="118.9766" y2="932.3613"/><line style="stroke:#181818;stroke-width:0.5;stroke-dasharray:5.0,5.0;" x1="461" x2="461" y1="118.9766" y2="932.3613"/><line style="stroke:#181818;stroke-width:0.5;stroke-dasharray:5.0,5.0;" x1="673.5" x2="673.5" y1="118.9766" y2="932.3613"/><line style="stroke:#181818;stroke-width:0.5;stroke-dasharray:5.0,5.0;" x1="938.5" x2="938.5" y1="118.9766" y2="932.3613"/><line style="stroke:#181818;stroke-width:0.5;stroke-dasharray:5.0,5.0;" x1="1134" x2="1134" y1="118.9766" y2="932.3613"/><line style="stroke:#181818;stroke-width:0.5;stroke-dasharray:5.0,5.0;" x1="1318" x2="1318" y1="118.9766" y2="932.3613"/><line style="stroke:#181818;stroke-width:0.5;stroke-dasharray:5.0,5.0;" x1="1448" x2="1448" y1="118.9766" y2="932.3613"/><text fill="#000000" font-family="sans-serif" font-size="14" lengthAdjust="spacing" textLength="45" x="5" y="116.0234">Admin</text><ellipse cx="30.5" cy="50.9883" fill="#E2E2F0" rx="8" ry="8" style="stroke:#181818;stroke-width:0.5;"/><path d="M30.5,58.9883 L30.5,85.9883 M17.5,66.9883 L43.5,66.9883 M30.5,85.9883 L17.5,100.9883 M30.5,85.9883 L43.5,100.9883 " fill="none" style="stroke:#181818;stroke-width:0.5;"/><text fill="#000000" font-family="sans-serif" font-size="14" lengthAdjust="spacing" textLength="45" x="5" y="944.8965">Admin</text><ellipse cx="30.5" cy="956.3496" fill="#E2E2F0" rx="8" ry="8" style="stroke:#181818;stroke-width:0.5;"/><path d="M30.5,964.3496 L30.5,991.3496 M17.5,972.3496 L43.5,972.3496 M30.5,991.3496 L17.5,1006.3496 M30.5,991.3496 L43.5,1006.3496 " fill="none" style="stroke:#181818;stroke-width:0.5;"/><rect fill="#E2E2F0" height="46.9766" rx="2.5" ry="2.5" style="stroke:#181818;stroke-width:0.5;" width="115" x="404" y="71"/><text fill="#000000" font-family="sans-serif" font-size="14" font-style="italic" lengthAdjust="spacing" textLength="101" x="411" y="91.5352">&#171;presentation&#187;</text><text fill="#000000" font-family="sans-serif" font-size="14" lengthAdjust="spacing" textLength="84" x="419.5" y="108.0234">EditProfileUI</text><rect fill="#E2E2F0" height="46.9766" rx="2.5" ry="2.5" style="stroke:#181818;stroke-width:0.5;" width="115" x="404" y="931.3613"/><text fill="#000000" font-family="sans-serif" font-size="14" font-style="italic" lengthAdjust="spacing" textLength="101" x="411" y="951.8965">&#171;presentation&#187;</text><text fill="#000000" font-family="sans-serif" font-size="14" lengthAdjust="spacing" textLength="84" x="419.5" y="968.3848">EditProfileUI</text><rect fill="#E2E2F0" height="46.9766" rx="2.5" ry="2.5" style="stroke:#181818;stroke-width:0.5;" width="128" x="609.5" y="71"/><text fill="#000000" font-family="sans-serif" font-size="14" font-style="italic" lengthAdjust="spacing" textLength="90" x="628.5" y="91.5352">&#171;application&#187;</text><text fill="#000000" font-family="sans-serif" font-size="14" lengthAdjust="spacing" textLength="114" x="616.5" y="108.0234">ProfileController</text><rect fill="#E2E2F0" height="46.9766" rx="2.5" ry="2.5" style="stroke:#181818;stroke-width:0.5;" width="128" x="609.5" y="931.3613"/><text fill="#000000" font-family="sans-serif" font-size="14" font-style="italic" lengthAdjust="spacing" textLength="90" x="628.5" y="951.8965">&#171;application&#187;</text><text fill="#000000" font-family="sans-serif" font-size="14" lengthAdjust="spacing" textLength="114" x="616.5" y="968.3848">ProfileController</text><rect fill="#E2E2F0" height="46.9766" rx="2.5" ry="2.5" style="stroke:#181818;stroke-width:0.5;" width="106" x="885.5" y="71"/><text fill="#000000" font-family="sans-serif" font-size="14" font-style="italic" lengthAdjust="spacing" textLength="66" x="905.5" y="91.5352">&#171;domain&#187;</text><text fill="#000000" font-family="sans-serif" font-size="14" lengthAdjust="spacing" textLength="92" x="892.5" y="108.0234">ProfileService</text><rect fill="#E2E2F0" height="46.9766" rx="2.5" ry="2.5" style="stroke:#181818;stroke-width:0.5;" width="106" x="885.5" y="931.3613"/><text fill="#000000" font-family="sans-serif" font-size="14" font-style="italic" lengthAdjust="spacing" textLength="66" x="905.5" y="951.8965">&#171;domain&#187;</text><text fill="#000000" font-family="sans-serif" font-size="14" lengthAdjust="spacing" textLength="92" x="892.5" y="968.3848">ProfileService</text><rect fill="#E2E2F0" height="46.9766" rx="2.5" ry="2.5" style="stroke:#181818;stroke-width:0.5;" width="131" x="1069" y="71"/><text fill="#000000" font-family="sans-serif" font-size="14" font-style="italic" lengthAdjust="spacing" textLength="84" x="1092.5" y="91.5352">&#171;repository&#187;</text><text fill="#000000" font-family="sans-serif" font-size="14" lengthAdjust="spacing" textLength="117" x="1076" y="108.0234">ProfileRepository</text><rect fill="#E2E2F0" height="46.9766" rx="2.5" ry="2.5" style="stroke:#181818;stroke-width:0.5;" width="131" x="1069" y="931.3613"/><text fill="#000000" font-family="sans-serif" font-size="14" font-style="italic" lengthAdjust="spacing" textLength="84" x="1092.5" y="951.8965">&#171;repository&#187;</text><text fill="#000000" font-family="sans-serif" font-size="14" lengthAdjust="spacing" textLength="117" x="1076" y="968.3848">ProfileRepository</text><rect fill="#E2E2F0" height="46.9766" rx="2.5" ry="2.5" style="stroke:#181818;stroke-width:0.5;" width="141" x="1248" y="71"/><text fill="#000000" font-family="sans-serif" font-size="14" font-style="italic" lengthAdjust="spacing" textLength="61" x="1288" y="91.5352">&#171;service&#187;</text><text fill="#000000" font-family="sans-serif" font-size="14" lengthAdjust="spacing" textLength="127" x="1255" y="108.0234">NotificationService</text><rect fill="#E2E2F0" height="46.9766" rx="2.5" ry="2.5" style="stroke:#181818;stroke-width:0.5;" width="141" x="1248" y="931.3613"/><text fill="#000000" font-family="sans-serif" font-size="14" font-style="italic" lengthAdjust="spacing" textLength="61" x="1288" y="951.8965">&#171;service&#187;</text><text fill="#000000" font-family="sans-serif" font-size="14" lengthAdjust="spacing" textLength="127" x="1255" y="968.3848">NotificationService</text><rect fill="#E2E2F0" height="46.9766" rx="2.5" ry="2.5" style="stroke:#181818;stroke-width:0.5;" width="99" x="1399" y="71"/><text fill="#000000" font-family="sans-serif" font-size="14" font-style="italic" lengthAdjust="spacing" textLength="61" x="1418" y="91.5352">&#171;service&#187;</text><text fill="#000000" font-family="sans-serif" font-size="14" lengthAdjust="spacing" textLength="85" x="1406" y="108.0234">AuditService</text><rect fill="#E2E2F0" height="46.9766" rx="2.5" ry="2.5" style="stroke:#181818;stroke-width:0.5;" width="99" x="1399" y="931.3613"/><text fill="#000000" font-family="sans-serif" font-size="14" font-style="italic" lengthAdjust="spacing" textLength="61" x="1418" y="951.8965">&#171;service&#187;</text><text fill="#000000" font-family="sans-serif" font-size="14" lengthAdjust="spacing" textLength="85" x="1406" y="968.3848">AuditService</text><rect fill="#FFFFFF" height="794.3848" style="stroke:#181818;stroke-width:1.0;" width="10" x="25.5" y="128.9766"/><rect fill="#FFFFFF" height="205.1738" style="stroke:#181818;stroke-width:1.0;" width="10" x="456.5" y="150.2871"/><rect fill="#FFFFFF" height="205.1738" style="stroke:#181818;stroke-width:1.0;" width="10" x="456.5" y="384.7715"/><rect fill="#FFFFFF" height="295.1055" style="stroke:#181818;stroke-width:1.0;" width="10" x="456.5" y="619.2559"/><rect fill="#FFFFFF" height="146.5527" style="stroke:#181818;stroke-width:1.0;" width="10" x="668.5" y="179.5977"/><rect fill="#FFFFFF" height="146.5527" style="stroke:#181818;stroke-width:1.0;" width="10" x="668.5" y="414.082"/><rect fill="#FFFFFF" height="236.4844" style="stroke:#181818;stroke-width:1.0;" width="10" x="668.5" y="648.5664"/><rect fill="#FFFFFF" height="87.9316" style="stroke:#181818;stroke-width:1.0;" width="10" x="933.5" y="208.9082"/><rect fill="#FFFFFF" height="87.9316" style="stroke:#181818;stroke-width:1.0;" width="10" x="933.5" y="443.3926"/><rect fill="#FFFFFF" height="177.8633" style="stroke:#181818;stroke-width:1.0;" width="10" x="933.5" y="677.877"/><rect fill="#FFFFFF" height="29.3105" style="stroke:#181818;stroke-width:1.0;" width="10" x="1129.5" y="238.2188"/><rect fill="#FFFFFF" height="29.3105" style="stroke:#181818;stroke-width:1.0;" width="10" x="1129.5" y="472.7031"/><rect fill="#FFFFFF" height="29.3105" style="stroke:#181818;stroke-width:1.0;" width="10" x="1129.5" y="767.8086"/><polygon fill="#181818" points="444.5,146.2871,454.5,150.2871,444.5,154.2871,448.5,150.2871" style="stroke:#181818;stroke-width:1.0;"/><line style="stroke:#181818;stroke-width:1.0;" x1="35.5" x2="450.5" y1="150.2871" y2="150.2871"/><text fill="#000000" font-family="sans-serif" font-size="13" lengthAdjust="spacing" textLength="156" x="42.5" y="145.5449">Search for patient profile</text><polygon fill="#181818" points="656.5,175.5977,666.5,179.5977,656.5,183.5977,660.5,179.5977" style="stroke:#181818;stroke-width:1.0;"/><line style="stroke:#181818;stroke-width:1.0;" x1="466.5" x2="662.5" y1="179.5977" y2="179.5977"/><text fill="#000000" font-family="sans-serif" font-size="13" lengthAdjust="spacing" textLength="183" x="473.5" y="174.8555">searchProfiles(searchCriteria)</text><polygon fill="#181818" points="921.5,204.9082,931.5,208.9082,921.5,212.9082,925.5,208.9082" style="stroke:#181818;stroke-width:1.0;"/><line style="stroke:#181818;stroke-width:1.0;" x1="678.5" x2="927.5" y1="208.9082" y2="208.9082"/><text fill="#000000" font-family="sans-serif" font-size="13" lengthAdjust="spacing" textLength="222" x="685.5" y="204.166">getProfilesByCriteria(searchCriteria)</text><polygon fill="#181818" points="1117.5,234.2188,1127.5,238.2188,1117.5,242.2188,1121.5,238.2188" style="stroke:#181818;stroke-width:1.0;"/><line style="stroke:#181818;stroke-width:1.0;" x1="943.5" x2="1123.5" y1="238.2188" y2="238.2188"/><text fill="#000000" font-family="sans-serif" font-size="13" lengthAdjust="spacing" textLength="167" x="950.5" y="233.4766">findProfiles(searchCriteria)</text><polygon fill="#181818" points="954.5,263.5293,944.5,267.5293,954.5,271.5293,950.5,267.5293" style="stroke:#181818;stroke-width:1.0;"/><line style="stroke:#181818;stroke-width:1.0;stroke-dasharray:2.0,2.0;" x1="948.5" x2="1133.5" y1="267.5293" y2="267.5293"/><text fill="#000000" font-family="sans-serif" font-size="13" lengthAdjust="spacing" textLength="64" x="960.5" y="262.7871">profileList</text><polygon fill="#181818" points="689.5,292.8398,679.5,296.8398,689.5,300.8398,685.5,296.8398" style="stroke:#181818;stroke-width:1.0;"/><line style="stroke:#181818;stroke-width:1.0;stroke-dasharray:2.0,2.0;" x1="683.5" x2="937.5" y1="296.8398" y2="296.8398"/><text fill="#000000" font-family="sans-serif" font-size="13" lengthAdjust="spacing" textLength="64" x="695.5" y="292.0977">profileList</text><polygon fill="#181818" points="477.5,322.1504,467.5,326.1504,477.5,330.1504,473.5,326.1504" style="stroke:#181818;stroke-width:1.0;"/><line style="stroke:#181818;stroke-width:1.0;stroke-dasharray:2.0,2.0;" x1="471.5" x2="672.5" y1="326.1504" y2="326.1504"/><text fill="#000000" font-family="sans-serif" font-size="13" lengthAdjust="spacing" textLength="64" x="483.5" y="321.4082">profileList</text><polygon fill="#181818" points="46.5,351.4609,36.5,355.4609,46.5,359.4609,42.5,355.4609" style="stroke:#181818;stroke-width:1.0;"/><line style="stroke:#181818;stroke-width:1.0;stroke-dasharray:2.0,2.0;" x1="40.5" x2="460.5" y1="355.4609" y2="355.4609"/><text fill="#000000" font-family="sans-serif" font-size="13" lengthAdjust="spacing" textLength="140" x="52.5" y="350.7188">Display list of profiles</text><polygon fill="#181818" points="444.5,380.7715,454.5,384.7715,444.5,388.7715,448.5,384.7715" style="stroke:#181818;stroke-width:1.0;"/><line style="stroke:#181818;stroke-width:1.0;" x1="35.5" x2="450.5" y1="384.7715" y2="384.7715"/><text fill="#000000" font-family="sans-serif" font-size="13" lengthAdjust="spacing" textLength="127" x="42.5" y="380.0293">Select profile to edit</text><polygon fill="#181818" points="656.5,410.082,666.5,414.082,656.5,418.082,660.5,414.082" style="stroke:#181818;stroke-width:1.0;"/><line style="stroke:#181818;stroke-width:1.0;" x1="466.5" x2="662.5" y1="414.082" y2="414.082"/><text fill="#000000" font-family="sans-serif" font-size="13" lengthAdjust="spacing" textLength="178" x="473.5" y="409.3398">selectProfileToEdit(profileId)</text><polygon fill="#181818" points="921.5,439.3926,931.5,443.3926,921.5,447.3926,925.5,443.3926" style="stroke:#181818;stroke-width:1.0;"/><line style="stroke:#181818;stroke-width:1.0;" x1="678.5" x2="927.5" y1="443.3926" y2="443.3926"/><text fill="#000000" font-family="sans-serif" font-size="13" lengthAdjust="spacing" textLength="121" x="685.5" y="438.6504">getProfile(profileId)</text><polygon fill="#181818" points="1117.5,468.7031,1127.5,472.7031,1117.5,476.7031,1121.5,472.7031" style="stroke:#181818;stroke-width:1.0;"/><line style="stroke:#181818;stroke-width:1.0;" x1="943.5" x2="1123.5" y1="472.7031" y2="472.7031"/><text fill="#000000" font-family="sans-serif" font-size="13" lengthAdjust="spacing" textLength="112" x="950.5" y="467.9609">findById(profileId)</text><polygon fill="#181818" points="954.5,498.0137,944.5,502.0137,954.5,506.0137,950.5,502.0137" style="stroke:#181818;stroke-width:1.0;"/><line style="stroke:#181818;stroke-width:1.0;stroke-dasharray:2.0,2.0;" x1="948.5" x2="1133.5" y1="502.0137" y2="502.0137"/><text fill="#000000" font-family="sans-serif" font-size="13" lengthAdjust="spacing" textLength="70" x="960.5" y="497.2715">profileData</text><polygon fill="#181818" points="689.5,527.3242,679.5,531.3242,689.5,535.3242,685.5,531.3242" style="stroke:#181818;stroke-width:1.0;"/><line style="stroke:#181818;stroke-width:1.0;stroke-dasharray:2.0,2.0;" x1="683.5" x2="937.5" y1="531.3242" y2="531.3242"/><text fill="#000000" font-family="sans-serif" font-size="13" lengthAdjust="spacing" textLength="70" x="695.5" y="526.582">profileData</text><polygon fill="#181818" points="477.5,556.6348,467.5,560.6348,477.5,564.6348,473.5,560.6348" style="stroke:#181818;stroke-width:1.0;"/><line style="stroke:#181818;stroke-width:1.0;stroke-dasharray:2.0,2.0;" x1="471.5" x2="672.5" y1="560.6348" y2="560.6348"/><text fill="#000000" font-family="sans-serif" font-size="13" lengthAdjust="spacing" textLength="70" x="483.5" y="555.8926">profileData</text><polygon fill="#181818" points="46.5,585.9453,36.5,589.9453,46.5,593.9453,42.5,589.9453" style="stroke:#181818;stroke-width:1.0;"/><line style="stroke:#181818;stroke-width:1.0;stroke-dasharray:2.0,2.0;" x1="40.5" x2="460.5" y1="589.9453" y2="589.9453"/><text fill="#000000" font-family="sans-serif" font-size="13" lengthAdjust="spacing" textLength="397" x="52.5" y="585.2031">Displays profile data (name, contact, medical history, allergies)</text><polygon fill="#181818" points="444.5,615.2559,454.5,619.2559,444.5,623.2559,448.5,619.2559" style="stroke:#181818;stroke-width:1.0;"/><line style="stroke:#181818;stroke-width:1.0;" x1="35.5" x2="450.5" y1="619.2559" y2="619.2559"/><text fill="#000000" font-family="sans-serif" font-size="13" lengthAdjust="spacing" textLength="154" x="42.5" y="614.5137">Edits profile information</text><polygon fill="#181818" points="656.5,644.5664,666.5,648.5664,656.5,652.5664,660.5,648.5664" style="stroke:#181818;stroke-width:1.0;"/><line style="stroke:#181818;stroke-width:1.0;" x1="466.5" x2="662.5" y1="648.5664" y2="648.5664"/><text fill="#000000" font-family="sans-serif" font-size="13" lengthAdjust="spacing" textLength="161" x="473.5" y="643.8242">updateProfile(profileData)</text><polygon fill="#181818" points="921.5,673.877,931.5,677.877,921.5,681.877,925.5,677.877" style="stroke:#181818;stroke-width:1.0;"/><line style="stroke:#181818;stroke-width:1.0;" x1="678.5" x2="927.5" y1="677.877" y2="677.877"/><text fill="#000000" font-family="sans-serif" font-size="13" lengthAdjust="spacing" textLength="236" x="685.5" y="673.1348">validateAndUpdateProfile(profileData)</text><path d="M875.5,692.877 L937.5,692.877 L937.5,700.1875 L927.5,710.1875 L875.5,710.1875 L875.5,692.877 " fill="#EEEEEE" style="stroke:#000000;stroke-width:1.5;"/><rect fill="none" height="46.6211" style="stroke:#000000;stroke-width:1.5;" width="523.5" x="875.5" y="692.877"/><text fill="#000000" font-family="sans-serif" font-size="13" font-weight="bold" lengthAdjust="spacing" textLength="17" x="890.5" y="706.4453">alt</text><text fill="#000000" font-family="sans-serif" font-size="11" font-weight="bold" lengthAdjust="spacing" textLength="135" x="952.5" y="705.5117">[Sensitive data changed]</text><polygon fill="#181818" points="1306.5,727.498,1316.5,731.498,1306.5,735.498,1310.5,731.498" style="stroke:#181818;stroke-width:1.0;"/><line style="stroke:#181818;stroke-width:1.0;" x1="943.5" x2="1312.5" y1="731.498" y2="731.498"/><text fill="#000000" font-family="sans-serif" font-size="13" lengthAdjust="spacing" textLength="351" x="950.5" y="726.7559">sendNotification(patientEmail, "Sensitive data updated")</text><polygon fill="#181818" points="1117.5,763.8086,1127.5,767.8086,1117.5,771.8086,1121.5,767.8086" style="stroke:#181818;stroke-width:1.0;"/><line style="stroke:#181818;stroke-width:1.0;" x1="943.5" x2="1123.5" y1="767.8086" y2="767.8086"/><text fill="#000000" font-family="sans-serif" font-size="13" lengthAdjust="spacing" textLength="106" x="950.5" y="763.0664">save(profileData)</text><polygon fill="#181818" points="954.5,793.1191,944.5,797.1191,954.5,801.1191,950.5,797.1191" style="stroke:#181818;stroke-width:1.0;"/><line style="stroke:#181818;stroke-width:1.0;stroke-dasharray:2.0,2.0;" x1="948.5" x2="1133.5" y1="797.1191" y2="797.1191"/><text fill="#000000" font-family="sans-serif" font-size="13" lengthAdjust="spacing" textLength="81" x="960.5" y="792.377">confirmation</text><polygon fill="#181818" points="1436.5,822.4297,1446.5,826.4297,1436.5,830.4297,1440.5,826.4297" style="stroke:#181818;stroke-width:1.0;"/><line style="stroke:#181818;stroke-width:1.0;" x1="943.5" x2="1442.5" y1="826.4297" y2="826.4297"/><text fill="#000000" font-family="sans-serif" font-size="13" lengthAdjust="spacing" textLength="273" x="950.5" y="821.6875">logProfileChanges(profileId, changedFields)</text><polygon fill="#181818" points="689.5,851.7402,679.5,855.7402,689.5,859.7402,685.5,855.7402" style="stroke:#181818;stroke-width:1.0;"/><line style="stroke:#181818;stroke-width:1.0;stroke-dasharray:2.0,2.0;" x1="683.5" x2="937.5" y1="855.7402" y2="855.7402"/><text fill="#000000" font-family="sans-serif" font-size="13" lengthAdjust="spacing" textLength="97" x="695.5" y="850.998">update success</text><polygon fill="#181818" points="477.5,881.0508,467.5,885.0508,477.5,889.0508,473.5,885.0508" style="stroke:#181818;stroke-width:1.0;"/><line style="stroke:#181818;stroke-width:1.0;stroke-dasharray:2.0,2.0;" x1="471.5" x2="672.5" y1="885.0508" y2="885.0508"/><text fill="#000000" font-family="sans-serif" font-size="13" lengthAdjust="spacing" textLength="97" x="483.5" y="880.3086">update success</text><polygon fill="#181818" points="46.5,910.3613,36.5,914.3613,46.5,918.3613,42.5,914.3613" style="stroke:#181818;stroke-width:1.0;"/><line style="stroke:#181818;stroke-width:1.0;stroke-dasharray:2.0,2.0;" x1="40.5" x2="460.5" y1="914.3613" y2="914.3613"/><text fill="#000000" font-family="sans-serif" font-size="13" lengthAdjust="spacing" textLength="114" x="52.5" y="909.6191">Confirms changes</text><!--SRC=[ZPNHYk8m58RlynG7hnISWRdOYos3u3Yp82pBiguF499K3wH9Dqa5ttvFqbJRObKlj2t_Tvhp_oSnOD0ATkfVeunGy8dyu7W5Bx3VmRVNjzVlTFabCS1l7b0P-dMsHAqOuo9O1xErhD3CW7lWyOhLt0KKM7FIpYAPWVqsYHg4z_VQAK-rgA8rgzKGoVADDS5PhPLBcB26E5xN6iKzRAVS2OLAZ6-lYPEsuZY5_56rzKYzd1Fbw9OGTtawndxPW6LUHVzr9ZudChzsZAqRygAlv_71G1yjnHCFAbkPlk5bHQOL515tuWWbULxdAEfU52tN82E3YI2_2Z8W8hbDFszlDmw3SiWNLuh4Z4M72SohAU2WkkJynxc3fcjaZh7ETQeLFIoWH2CVho5gMVB-fR-AtE9Fz859DLHVNzKrFA6-h2trcFsSq2OleeSaI_uNj2TyhVaPD4d1bXtf-nWPFuvBAt692885HN5F9nNLsQM_DcwRUKQtylcaRZBta_auR-LDx7uWdppmvmCPg-y5CjPE1-8lxafYO6vufPPH7mXUGaM62wxXIB7HDbu2ZwV90PLVZ98R11UzlrP6GnkkIdjzAhkcfjUhKGAnYqUvdRZ6YAwDt3zHus8Qru76oz3fXAVSkpXoSr2I0NrwCQSZAKwNaVrJQvuFa2yw5VKIPgDYRKDojaZbUbQbSeoAtPWbpqzJ2v-O9BAZnCxRwL5QjGTb0TeUkl-6rAs_ZksoC-07AYs7-IRwncYsNO9lX53UFvpEQNdCTZYVcxOpdrSrFYZ-0m00]--></g></svg>