<?xml version="1.0" encoding="us-ascii" standalone="no"?><svg xmlns="http://www.w3.org/2000/svg" xmlns:xlink="http://www.w3.org/1999/xlink" contentStyleType="text/css" height="480px" preserveAspectRatio="none" style="width:571px;height:480px;background:#FFFFFF;" version="1.1" viewBox="0 0 571 480" width="571px" zoomAndPan="magnify"><defs/><g><text fill="#000000" font-family="sans-serif" font-size="14" font-weight="bold" lengthAdjust="spacing" textLength="264" x="155.75" y="28.5352">System Sequence Diagram - US 5.1.9</text><rect fill="#FFFFFF" height="71.6211" style="stroke:#181818;stroke-width:1.0;" width="10" x="304.5" y="150.2871"/><rect fill="#FFFFFF" height="29.3105" style="stroke:#181818;stroke-width:1.0;" width="10" x="304.5" y="251.2188"/><rect fill="#FFFFFF" height="71.6211" style="stroke:#181818;stroke-width:1.0;" width="10" x="304.5" y="309.8398"/><line style="stroke:#181818;stroke-width:0.5;stroke-dasharray:5.0,5.0;" x1="30" x2="30" y1="118.9766" y2="399.4609"/><line style="stroke:#181818;stroke-width:0.5;stroke-dasharray:5.0,5.0;" x1="309.5" x2="309.5" y1="118.9766" y2="399.4609"/><text fill="#000000" font-family="sans-serif" font-size="14" lengthAdjust="spacing" textLength="45" x="5" y="116.0234">Admin</text><ellipse cx="30.5" cy="50.9883" fill="#E2E2F0" rx="8" ry="8" style="stroke:#181818;stroke-width:0.5;"/><path d="M30.5,58.9883 L30.5,85.9883 M17.5,66.9883 L43.5,66.9883 M30.5,85.9883 L17.5,100.9883 M30.5,85.9883 L43.5,100.9883 " fill="none" style="stroke:#181818;stroke-width:0.5;"/><text fill="#000000" font-family="sans-serif" font-size="14" lengthAdjust="spacing" textLength="45" x="5" y="411.9961">Admin</text><ellipse cx="30.5" cy="423.4492" fill="#E2E2F0" rx="8" ry="8" style="stroke:#181818;stroke-width:0.5;"/><path d="M30.5,431.4492 L30.5,458.4492 M17.5,439.4492 L43.5,439.4492 M30.5,458.4492 L17.5,473.4492 M30.5,458.4492 L43.5,473.4492 " fill="none" style="stroke:#181818;stroke-width:0.5;"/><text fill="#000000" font-family="sans-serif" font-size="14" lengthAdjust="spacing" textLength="48" x="282.5" y="116.0234">System</text><ellipse cx="309.5" cy="50.9883" fill="#E2E2F0" rx="8" ry="8" style="stroke:#181818;stroke-width:0.5;"/><path d="M309.5,58.9883 L309.5,85.9883 M296.5,66.9883 L322.5,66.9883 M309.5,85.9883 L296.5,100.9883 M309.5,85.9883 L322.5,100.9883 " fill="none" style="stroke:#181818;stroke-width:0.5;"/><text fill="#000000" font-family="sans-serif" font-size="14" lengthAdjust="spacing" textLength="48" x="282.5" y="411.9961">System</text><ellipse cx="309.5" cy="423.4492" fill="#E2E2F0" rx="8" ry="8" style="stroke:#181818;stroke-width:0.5;"/><path d="M309.5,431.4492 L309.5,458.4492 M296.5,439.4492 L322.5,439.4492 M309.5,458.4492 L296.5,473.4492 M309.5,458.4492 L322.5,473.4492 " fill="none" style="stroke:#181818;stroke-width:0.5;"/><rect fill="#FFFFFF" height="71.6211" style="stroke:#181818;stroke-width:1.0;" width="10" x="304.5" y="150.2871"/><rect fill="#FFFFFF" height="29.3105" style="stroke:#181818;stroke-width:1.0;" width="10" x="304.5" y="251.2188"/><rect fill="#FFFFFF" height="71.6211" style="stroke:#181818;stroke-width:1.0;" width="10" x="304.5" y="309.8398"/><polygon fill="#181818" points="292.5,146.2871,302.5,150.2871,292.5,154.2871,296.5,150.2871" style="stroke:#181818;stroke-width:1.0;"/><line style="stroke:#181818;stroke-width:1.0;" x1="30.5" x2="298.5" y1="150.2871" y2="150.2871"/><text fill="#000000" font-family="sans-serif" font-size="13" lengthAdjust="spacing" textLength="214" x="37.5" y="145.5449">Request to edit an existing profile</text><line style="stroke:#181818;stroke-width:1.0;" x1="314.5" x2="356.5" y1="179.5977" y2="179.5977"/><line style="stroke:#181818;stroke-width:1.0;" x1="356.5" x2="356.5" y1="179.5977" y2="192.5977"/><line style="stroke:#181818;stroke-width:1.0;" x1="315.5" x2="356.5" y1="192.5977" y2="192.5977"/><polygon fill="#181818" points="325.5,188.5977,315.5,192.5977,325.5,196.5977,321.5,192.5977" style="stroke:#181818;stroke-width:1.0;"/><text fill="#000000" font-family="sans-serif" font-size="13" lengthAdjust="spacing" textLength="132" x="321.5" y="174.8555">Validates the request</text><polygon fill="#181818" points="41.5,217.9082,31.5,221.9082,41.5,225.9082,37.5,221.9082" style="stroke:#181818;stroke-width:1.0;"/><line style="stroke:#181818;stroke-width:1.0;" x1="35.5" x2="308.5" y1="221.9082" y2="221.9082"/><text fill="#000000" font-family="sans-serif" font-size="13" lengthAdjust="spacing" textLength="250" x="47.5" y="217.166">Displays the list of profiles to be edited</text><polygon fill="#181818" points="292.5,247.2188,302.5,251.2188,292.5,255.2188,296.5,251.2188" style="stroke:#181818;stroke-width:1.0;"/><line style="stroke:#181818;stroke-width:1.0;" x1="30.5" x2="298.5" y1="251.2188" y2="251.2188"/><text fill="#000000" font-family="sans-serif" font-size="13" lengthAdjust="spacing" textLength="192" x="37.5" y="246.4766">Selects the profile to be edited</text><polygon fill="#181818" points="41.5,276.5293,31.5,280.5293,41.5,284.5293,37.5,280.5293" style="stroke:#181818;stroke-width:1.0;"/><line style="stroke:#181818;stroke-width:1.0;" x1="35.5" x2="308.5" y1="280.5293" y2="280.5293"/><text fill="#000000" font-family="sans-serif" font-size="13" lengthAdjust="spacing" textLength="216" x="47.5" y="275.7871">Displays the profile&#180;s information</text><polygon fill="#181818" points="292.5,305.8398,302.5,309.8398,292.5,313.8398,296.5,309.8398" style="stroke:#181818;stroke-width:1.0;"/><line style="stroke:#181818;stroke-width:1.0;" x1="30.5" x2="298.5" y1="309.8398" y2="309.8398"/><text fill="#000000" font-family="sans-serif" font-size="13" lengthAdjust="spacing" textLength="193" x="37.5" y="305.0977">Edits the profile&#180;s information</text><line style="stroke:#181818;stroke-width:1.0;" x1="314.5" x2="356.5" y1="339.1504" y2="339.1504"/><line style="stroke:#181818;stroke-width:1.0;" x1="356.5" x2="356.5" y1="339.1504" y2="352.1504"/><line style="stroke:#181818;stroke-width:1.0;" x1="315.5" x2="356.5" y1="352.1504" y2="352.1504"/><polygon fill="#181818" points="325.5,348.1504,315.5,352.1504,325.5,356.1504,321.5,352.1504" style="stroke:#181818;stroke-width:1.0;"/><text fill="#000000" font-family="sans-serif" font-size="13" lengthAdjust="spacing" textLength="243" x="321.5" y="334.4082">Logs the changes in editing the profile</text><polygon fill="#181818" points="41.5,377.4609,31.5,381.4609,41.5,385.4609,37.5,381.4609" style="stroke:#181818;stroke-width:1.0;"/><line style="stroke:#181818;stroke-width:1.0;" x1="35.5" x2="308.5" y1="381.4609" y2="381.4609"/><text fill="#000000" font-family="sans-serif" font-size="13" lengthAdjust="spacing" textLength="138" x="47.5" y="376.7188">Confirms the changes</text><!--SRC=[ZP5DJWCn34RtESLtWLPYmO8kaAh2ZXKZkWyJpzHIVjh4LFHUd82JCPcaqfIMbbrasUzxTeJ54ff34d9eQFT1lYKyiUwZTfZXhS7z_6x-e9Hk9KGiZMDVtsLAgR66sMCjBF2QEKaW0MHOe3teavEmxx6DeMDB6S5xBSTiLHKcbBMsR8QE1DaGOc5E-iROnU2QjbOVIfSTKX2wOqhA2kyqMf1HXdwddgatPAcL0gkGKyRVtfTyAkBxAu5z5wBJmi7_H-HvYBlAk7t0bz0NGhlHlgSyFcwHls42FbzX5Np7qPqE0nUqVm00]--></g></svg>