<?xml version="1.0" encoding="us-ascii" standalone="no"?><svg xmlns="http://www.w3.org/2000/svg" xmlns:xlink="http://www.w3.org/1999/xlink" contentStyleType="text/css" height="737px" preserveAspectRatio="none" style="width:1326px;height:737px;background:#FFFFFF;" version="1.1" viewBox="0 0 1326 737" width="1326px" zoomAndPan="magnify"><defs/><g><text fill="#000000" font-family="sans-serif" font-size="14" font-weight="bold" lengthAdjust="spacing" textLength="132" x="598" y="28.5352">Sequence Diagram</text><rect fill="#FFFFFF" height="495.9238" style="stroke:#181818;stroke-width:1.0;" width="10" x="80" y="150.2871"/><rect fill="#FFFFFF" height="495.9238" style="stroke:#181818;stroke-width:1.0;" width="10" x="550" y="150.2871"/><rect fill="#FFFFFF" height="200.1738" style="stroke:#181818;stroke-width:1.0;" width="10" x="841" y="150.2871"/><rect fill="#FFFFFF" height="87.9316" style="stroke:#181818;stroke-width:1.0;" width="10" x="841" y="448.3477"/><rect fill="#FFFFFF" height="112.2422" style="stroke:#181818;stroke-width:1.0;" width="10" x="1113" y="208.9082"/><rect fill="#FFFFFF" height="29.3105" style="stroke:#181818;stroke-width:1.0;" width="10" x="1113" y="477.6582"/><rect fill="#FFFFFF" height="29.3105" style="stroke:#181818;stroke-width:1.0;" width="10" x="1258" y="262.5293"/><rect fill="none" height="415.3027" style="stroke:#000000;stroke-width:1.5;" width="1309" x="10" y="223.9082"/><rect fill="none" height="193.1738" style="stroke:#000000;stroke-width:1.5;" width="1189.5" x="20" y="409.7266"/><line style="stroke:#181818;stroke-width:0.5;stroke-dasharray:5.0,5.0;" x1="85" x2="85" y1="118.9766" y2="656.2109"/><line style="stroke:#181818;stroke-width:0.5;stroke-dasharray:5.0,5.0;" x1="555" x2="555" y1="118.9766" y2="656.2109"/><line style="stroke:#181818;stroke-width:0.5;stroke-dasharray:5.0,5.0;" x1="846" x2="846" y1="118.9766" y2="656.2109"/><line style="stroke:#181818;stroke-width:0.5;stroke-dasharray:5.0,5.0;" x1="1117.5" x2="1117.5" y1="118.9766" y2="656.2109"/><line style="stroke:#181818;stroke-width:0.5;stroke-dasharray:5.0,5.0;" x1="1263" x2="1263" y1="118.9766" y2="656.2109"/><text fill="#000000" font-family="sans-serif" font-size="14" lengthAdjust="spacing" textLength="104" x="30" y="116.0234">Backoffice User</text><ellipse cx="85" cy="50.9883" fill="#E2E2F0" rx="8" ry="8" style="stroke:#181818;stroke-width:0.5;"/><path d="M85,58.9883 L85,85.9883 M72,66.9883 L98,66.9883 M85,85.9883 L72,100.9883 M85,85.9883 L98,100.9883 " fill="none" style="stroke:#181818;stroke-width:0.5;"/><text fill="#000000" font-family="sans-serif" font-size="14" lengthAdjust="spacing" textLength="104" x="30" y="668.7461">Backoffice User</text><ellipse cx="85" cy="680.1992" fill="#E2E2F0" rx="8" ry="8" style="stroke:#181818;stroke-width:0.5;"/><path d="M85,688.1992 L85,715.1992 M72,696.1992 L98,696.1992 M85,715.1992 L72,730.1992 M85,715.1992 L98,730.1992 " fill="none" style="stroke:#181818;stroke-width:0.5;"/><rect fill="#E2E2F0" height="30.4883" rx="2.5" ry="2.5" style="stroke:#181818;stroke-width:0.5;" width="70" x="520" y="87.4883"/><text fill="#000000" font-family="sans-serif" font-size="14" lengthAdjust="spacing" textLength="56" x="527" y="108.0234">:LoginUI</text><rect fill="#E2E2F0" height="30.4883" rx="2.5" ry="2.5" style="stroke:#181818;stroke-width:0.5;" width="70" x="520" y="655.2109"/><text fill="#000000" font-family="sans-serif" font-size="14" lengthAdjust="spacing" textLength="56" x="527" y="675.7461">:LoginUI</text><rect fill="#E2E2F0" height="30.4883" rx="2.5" ry="2.5" style="stroke:#181818;stroke-width:0.5;" width="122" x="785" y="87.4883"/><text fill="#000000" font-family="sans-serif" font-size="14" lengthAdjust="spacing" textLength="108" x="792" y="108.0234">LoginController</text><rect fill="#E2E2F0" height="30.4883" rx="2.5" ry="2.5" style="stroke:#181818;stroke-width:0.5;" width="122" x="785" y="655.2109"/><text fill="#000000" font-family="sans-serif" font-size="14" lengthAdjust="spacing" textLength="108" x="792" y="675.7461">LoginController</text><rect fill="#E2E2F0" height="30.4883" rx="2.5" ry="2.5" style="stroke:#181818;stroke-width:0.5;" width="163" x="1036.5" y="87.4883"/><text fill="#000000" font-family="sans-serif" font-size="14" lengthAdjust="spacing" textLength="149" x="1043.5" y="108.0234">AuthenticationService</text><rect fill="#E2E2F0" height="30.4883" rx="2.5" ry="2.5" style="stroke:#181818;stroke-width:0.5;" width="163" x="1036.5" y="655.2109"/><text fill="#000000" font-family="sans-serif" font-size="14" lengthAdjust="spacing" textLength="149" x="1043.5" y="675.7461">AuthenticationService</text><rect fill="#E2E2F0" height="30.4883" rx="2.5" ry="2.5" style="stroke:#181818;stroke-width:0.5;" width="92" x="1217" y="87.4883"/><text fill="#000000" font-family="sans-serif" font-size="14" lengthAdjust="spacing" textLength="78" x="1224" y="108.0234">RoleService</text><rect fill="#E2E2F0" height="30.4883" rx="2.5" ry="2.5" style="stroke:#181818;stroke-width:0.5;" width="92" x="1217" y="655.2109"/><text fill="#000000" font-family="sans-serif" font-size="14" lengthAdjust="spacing" textLength="78" x="1224" y="675.7461">RoleService</text><rect fill="#FFFFFF" height="495.9238" style="stroke:#181818;stroke-width:1.0;" width="10" x="80" y="150.2871"/><rect fill="#FFFFFF" height="495.9238" style="stroke:#181818;stroke-width:1.0;" width="10" x="550" y="150.2871"/><rect fill="#FFFFFF" height="200.1738" style="stroke:#181818;stroke-width:1.0;" width="10" x="841" y="150.2871"/><rect fill="#FFFFFF" height="87.9316" style="stroke:#181818;stroke-width:1.0;" width="10" x="841" y="448.3477"/><rect fill="#FFFFFF" height="112.2422" style="stroke:#181818;stroke-width:1.0;" width="10" x="1113" y="208.9082"/><rect fill="#FFFFFF" height="29.3105" style="stroke:#181818;stroke-width:1.0;" width="10" x="1113" y="477.6582"/><rect fill="#FFFFFF" height="29.3105" style="stroke:#181818;stroke-width:1.0;" width="10" x="1258" y="262.5293"/><polygon fill="#181818" points="538,146.2871,548,150.2871,538,154.2871,542,150.2871" style="stroke:#181818;stroke-width:1.0;"/><line style="stroke:#181818;stroke-width:1.0;" x1="90" x2="544" y1="150.2871" y2="150.2871"/><text fill="#000000" font-family="sans-serif" font-size="13" lengthAdjust="spacing" textLength="171" x="97" y="145.5449">Inserts the user credentials</text><polygon fill="#181818" points="829,175.5977,839,179.5977,829,183.5977,833,179.5977" style="stroke:#181818;stroke-width:1.0;"/><line style="stroke:#181818;stroke-width:1.0;" x1="560" x2="835" y1="179.5977" y2="179.5977"/><text fill="#000000" font-family="sans-serif" font-size="13" lengthAdjust="spacing" textLength="257" x="567" y="174.8555">validateCredentials(username, password)</text><polygon fill="#181818" points="1101,204.9082,1111,208.9082,1101,212.9082,1105,208.9082" style="stroke:#181818;stroke-width:1.0;"/><line style="stroke:#181818;stroke-width:1.0;" x1="851" x2="1107" y1="208.9082" y2="208.9082"/><text fill="#000000" font-family="sans-serif" font-size="13" lengthAdjust="spacing" textLength="243" x="858" y="204.166">verifyCredentials(username, password)</text><path d="M10,223.9082 L72,223.9082 L72,231.2188 L62,241.2188 L10,241.2188 L10,223.9082 " fill="#EEEEEE" style="stroke:#000000;stroke-width:1.5;"/><rect fill="none" height="415.3027" style="stroke:#000000;stroke-width:1.5;" width="1309" x="10" y="223.9082"/><text fill="#000000" font-family="sans-serif" font-size="13" font-weight="bold" lengthAdjust="spacing" textLength="17" x="25" y="237.4766">alt</text><text fill="#000000" font-family="sans-serif" font-size="11" font-weight="bold" lengthAdjust="spacing" textLength="120" x="87" y="236.543">[Correct information]</text><polygon fill="#181818" points="1246,258.5293,1256,262.5293,1246,266.5293,1250,262.5293" style="stroke:#181818;stroke-width:1.0;"/><line style="stroke:#181818;stroke-width:1.0;" x1="1123" x2="1252" y1="262.5293" y2="262.5293"/><text fill="#000000" font-family="sans-serif" font-size="13" lengthAdjust="spacing" textLength="116" x="1130" y="257.7871">getRole(username)</text><polygon fill="#181818" points="1134,287.8398,1124,291.8398,1134,295.8398,1130,291.8398" style="stroke:#181818;stroke-width:1.0;"/><line style="stroke:#181818;stroke-width:1.0;stroke-dasharray:2.0,2.0;" x1="1128" x2="1262" y1="291.8398" y2="291.8398"/><text fill="#000000" font-family="sans-serif" font-size="13" lengthAdjust="spacing" textLength="24" x="1140" y="287.0977">role</text><polygon fill="#181818" points="862,317.1504,852,321.1504,862,325.1504,858,321.1504" style="stroke:#181818;stroke-width:1.0;"/><line style="stroke:#181818;stroke-width:1.0;stroke-dasharray:2.0,2.0;" x1="856" x2="1117" y1="321.1504" y2="321.1504"/><text fill="#000000" font-family="sans-serif" font-size="13" lengthAdjust="spacing" textLength="24" x="868" y="316.4082">role</text><polygon fill="#181818" points="571,346.4609,561,350.4609,571,354.4609,567,350.4609" style="stroke:#181818;stroke-width:1.0;"/><line style="stroke:#181818;stroke-width:1.0;stroke-dasharray:2.0,2.0;" x1="565" x2="845" y1="350.4609" y2="350.4609"/><text fill="#000000" font-family="sans-serif" font-size="13" lengthAdjust="spacing" textLength="24" x="577" y="345.7188">role</text><polygon fill="#181818" points="101,375.7715,91,379.7715,101,383.7715,97,379.7715" style="stroke:#181818;stroke-width:1.0;"/><line style="stroke:#181818;stroke-width:1.0;" x1="95" x2="549" y1="379.7715" y2="379.7715"/><text fill="#000000" font-family="sans-serif" font-size="13" lengthAdjust="spacing" textLength="436" x="107" y="375.0293">Login successful and display of the information according to the role</text><line style="stroke:#000000;stroke-width:1.0;stroke-dasharray:2.0,2.0;" x1="10" x2="1319" y1="388.7715" y2="388.7715"/><text fill="#000000" font-family="sans-serif" font-size="11" font-weight="bold" lengthAdjust="spacing" textLength="129" x="15" y="399.4063">[Incorrect information]</text><path d="M20,409.7266 L94,409.7266 L94,417.0371 L84,427.0371 L20,427.0371 L20,409.7266 " fill="#EEEEEE" style="stroke:#000000;stroke-width:1.5;"/><rect fill="none" height="193.1738" style="stroke:#000000;stroke-width:1.5;" width="1189.5" x="20" y="409.7266"/><text fill="#000000" font-family="sans-serif" font-size="13" font-weight="bold" lengthAdjust="spacing" textLength="29" x="35" y="423.2949">loop</text><text fill="#000000" font-family="sans-serif" font-size="11" font-weight="bold" lengthAdjust="spacing" textLength="50" x="109" y="422.3613">[5 times]</text><polygon fill="#181818" points="829,444.3477,839,448.3477,829,452.3477,833,448.3477" style="stroke:#181818;stroke-width:1.0;"/><line style="stroke:#181818;stroke-width:1.0;" x1="560" x2="835" y1="448.3477" y2="448.3477"/><text fill="#000000" font-family="sans-serif" font-size="13" lengthAdjust="spacing" textLength="257" x="567" y="443.6055">validateCredentials(username, password)</text><polygon fill="#181818" points="1101,473.6582,1111,477.6582,1101,481.6582,1105,477.6582" style="stroke:#181818;stroke-width:1.0;"/><line style="stroke:#181818;stroke-width:1.0;" x1="851" x2="1107" y1="477.6582" y2="477.6582"/><text fill="#000000" font-family="sans-serif" font-size="13" lengthAdjust="spacing" textLength="243" x="858" y="472.916">verifyCredentials(username, password)</text><polygon fill="#181818" points="862,502.9688,852,506.9688,862,510.9688,858,506.9688" style="stroke:#181818;stroke-width:1.0;"/><line style="stroke:#181818;stroke-width:1.0;stroke-dasharray:2.0,2.0;" x1="856" x2="1117" y1="506.9688" y2="506.9688"/><text fill="#000000" font-family="sans-serif" font-size="13" lengthAdjust="spacing" textLength="112" x="868" y="502.2266">wrong credentials</text><polygon fill="#181818" points="571,532.2793,561,536.2793,571,540.2793,567,536.2793" style="stroke:#181818;stroke-width:1.0;"/><line style="stroke:#181818;stroke-width:1.0;stroke-dasharray:2.0,2.0;" x1="565" x2="845" y1="536.2793" y2="536.2793"/><text fill="#000000" font-family="sans-serif" font-size="13" lengthAdjust="spacing" textLength="112" x="577" y="531.5371">wrong credentials</text><polygon fill="#181818" points="101,561.5898,91,565.5898,101,569.5898,97,565.5898" style="stroke:#181818;stroke-width:1.0;"/><line style="stroke:#181818;stroke-width:1.0;" x1="95" x2="549" y1="565.5898" y2="565.5898"/><text fill="#000000" font-family="sans-serif" font-size="13" lengthAdjust="spacing" textLength="74" x="107" y="560.8477">Login failed</text><polygon fill="#181818" points="538,590.9004,548,594.9004,538,598.9004,542,594.9004" style="stroke:#181818;stroke-width:1.0;"/><line style="stroke:#181818;stroke-width:1.0;" x1="90" x2="544" y1="594.9004" y2="594.9004"/><text fill="#000000" font-family="sans-serif" font-size="13" lengthAdjust="spacing" textLength="171" x="97" y="590.1582">Inserts the user credentials</text><polygon fill="#181818" points="101,627.2109,91,631.2109,101,635.2109,97,631.2109" style="stroke:#181818;stroke-width:1.0;"/><line style="stroke:#181818;stroke-width:1.0;" x1="95" x2="549" y1="631.2109" y2="631.2109"/><text fill="#000000" font-family="sans-serif" font-size="13" lengthAdjust="spacing" textLength="355" x="107" y="626.4688">The account was locked, an email was sent to the admin</text><!--SRC=[dLCzRzmm3DtrAuYR4Y0PktWea5oN09sQv0SG4dqb8ekk9DyX_xwK_75sxu0azM18v2Fv-4XbpfxWcVuC52p13yP3nCuOj5aYx1xHladRihfU4yKTO8913wR7cDboZo73hlaf1mwlJwERjyxgsql8KRoVKbW9Mz33a7zJq3jcbl1CyQWbApIDvotybtXQWpGr6MCACxZ_hXGQU0fwoGaqRsKCDf8h9T2dqXqVCO-UrOtD-L8u3bpIwQc18tfsQj-VqzoKw80TtK6FAPqakbkZu18pqTOuYjo-VnIrL9tRDUWpx2L6iXauj1AxAWqO0_fDi5AfzDx0WN8HPKb-Ms5BsYfGiPG3tAy9BYv7M_YsqAp3DVX2kjYh0DCGhe6BhjKsYbi8Dr2N1D9WBQNK3XumE72SUe_l86sTube5j5Prut20BDLP-pA6V28TlRqKhfQiFo_ImpV8t54QcPpPV6dKS-YwDLYi_xS85pbdRMV7nK1EKLI6zNRFq2iJsf2RXlIf17PIyFhWMcHFxWpux3jS8YYuYvruqOWovq5V_4aVkHVxHkvELmEequBLc3JLl0FeEXvPpkbM3UZR_jTItlvV]--></g></svg>