<?xml version="1.0" encoding="us-ascii" standalone="no"?><svg xmlns="http://www.w3.org/2000/svg" xmlns:xlink="http://www.w3.org/1999/xlink" contentStyleType="text/css" height="486px" preserveAspectRatio="none" style="width:666px;height:486px;background:#FFFFFF;" version="1.1" viewBox="0 0 666 486" width="666px" zoomAndPan="magnify"><defs/><g><text fill="#000000" font-family="sans-serif" font-size="14" font-weight="bold" lengthAdjust="spacing" textLength="189" x="240.5" y="28.5352">System Sequence Diagram</text><rect fill="#FFFFFF" height="245.1289" style="stroke:#181818;stroke-width:1.0;" width="10" x="80" y="150.2871"/><rect fill="#FFFFFF" height="245.1289" style="stroke:#181818;stroke-width:1.0;" width="10" x="457" y="150.2871"/><rect fill="none" height="180.8184" style="stroke:#000000;stroke-width:1.5;" width="503" x="10" y="207.5977"/><rect fill="none" height="75.9316" style="stroke:#000000;stroke-width:1.5;" width="483" x="20" y="276.1738"/><line style="stroke:#181818;stroke-width:0.5;stroke-dasharray:5.0,5.0;" x1="85" x2="85" y1="118.9766" y2="405.416"/><line style="stroke:#181818;stroke-width:0.5;stroke-dasharray:5.0,5.0;" x1="462" x2="462" y1="118.9766" y2="405.416"/><text fill="#000000" font-family="sans-serif" font-size="14" lengthAdjust="spacing" textLength="104" x="30" y="116.0234">Backoffice User</text><ellipse cx="85" cy="50.9883" fill="#E2E2F0" rx="8" ry="8" style="stroke:#181818;stroke-width:0.5;"/><path d="M85,58.9883 L85,85.9883 M72,66.9883 L98,66.9883 M85,85.9883 L72,100.9883 M85,85.9883 L98,100.9883 " fill="none" style="stroke:#181818;stroke-width:0.5;"/><text fill="#000000" font-family="sans-serif" font-size="14" lengthAdjust="spacing" textLength="104" x="30" y="417.9512">Backoffice User</text><ellipse cx="85" cy="429.4043" fill="#E2E2F0" rx="8" ry="8" style="stroke:#181818;stroke-width:0.5;"/><path d="M85,437.4043 L85,464.4043 M72,445.4043 L98,445.4043 M85,464.4043 L72,479.4043 M85,464.4043 L98,479.4043 " fill="none" style="stroke:#181818;stroke-width:0.5;"/><rect fill="#E2E2F0" height="30.4883" rx="2.5" ry="2.5" style="stroke:#181818;stroke-width:0.5;" width="62" x="431" y="87.4883"/><text fill="#000000" font-family="sans-serif" font-size="14" lengthAdjust="spacing" textLength="48" x="438" y="108.0234">System</text><rect fill="#E2E2F0" height="30.4883" rx="2.5" ry="2.5" style="stroke:#181818;stroke-width:0.5;" width="62" x="431" y="404.416"/><text fill="#000000" font-family="sans-serif" font-size="14" lengthAdjust="spacing" textLength="48" x="438" y="424.9512">System</text><rect fill="#FFFFFF" height="245.1289" style="stroke:#181818;stroke-width:1.0;" width="10" x="80" y="150.2871"/><rect fill="#FFFFFF" height="245.1289" style="stroke:#181818;stroke-width:1.0;" width="10" x="457" y="150.2871"/><polygon fill="#181818" points="445,146.2871,455,150.2871,445,154.2871,449,150.2871" style="stroke:#181818;stroke-width:1.0;"/><line style="stroke:#181818;stroke-width:1.0;" x1="90" x2="451" y1="150.2871" y2="150.2871"/><text fill="#000000" font-family="sans-serif" font-size="13" lengthAdjust="spacing" textLength="171" x="97" y="145.5449">Inserts the user credentials</text><line style="stroke:#181818;stroke-width:1.0;" x1="467" x2="509" y1="179.5977" y2="179.5977"/><line style="stroke:#181818;stroke-width:1.0;" x1="509" x2="509" y1="179.5977" y2="192.5977"/><line style="stroke:#181818;stroke-width:1.0;" x1="468" x2="509" y1="192.5977" y2="192.5977"/><polygon fill="#181818" points="478,188.5977,468,192.5977,478,196.5977,474,192.5977" style="stroke:#181818;stroke-width:1.0;"/><text fill="#000000" font-family="sans-serif" font-size="13" lengthAdjust="spacing" textLength="185" x="474" y="174.8555">Validates the user credentials</text><path d="M10,207.5977 L72,207.5977 L72,214.9082 L62,224.9082 L10,224.9082 L10,207.5977 " fill="#EEEEEE" style="stroke:#000000;stroke-width:1.5;"/><rect fill="none" height="180.8184" style="stroke:#000000;stroke-width:1.5;" width="503" x="10" y="207.5977"/><text fill="#000000" font-family="sans-serif" font-size="13" font-weight="bold" lengthAdjust="spacing" textLength="17" x="25" y="221.166">alt</text><text fill="#000000" font-family="sans-serif" font-size="11" font-weight="bold" lengthAdjust="spacing" textLength="120" x="87" y="220.2324">[Correct information]</text><polygon fill="#181818" points="101,242.2188,91,246.2188,101,250.2188,97,246.2188" style="stroke:#181818;stroke-width:1.0;"/><line style="stroke:#181818;stroke-width:1.0;" x1="95" x2="456" y1="246.2188" y2="246.2188"/><text fill="#000000" font-family="sans-serif" font-size="13" lengthAdjust="spacing" textLength="106" x="107" y="241.4766">Login successful</text><line style="stroke:#000000;stroke-width:1.0;stroke-dasharray:2.0,2.0;" x1="10" x2="513" y1="255.2188" y2="255.2188"/><text fill="#000000" font-family="sans-serif" font-size="11" font-weight="bold" lengthAdjust="spacing" textLength="129" x="15" y="265.8535">[Incorrect information]</text><path d="M20,276.1738 L94,276.1738 L94,283.4844 L84,293.4844 L20,293.4844 L20,276.1738 " fill="#EEEEEE" style="stroke:#000000;stroke-width:1.5;"/><rect fill="none" height="75.9316" style="stroke:#000000;stroke-width:1.5;" width="483" x="20" y="276.1738"/><text fill="#000000" font-family="sans-serif" font-size="13" font-weight="bold" lengthAdjust="spacing" textLength="29" x="35" y="289.7422">loop</text><text fill="#000000" font-family="sans-serif" font-size="11" font-weight="bold" lengthAdjust="spacing" textLength="50" x="109" y="288.8086">[5 times]</text><polygon fill="#181818" points="101,310.7949,91,314.7949,101,318.7949,97,314.7949" style="stroke:#181818;stroke-width:1.0;"/><line style="stroke:#181818;stroke-width:1.0;" x1="95" x2="456" y1="314.7949" y2="314.7949"/><text fill="#000000" font-family="sans-serif" font-size="13" lengthAdjust="spacing" textLength="74" x="107" y="310.0527">Login failed</text><polygon fill="#181818" points="445,340.1055,455,344.1055,445,348.1055,449,344.1055" style="stroke:#181818;stroke-width:1.0;"/><line style="stroke:#181818;stroke-width:1.0;" x1="90" x2="451" y1="344.1055" y2="344.1055"/><text fill="#000000" font-family="sans-serif" font-size="13" lengthAdjust="spacing" textLength="171" x="97" y="339.3633">Inserts the user credentials</text><polygon fill="#181818" points="101,376.416,91,380.416,101,384.416,97,380.416" style="stroke:#181818;stroke-width:1.0;"/><line style="stroke:#181818;stroke-width:1.0;" x1="95" x2="456" y1="380.416" y2="380.416"/><text fill="#000000" font-family="sans-serif" font-size="13" lengthAdjust="spacing" textLength="343" x="107" y="375.6738">The account was locked, an email was sent to the adm</text><!--SRC=[ZP0nJyGm38Lt_mhhPXXPRc005YIs0tQVunxMfKc97L3_FQPKej89YKmljj_dvBbw5ZpCvZBYGTwx51PyK3er6W60s6l3tHtnkGw3Hk_5fEsG38yTOQBcoZfHSTpzK9QUpGWG0zUt8VVuMCBaXlucs4CYDqbIN2dRzmhz89S0_cgR8HYh_PMofgZ-0G3AZlUrDM57BKDj8xdMWYlYsFVuL4zQq3gpc0qz0qWsYOVnfGzohHFUeEieTi4OIBEa_tuEfAGDuZbcYBdsoEipSigLpvAka0hA6E2bQ656hmkGqhWWacoZsTmYjFLy0G00]--></g></svg>