<?xml version="1.0" encoding="us-ascii" standalone="no"?><svg xmlns="http://www.w3.org/2000/svg" xmlns:xlink="http://www.w3.org/1999/xlink" contentStyleType="text/css" height="734px" preserveAspectRatio="none" style="width:1237px;height:734px;background:#FFFFFF;" version="1.1" viewBox="0 0 1237 734" width="1237px" zoomAndPan="magnify"><defs/><g><text fill="#000000" font-family="sans-serif" font-size="14" font-weight="bold" lengthAdjust="spacing" textLength="267" x="486.75" y="28.5352">System Sequence Diagram - US 1006</text><rect fill="#FFFFFF" height="499.2793" style="stroke:#181818;stroke-width:1.0;" width="10" x="66.5" y="131.4648"/><rect fill="#FFFFFF" height="477.9688" style="stroke:#181818;stroke-width:1.0;" width="10" x="442.5" y="152.7754"/><rect fill="#FFFFFF" height="234.4844" style="stroke:#181818;stroke-width:1.0;" width="10" x="654.5" y="182.0859"/><rect fill="#FFFFFF" height="87.9316" style="stroke:#181818;stroke-width:1.0;" width="10" x="654.5" y="504.502"/><rect fill="#FFFFFF" height="58.6211" style="stroke:#181818;stroke-width:1.0;" width="10" x="852.5" y="240.707"/><rect fill="#FFFFFF" height="58.6211" style="stroke:#181818;stroke-width:1.0;" width="10" x="1004" y="328.6387"/><rect fill="#FFFFFF" height="29.3105" style="stroke:#181818;stroke-width:1.0;" width="10" x="1157" y="533.8125"/><line style="stroke:#181818;stroke-width:0.5;stroke-dasharray:5.0,5.0;" x1="71" x2="71" y1="121.4648" y2="639.7441"/><line style="stroke:#181818;stroke-width:0.5;stroke-dasharray:5.0,5.0;" x1="447.5" x2="447.5" y1="121.4648" y2="639.7441"/><line style="stroke:#181818;stroke-width:0.5;stroke-dasharray:5.0,5.0;" x1="659.5" x2="659.5" y1="121.4648" y2="639.7441"/><line style="stroke:#181818;stroke-width:0.5;stroke-dasharray:5.0,5.0;" x1="857.5" x2="857.5" y1="121.4648" y2="639.7441"/><line style="stroke:#181818;stroke-width:0.5;stroke-dasharray:5.0,5.0;" x1="1008.5" x2="1008.5" y1="121.4648" y2="639.7441"/><line style="stroke:#181818;stroke-width:0.5;stroke-dasharray:5.0,5.0;" x1="1161.5" x2="1161.5" y1="121.4648" y2="639.7441"/><text fill="#000000" font-family="sans-serif" font-size="14" lengthAdjust="spacing" textLength="127" x="5" y="118.5117">CustomerManager</text><ellipse cx="71.5" cy="53.4766" fill="#E3E3E3" rx="8" ry="8" style="stroke:#181818;stroke-width:0.5;"/><path d="M71.5,61.4766 L71.5,88.4766 M58.5,69.4766 L84.5,69.4766 M71.5,88.4766 L58.5,103.4766 M71.5,88.4766 L84.5,103.4766 " fill="none" style="stroke:#181818;stroke-width:0.5;"/><text fill="#000000" font-family="sans-serif" font-size="14" lengthAdjust="spacing" textLength="127" x="5" y="652.2793">CustomerManager</text><ellipse cx="71.5" cy="663.7324" fill="#E3E3E3" rx="8" ry="8" style="stroke:#181818;stroke-width:0.5;"/><path d="M71.5,671.7324 L71.5,698.7324 M58.5,679.7324 L84.5,679.7324 M71.5,698.7324 L58.5,713.7324 M71.5,698.7324 L84.5,713.7324 " fill="none" style="stroke:#181818;stroke-width:0.5;"/><rect fill="#E3E3E3" height="46.9766" rx="2.5" ry="2.5" style="stroke:#181818;stroke-width:0.5;" width="174" x="360.5" y="73.4883"/><text fill="#000000" font-family="sans-serif" font-size="14" font-style="italic" lengthAdjust="spacing" textLength="101" x="397" y="94.0234">&#171;presentation&#187;</text><text fill="#000000" font-family="sans-serif" font-size="14" lengthAdjust="spacing" textLength="160" x="367.5" y="110.5117">DisplayCandidateInfoUI</text><rect fill="#E3E3E3" height="46.9766" rx="2.5" ry="2.5" style="stroke:#181818;stroke-width:0.5;" width="174" x="360.5" y="638.7441"/><text fill="#000000" font-family="sans-serif" font-size="14" font-style="italic" lengthAdjust="spacing" textLength="101" x="397" y="659.2793">&#171;presentation&#187;</text><text fill="#000000" font-family="sans-serif" font-size="14" lengthAdjust="spacing" textLength="160" x="367.5" y="675.7676">DisplayCandidateInfoUI</text><rect fill="#E3E3E3" height="46.9766" rx="2.5" ry="2.5" style="stroke:#181818;stroke-width:0.5;" width="230" x="544.5" y="73.4883"/><text fill="#000000" font-family="sans-serif" font-size="14" font-style="italic" lengthAdjust="spacing" textLength="90" x="614.5" y="94.0234">&#171;application&#187;</text><text fill="#000000" font-family="sans-serif" font-size="14" lengthAdjust="spacing" textLength="216" x="551.5" y="110.5117">DisplayCandidateInfoController</text><rect fill="#E3E3E3" height="46.9766" rx="2.5" ry="2.5" style="stroke:#181818;stroke-width:0.5;" width="230" x="544.5" y="638.7441"/><text fill="#000000" font-family="sans-serif" font-size="14" font-style="italic" lengthAdjust="spacing" textLength="90" x="614.5" y="659.2793">&#171;application&#187;</text><text fill="#000000" font-family="sans-serif" font-size="14" lengthAdjust="spacing" textLength="216" x="551.5" y="675.7676">DisplayCandidateInfoController</text><rect fill="#E3E3E3" height="46.9766" rx="2.5" ry="2.5" style="stroke:#181818;stroke-width:0.5;" width="146" x="784.5" y="73.4883"/><text fill="#000000" font-family="sans-serif" font-size="14" font-style="italic" lengthAdjust="spacing" textLength="92" x="811.5" y="94.0234">&#171;persistence&#187;</text><text fill="#000000" font-family="sans-serif" font-size="14" lengthAdjust="spacing" textLength="132" x="791.5" y="110.5117">PersistenceContext</text><rect fill="#E3E3E3" height="46.9766" rx="2.5" ry="2.5" style="stroke:#181818;stroke-width:0.5;" width="146" x="784.5" y="638.7441"/><text fill="#000000" font-family="sans-serif" font-size="14" font-style="italic" lengthAdjust="spacing" textLength="92" x="811.5" y="659.2793">&#171;persistence&#187;</text><text fill="#000000" font-family="sans-serif" font-size="14" lengthAdjust="spacing" textLength="132" x="791.5" y="675.7676">PersistenceContext</text><rect fill="#E3E3E3" height="46.9766" rx="2.5" ry="2.5" style="stroke:#181818;stroke-width:0.5;" width="137" x="940.5" y="73.4883"/><text fill="#000000" font-family="sans-serif" font-size="14" font-style="italic" lengthAdjust="spacing" textLength="61" x="978.5" y="94.0234">&#171;factory&#187;</text><text fill="#000000" font-family="sans-serif" font-size="14" lengthAdjust="spacing" textLength="123" x="947.5" y="110.5117">RepositoryFactory</text><rect fill="#E3E3E3" height="46.9766" rx="2.5" ry="2.5" style="stroke:#181818;stroke-width:0.5;" width="137" x="940.5" y="638.7441"/><text fill="#000000" font-family="sans-serif" font-size="14" font-style="italic" lengthAdjust="spacing" textLength="61" x="978.5" y="659.2793">&#171;factory&#187;</text><text fill="#000000" font-family="sans-serif" font-size="14" lengthAdjust="spacing" textLength="123" x="947.5" y="675.7676">RepositoryFactory</text><text fill="#000000" font-family="sans-serif" font-size="14" font-style="italic" lengthAdjust="spacing" textLength="84" x="1117" y="102.0234">&#171;repository&#187;</text><text fill="#000000" font-family="sans-serif" font-size="14" lengthAdjust="spacing" textLength="143" x="1087.5" y="118.5117">CandidateRepository</text><path d="M1144,52.4883 C1144,42.4883 1162,42.4883 1162,42.4883 C1162,42.4883 1180,42.4883 1180,52.4883 L1180,78.4883 C1180,88.4883 1162,88.4883 1162,88.4883 C1162,88.4883 1144,88.4883 1144,78.4883 L1144,52.4883 " fill="#E3E3E3" style="stroke:#181818;stroke-width:1.5;"/><path d="M1144,52.4883 C1144,62.4883 1162,62.4883 1162,62.4883 C1162,62.4883 1180,62.4883 1180,52.4883 " fill="none" style="stroke:#181818;stroke-width:1.5;"/><text fill="#000000" font-family="sans-serif" font-size="14" font-style="italic" lengthAdjust="spacing" textLength="84" x="1117" y="652.2793">&#171;repository&#187;</text><text fill="#000000" font-family="sans-serif" font-size="14" lengthAdjust="spacing" textLength="143" x="1087.5" y="668.7676">CandidateRepository</text><path d="M1144,681.7207 C1144,671.7207 1162,671.7207 1162,671.7207 C1162,671.7207 1180,671.7207 1180,681.7207 L1180,707.7207 C1180,717.7207 1162,717.7207 1162,717.7207 C1162,717.7207 1144,717.7207 1144,707.7207 L1144,681.7207 " fill="#E3E3E3" style="stroke:#181818;stroke-width:1.5;"/><path d="M1144,681.7207 C1144,691.7207 1162,691.7207 1162,691.7207 C1162,691.7207 1180,691.7207 1180,681.7207 " fill="none" style="stroke:#181818;stroke-width:1.5;"/><rect fill="#FFFFFF" height="499.2793" style="stroke:#181818;stroke-width:1.0;" width="10" x="66.5" y="131.4648"/><rect fill="#FFFFFF" height="477.9688" style="stroke:#181818;stroke-width:1.0;" width="10" x="442.5" y="152.7754"/><rect fill="#FFFFFF" height="234.4844" style="stroke:#181818;stroke-width:1.0;" width="10" x="654.5" y="182.0859"/><rect fill="#FFFFFF" height="87.9316" style="stroke:#181818;stroke-width:1.0;" width="10" x="654.5" y="504.502"/><rect fill="#FFFFFF" height="58.6211" style="stroke:#181818;stroke-width:1.0;" width="10" x="852.5" y="240.707"/><rect fill="#FFFFFF" height="58.6211" style="stroke:#181818;stroke-width:1.0;" width="10" x="1004" y="328.6387"/><rect fill="#FFFFFF" height="29.3105" style="stroke:#181818;stroke-width:1.0;" width="10" x="1157" y="533.8125"/><polygon fill="#181818" points="430.5,148.7754,440.5,152.7754,430.5,156.7754,434.5,152.7754" style="stroke:#181818;stroke-width:1.0;"/><line style="stroke:#181818;stroke-width:1.0;" x1="76.5" x2="436.5" y1="152.7754" y2="152.7754"/><text fill="#000000" font-family="sans-serif" font-size="13" font-weight="bold" lengthAdjust="spacing" textLength="9" x="83.5" y="148.0332">1</text><text fill="#000000" font-family="sans-serif" font-size="13" lengthAdjust="spacing" textLength="289" x="96.5" y="148.0332">ask to display all personal data of a candidate</text><polygon fill="#181818" points="642.5,178.0859,652.5,182.0859,642.5,186.0859,646.5,182.0859" style="stroke:#181818;stroke-width:1.0;"/><line style="stroke:#181818;stroke-width:1.0;" x1="452.5" x2="648.5" y1="182.0859" y2="182.0859"/><text fill="#000000" font-family="sans-serif" font-size="13" font-weight="bold" lengthAdjust="spacing" textLength="9" x="459.5" y="177.3438">2</text><text fill="#000000" font-family="sans-serif" font-size="13" lengthAdjust="spacing" textLength="46" x="472.5" y="177.3438">create()</text><polygon fill="#181818" points="642.5,207.3965,652.5,211.3965,642.5,215.3965,646.5,211.3965" style="stroke:#181818;stroke-width:1.0;"/><line style="stroke:#181818;stroke-width:1.0;" x1="452.5" x2="648.5" y1="211.3965" y2="211.3965"/><text fill="#000000" font-family="sans-serif" font-size="13" font-weight="bold" lengthAdjust="spacing" textLength="9" x="459.5" y="206.6543">3</text><text fill="#000000" font-family="sans-serif" font-size="13" lengthAdjust="spacing" textLength="93" x="472.5" y="206.6543">allCandidates()</text><polygon fill="#181818" points="840.5,236.707,850.5,240.707,840.5,244.707,844.5,240.707" style="stroke:#181818;stroke-width:1.0;"/><line style="stroke:#181818;stroke-width:1.0;" x1="664.5" x2="846.5" y1="240.707" y2="240.707"/><text fill="#000000" font-family="sans-serif" font-size="13" font-weight="bold" lengthAdjust="spacing" textLength="9" x="671.5" y="235.9648">4</text><text fill="#000000" font-family="sans-serif" font-size="13" lengthAdjust="spacing" textLength="83" x="684.5" y="235.9648">repositories()</text><polygon fill="#181818" points="997,266.0176,1007,270.0176,997,274.0176,1001,270.0176" style="stroke:#181818;stroke-width:1.0;"/><line style="stroke:#181818;stroke-width:1.0;" x1="862.5" x2="1003" y1="270.0176" y2="270.0176"/><text fill="#000000" font-family="sans-serif" font-size="13" font-weight="bold" lengthAdjust="spacing" textLength="9" x="869.5" y="265.2754">5</text><text fill="#000000" font-family="sans-serif" font-size="13" lengthAdjust="spacing" textLength="38" x="882.5" y="265.2754">create</text><polygon fill="#181818" points="675.5,295.3281,665.5,299.3281,675.5,303.3281,671.5,299.3281" style="stroke:#181818;stroke-width:1.0;"/><line style="stroke:#181818;stroke-width:1.0;stroke-dasharray:2.0,2.0;" x1="669.5" x2="856.5" y1="299.3281" y2="299.3281"/><text fill="#000000" font-family="sans-serif" font-size="13" font-weight="bold" lengthAdjust="spacing" textLength="9" x="681.5" y="294.5859">6</text><text fill="#000000" font-family="sans-serif" font-size="13" lengthAdjust="spacing" textLength="44" x="694.5" y="294.5859">factory</text><polygon fill="#181818" points="992,324.6387,1002,328.6387,992,332.6387,996,328.6387" style="stroke:#181818;stroke-width:1.0;"/><line style="stroke:#181818;stroke-width:1.0;" x1="664.5" x2="998" y1="328.6387" y2="328.6387"/><text fill="#000000" font-family="sans-serif" font-size="13" font-weight="bold" lengthAdjust="spacing" textLength="9" x="671.5" y="323.8965">7</text><text fill="#000000" font-family="sans-serif" font-size="13" lengthAdjust="spacing" textLength="50" x="684.5" y="323.8965">findAll()</text><polygon fill="#181818" points="1150,353.9492,1160,357.9492,1150,361.9492,1154,357.9492" style="stroke:#181818;stroke-width:1.0;"/><line style="stroke:#181818;stroke-width:1.0;" x1="1014" x2="1156" y1="357.9492" y2="357.9492"/><text fill="#000000" font-family="sans-serif" font-size="13" font-weight="bold" lengthAdjust="spacing" textLength="9" x="1021" y="353.207">8</text><text fill="#000000" font-family="sans-serif" font-size="13" lengthAdjust="spacing" textLength="38" x="1034" y="353.207">create</text><polygon fill="#181818" points="675.5,383.2598,665.5,387.2598,675.5,391.2598,671.5,387.2598" style="stroke:#181818;stroke-width:1.0;"/><line style="stroke:#181818;stroke-width:1.0;stroke-dasharray:2.0,2.0;" x1="669.5" x2="1008" y1="387.2598" y2="387.2598"/><text fill="#000000" font-family="sans-serif" font-size="13" font-weight="bold" lengthAdjust="spacing" textLength="9" x="681.5" y="382.5176">9</text><text fill="#000000" font-family="sans-serif" font-size="13" lengthAdjust="spacing" textLength="68" x="694.5" y="382.5176">candidates</text><polygon fill="#181818" points="463.5,412.5703,453.5,416.5703,463.5,420.5703,459.5,416.5703" style="stroke:#181818;stroke-width:1.0;"/><line style="stroke:#181818;stroke-width:1.0;stroke-dasharray:2.0,2.0;" x1="457.5" x2="658.5" y1="416.5703" y2="416.5703"/><text fill="#000000" font-family="sans-serif" font-size="13" font-weight="bold" lengthAdjust="spacing" textLength="18" x="469.5" y="411.8281">10</text><text fill="#000000" font-family="sans-serif" font-size="13" lengthAdjust="spacing" textLength="20" x="491.5" y="411.8281">list</text><polygon fill="#181818" points="87.5,441.8809,77.5,445.8809,87.5,449.8809,83.5,445.8809" style="stroke:#181818;stroke-width:1.0;"/><line style="stroke:#181818;stroke-width:1.0;stroke-dasharray:2.0,2.0;" x1="81.5" x2="441.5" y1="445.8809" y2="445.8809"/><text fill="#000000" font-family="sans-serif" font-size="13" font-weight="bold" lengthAdjust="spacing" textLength="18" x="93.5" y="441.1387">11</text><text fill="#000000" font-family="sans-serif" font-size="13" lengthAdjust="spacing" textLength="217" x="115.5" y="441.1387">display the list of all candidates Id</text><polygon fill="#181818" points="87.5,471.1914,77.5,475.1914,87.5,479.1914,83.5,475.1914" style="stroke:#181818;stroke-width:1.0;"/><line style="stroke:#181818;stroke-width:1.0;" x1="81.5" x2="441.5" y1="475.1914" y2="475.1914"/><text fill="#000000" font-family="sans-serif" font-size="13" font-weight="bold" lengthAdjust="spacing" textLength="18" x="93.5" y="470.4492">12</text><text fill="#000000" font-family="sans-serif" font-size="13" lengthAdjust="spacing" textLength="193" x="115.5" y="470.4492">selects the Id of one candidate</text><polygon fill="#181818" points="642.5,500.502,652.5,504.502,642.5,508.502,646.5,504.502" style="stroke:#181818;stroke-width:1.0;"/><line style="stroke:#181818;stroke-width:1.0;" x1="452.5" x2="648.5" y1="504.502" y2="504.502"/><text fill="#000000" font-family="sans-serif" font-size="13" font-weight="bold" lengthAdjust="spacing" textLength="18" x="459.5" y="499.7598">13</text><text fill="#000000" font-family="sans-serif" font-size="13" lengthAdjust="spacing" textLength="73" x="481.5" y="499.7598">findByID(Id)</text><polygon fill="#181818" points="1145,529.8125,1155,533.8125,1145,537.8125,1149,533.8125" style="stroke:#181818;stroke-width:1.0;"/><line style="stroke:#181818;stroke-width:1.0;" x1="664.5" x2="1151" y1="533.8125" y2="533.8125"/><text fill="#000000" font-family="sans-serif" font-size="13" font-weight="bold" lengthAdjust="spacing" textLength="18" x="671.5" y="529.0703">14</text><text fill="#000000" font-family="sans-serif" font-size="13" lengthAdjust="spacing" textLength="71" x="693.5" y="529.0703">findById(id)</text><polygon fill="#181818" points="675.5,559.123,665.5,563.123,675.5,567.123,671.5,563.123" style="stroke:#181818;stroke-width:1.0;"/><line style="stroke:#181818;stroke-width:1.0;stroke-dasharray:2.0,2.0;" x1="669.5" x2="1161" y1="563.123" y2="563.123"/><text fill="#000000" font-family="sans-serif" font-size="13" font-weight="bold" lengthAdjust="spacing" textLength="18" x="681.5" y="558.3809">15</text><text fill="#000000" font-family="sans-serif" font-size="13" lengthAdjust="spacing" textLength="61" x="703.5" y="558.3809">candidate</text><polygon fill="#181818" points="463.5,588.4336,453.5,592.4336,463.5,596.4336,459.5,592.4336" style="stroke:#181818;stroke-width:1.0;"/><line style="stroke:#181818;stroke-width:1.0;stroke-dasharray:2.0,2.0;" x1="457.5" x2="658.5" y1="592.4336" y2="592.4336"/><text fill="#000000" font-family="sans-serif" font-size="13" font-weight="bold" lengthAdjust="spacing" textLength="18" x="469.5" y="587.6914">16</text><text fill="#000000" font-family="sans-serif" font-size="13" lengthAdjust="spacing" textLength="61" x="491.5" y="587.6914">candidate</text><polygon fill="#181818" points="87.5,617.7441,77.5,621.7441,87.5,625.7441,83.5,621.7441" style="stroke:#181818;stroke-width:1.0;"/><line style="stroke:#181818;stroke-width:1.0;stroke-dasharray:2.0,2.0;" x1="81.5" x2="441.5" y1="621.7441" y2="621.7441"/><text fill="#000000" font-family="sans-serif" font-size="13" font-weight="bold" lengthAdjust="spacing" textLength="18" x="93.5" y="617.002">17</text><text fill="#000000" font-family="sans-serif" font-size="13" lengthAdjust="spacing" textLength="320" x="115.5" y="617.002">display the personal data of the selected candidate</text><!--SRC=[ZLJ1Zfim4BtxA-RMzB3Izj83Gf6sMQt4eLBLA1ymmKDYnR6fxRJBttTi0XYMgCq1ONZlpPitG_n5cHOTNk5gZQtFpbu9WhkHyEER5kiBdcWVEatWg0veJZe7-3DA-qUP4pIeFGc1js3DxNea9qHGWMdxpWUwmfv-tSZK1AyAJv7w18SzV7b-_Yh4fxEI18sruMZV1TR1EjZTV617xZiQTk00FRp45u8B1rMh5arWBTzgx7Pef98Og3ADFLGHozUoR1rvCW63icQx_ITpPqrmLkk-MdOgIsnRhUereH_alE8EkRN8eFSGoTdJw6CwBTW_gRLUSLlTMsgxY-JXjYoR_ev9x16Fw0b6nnCrkLrvN9PkFB1435RzPiWzo7I5fordLR341O85sSS2g3L4rzQWXbWRR0C8zL1bqZfKGWZW7oVEMbDg1TIE6B7vd5wFX0cnIeCY5X_RyKplzJC84_A02nZxL8amgvSXUw6Soaf3seFV5T3Iu7qi2IZfSQMvvQbGeunyqNhfz2sJ7S2nzCfeHxCpxDBdE2w_j3gK4WkNQHkOgRaFCQTaSnFtkJ6wNw9YN9nmfaHE-y9BD5c0IefntWFDa-P_5PzebOmaQoXRCx6-8J70Rrtrkgbaol2HoVa0reEyQycDMcfzXFUYApBBwASE5Y4-qboPmKED_nx4XoyuFkmZ9vcd_1S0]--></g></svg>