<?xml version="1.0" encoding="us-ascii" standalone="no"?><svg xmlns="http://www.w3.org/2000/svg" xmlns:xlink="http://www.w3.org/1999/xlink" contentStyleType="text/css" height="1098px" preserveAspectRatio="none" style="width:1560px;height:1098px;background:#FFFFFF;" version="1.1" viewBox="0 0 1560 1098" width="1560px" zoomAndPan="magnify"><defs/><g><text fill="#000000" font-family="sans-serif" font-size="14" font-weight="bold" lengthAdjust="spacing" textLength="274" x="644.5" y="28.5352">System Sequence Diagram - US 2000c</text><rect fill="#FFFFFF" height="862.6953" style="stroke:#181818;stroke-width:1.0;" width="10" x="34" y="131.4648"/><rect fill="#FFFFFF" height="826.0742" style="stroke:#181818;stroke-width:1.0;" width="10" x="419" y="168.0859"/><rect fill="#FFFFFF" height="686.832" style="stroke:#181818;stroke-width:1.0;" width="10" x="632" y="226.707"/><rect fill="#FFFFFF" height="58.6211" style="stroke:#181818;stroke-width:1.0;" width="10" x="990" y="256.0176"/><rect fill="#FFFFFF" height="58.6211" style="stroke:#181818;stroke-width:1.0;" width="10" x="1141.5" y="343.9492"/><rect fill="#FFFFFF" height="58.6211" style="stroke:#181818;stroke-width:1.0;" width="10" x="1141.5" y="431.8809"/><rect fill="#FFFFFF" height="71.6211" style="stroke:#181818;stroke-width:1.0;" width="10" x="1294.5" y="544.123"/><rect fill="#FFFFFF" height="29.3105" style="stroke:#181818;stroke-width:1.0;" width="10" x="1459" y="805.6074"/><rect fill="none" height="379.7266" style="stroke:#000000;stroke-width:1.5;" width="1173" x="381" y="505.502"/><rect fill="none" height="104.2422" style="stroke:#000000;stroke-width:1.5;" width="993" x="391" y="630.7441"/><line style="stroke:#181818;stroke-width:0.5;stroke-dasharray:5.0,5.0;" x1="39" x2="39" y1="121.4648" y2="1003.1602"/><line style="stroke:#181818;stroke-width:0.5;stroke-dasharray:5.0,5.0;" x1="424" x2="424" y1="121.4648" y2="1003.1602"/><line style="stroke:#181818;stroke-width:0.5;stroke-dasharray:5.0,5.0;" x1="637" x2="637" y1="121.4648" y2="1003.1602"/><line style="stroke:#181818;stroke-width:0.5;stroke-dasharray:5.0,5.0;" x1="995" x2="995" y1="121.4648" y2="1003.1602"/><line style="stroke:#181818;stroke-width:0.5;stroke-dasharray:5.0,5.0;" x1="1146" x2="1146" y1="121.4648" y2="1003.1602"/><line style="stroke:#181818;stroke-width:0.5;stroke-dasharray:5.0,5.0;" x1="1299" x2="1299" y1="121.4648" y2="1003.1602"/><line style="stroke:#181818;stroke-width:0.5;stroke-dasharray:5.0,5.0;" x1="1464" x2="1464" y1="121.4648" y2="1003.1602"/><text fill="#000000" font-family="sans-serif" font-size="14" lengthAdjust="spacing" textLength="62" x="5" y="118.5117">Operator</text><ellipse cx="39" cy="53.4766" fill="#E3E3E3" rx="8" ry="8" style="stroke:#181818;stroke-width:0.5;"/><path d="M39,61.4766 L39,88.4766 M26,69.4766 L52,69.4766 M39,88.4766 L26,103.4766 M39,88.4766 L52,103.4766 " fill="none" style="stroke:#181818;stroke-width:0.5;"/><text fill="#000000" font-family="sans-serif" font-size="14" lengthAdjust="spacing" textLength="62" x="5" y="1015.6953">Operator</text><ellipse cx="39" cy="1027.1484" fill="#E3E3E3" rx="8" ry="8" style="stroke:#181818;stroke-width:0.5;"/><path d="M39,1035.1484 L39,1062.1484 M26,1043.1484 L52,1043.1484 M39,1062.1484 L26,1077.1484 M39,1062.1484 L52,1077.1484 " fill="none" style="stroke:#181818;stroke-width:0.5;"/><rect fill="#E3E3E3" height="46.9766" rx="2.5" ry="2.5" style="stroke:#181818;stroke-width:0.5;" width="168" x="340" y="73.4883"/><text fill="#000000" font-family="sans-serif" font-size="14" font-style="italic" lengthAdjust="spacing" textLength="101" x="373.5" y="94.0234">&#171;presentation&#187;</text><text fill="#000000" font-family="sans-serif" font-size="14" lengthAdjust="spacing" textLength="154" x="347" y="110.5117">RegisterAtmCandidate</text><rect fill="#E3E3E3" height="46.9766" rx="2.5" ry="2.5" style="stroke:#181818;stroke-width:0.5;" width="168" x="340" y="1002.1602"/><text fill="#000000" font-family="sans-serif" font-size="14" font-style="italic" lengthAdjust="spacing" textLength="101" x="373.5" y="1022.6953">&#171;presentation&#187;</text><text fill="#000000" font-family="sans-serif" font-size="14" lengthAdjust="spacing" textLength="154" x="347" y="1039.1836">RegisterAtmCandidate</text><rect fill="#E3E3E3" height="46.9766" rx="2.5" ry="2.5" style="stroke:#181818;stroke-width:0.5;" width="238" x="518" y="73.4883"/><text fill="#000000" font-family="sans-serif" font-size="14" font-style="italic" lengthAdjust="spacing" textLength="90" x="592" y="94.0234">&#171;application&#187;</text><text fill="#000000" font-family="sans-serif" font-size="14" lengthAdjust="spacing" textLength="224" x="525" y="110.5117">RegisterAtmCandidateController</text><rect fill="#E3E3E3" height="46.9766" rx="2.5" ry="2.5" style="stroke:#181818;stroke-width:0.5;" width="238" x="518" y="1002.1602"/><text fill="#000000" font-family="sans-serif" font-size="14" font-style="italic" lengthAdjust="spacing" textLength="90" x="592" y="1022.6953">&#171;application&#187;</text><text fill="#000000" font-family="sans-serif" font-size="14" lengthAdjust="spacing" textLength="224" x="525" y="1039.1836">RegisterAtmCandidateController</text><rect fill="#E3E3E3" height="46.9766" rx="2.5" ry="2.5" style="stroke:#181818;stroke-width:0.5;" width="146" x="922" y="73.4883"/><text fill="#000000" font-family="sans-serif" font-size="14" font-style="italic" lengthAdjust="spacing" textLength="92" x="949" y="94.0234">&#171;persistence&#187;</text><text fill="#000000" font-family="sans-serif" font-size="14" lengthAdjust="spacing" textLength="132" x="929" y="110.5117">PersistenceContext</text><rect fill="#E3E3E3" height="46.9766" rx="2.5" ry="2.5" style="stroke:#181818;stroke-width:0.5;" width="146" x="922" y="1002.1602"/><text fill="#000000" font-family="sans-serif" font-size="14" font-style="italic" lengthAdjust="spacing" textLength="92" x="949" y="1022.6953">&#171;persistence&#187;</text><text fill="#000000" font-family="sans-serif" font-size="14" lengthAdjust="spacing" textLength="132" x="929" y="1039.1836">PersistenceContext</text><rect fill="#E3E3E3" height="46.9766" rx="2.5" ry="2.5" style="stroke:#181818;stroke-width:0.5;" width="137" x="1078" y="73.4883"/><text fill="#000000" font-family="sans-serif" font-size="14" font-style="italic" lengthAdjust="spacing" textLength="61" x="1116" y="94.0234">&#171;factory&#187;</text><text fill="#000000" font-family="sans-serif" font-size="14" lengthAdjust="spacing" textLength="123" x="1085" y="110.5117">RepositoryFactory</text><rect fill="#E3E3E3" height="46.9766" rx="2.5" ry="2.5" style="stroke:#181818;stroke-width:0.5;" width="137" x="1078" y="1002.1602"/><text fill="#000000" font-family="sans-serif" font-size="14" font-style="italic" lengthAdjust="spacing" textLength="61" x="1116" y="1022.6953">&#171;factory&#187;</text><text fill="#000000" font-family="sans-serif" font-size="14" lengthAdjust="spacing" textLength="123" x="1085" y="1039.1836">RepositoryFactory</text><text fill="#000000" font-family="sans-serif" font-size="14" font-style="italic" lengthAdjust="spacing" textLength="84" x="1254.5" y="102.0234">&#171;repository&#187;</text><text fill="#000000" font-family="sans-serif" font-size="14" lengthAdjust="spacing" textLength="143" x="1225" y="118.5117">CandidateRepository</text><path d="M1281.5,52.4883 C1281.5,42.4883 1299.5,42.4883 1299.5,42.4883 C1299.5,42.4883 1317.5,42.4883 1317.5,52.4883 L1317.5,78.4883 C1317.5,88.4883 1299.5,88.4883 1299.5,88.4883 C1299.5,88.4883 1281.5,88.4883 1281.5,78.4883 L1281.5,52.4883 " fill="#E3E3E3" style="stroke:#181818;stroke-width:1.5;"/><path d="M1281.5,52.4883 C1281.5,62.4883 1299.5,62.4883 1299.5,62.4883 C1299.5,62.4883 1317.5,62.4883 1317.5,52.4883 " fill="none" style="stroke:#181818;stroke-width:1.5;"/><text fill="#000000" font-family="sans-serif" font-size="14" font-style="italic" lengthAdjust="spacing" textLength="84" x="1254.5" y="1015.6953">&#171;repository&#187;</text><text fill="#000000" font-family="sans-serif" font-size="14" lengthAdjust="spacing" textLength="143" x="1225" y="1032.1836">CandidateRepository</text><path d="M1281.5,1045.1367 C1281.5,1035.1367 1299.5,1035.1367 1299.5,1035.1367 C1299.5,1035.1367 1317.5,1035.1367 1317.5,1045.1367 L1317.5,1071.1367 C1317.5,1081.1367 1299.5,1081.1367 1299.5,1081.1367 C1299.5,1081.1367 1281.5,1081.1367 1281.5,1071.1367 L1281.5,1045.1367 " fill="#E3E3E3" style="stroke:#181818;stroke-width:1.5;"/><path d="M1281.5,1045.1367 C1281.5,1055.1367 1299.5,1055.1367 1299.5,1055.1367 C1299.5,1055.1367 1317.5,1055.1367 1317.5,1045.1367 " fill="none" style="stroke:#181818;stroke-width:1.5;"/><text fill="#000000" font-family="sans-serif" font-size="14" font-style="italic" lengthAdjust="spacing" textLength="84" x="1419" y="102.0234">&#171;repository&#187;</text><text fill="#000000" font-family="sans-serif" font-size="14" lengthAdjust="spacing" textLength="154" x="1384" y="118.5117">JobOpeningRepository</text><path d="M1446,52.4883 C1446,42.4883 1464,42.4883 1464,42.4883 C1464,42.4883 1482,42.4883 1482,52.4883 L1482,78.4883 C1482,88.4883 1464,88.4883 1464,88.4883 C1464,88.4883 1446,88.4883 1446,78.4883 L1446,52.4883 " fill="#E3E3E3" style="stroke:#181818;stroke-width:1.5;"/><path d="M1446,52.4883 C1446,62.4883 1464,62.4883 1464,62.4883 C1464,62.4883 1482,62.4883 1482,52.4883 " fill="none" style="stroke:#181818;stroke-width:1.5;"/><text fill="#000000" font-family="sans-serif" font-size="14" font-style="italic" lengthAdjust="spacing" textLength="84" x="1419" y="1015.6953">&#171;repository&#187;</text><text fill="#000000" font-family="sans-serif" font-size="14" lengthAdjust="spacing" textLength="154" x="1384" y="1032.1836">JobOpeningRepository</text><path d="M1446,1045.1367 C1446,1035.1367 1464,1035.1367 1464,1035.1367 C1464,1035.1367 1482,1035.1367 1482,1045.1367 L1482,1071.1367 C1482,1081.1367 1464,1081.1367 1464,1081.1367 C1464,1081.1367 1446,1081.1367 1446,1071.1367 L1446,1045.1367 " fill="#E3E3E3" style="stroke:#181818;stroke-width:1.5;"/><path d="M1446,1045.1367 C1446,1055.1367 1464,1055.1367 1464,1055.1367 C1464,1055.1367 1482,1055.1367 1482,1045.1367 " fill="none" style="stroke:#181818;stroke-width:1.5;"/><rect fill="#FFFFFF" height="862.6953" style="stroke:#181818;stroke-width:1.0;" width="10" x="34" y="131.4648"/><rect fill="#FFFFFF" height="826.0742" style="stroke:#181818;stroke-width:1.0;" width="10" x="419" y="168.0859"/><rect fill="#FFFFFF" height="686.832" style="stroke:#181818;stroke-width:1.0;" width="10" x="632" y="226.707"/><rect fill="#FFFFFF" height="58.6211" style="stroke:#181818;stroke-width:1.0;" width="10" x="990" y="256.0176"/><rect fill="#FFFFFF" height="58.6211" style="stroke:#181818;stroke-width:1.0;" width="10" x="1141.5" y="343.9492"/><rect fill="#FFFFFF" height="58.6211" style="stroke:#181818;stroke-width:1.0;" width="10" x="1141.5" y="431.8809"/><rect fill="#FFFFFF" height="71.6211" style="stroke:#181818;stroke-width:1.0;" width="10" x="1294.5" y="544.123"/><rect fill="#FFFFFF" height="29.3105" style="stroke:#181818;stroke-width:1.0;" width="10" x="1459" y="805.6074"/><polygon fill="#181818" points="407,164.0859,417,168.0859,407,172.0859,411,168.0859" style="stroke:#181818;stroke-width:1.0;"/><line style="stroke:#181818;stroke-width:1.0;" x1="44" x2="413" y1="168.0859" y2="168.0859"/><text fill="#000000" font-family="sans-serif" font-size="13" font-weight="bold" lengthAdjust="spacing" textLength="9" x="51" y="155.6885">1</text><text fill="#000000" font-family="sans-serif" font-size="13" lengthAdjust="spacing" textLength="176" x="64" y="148.0332">ask to import all candidates</text><text fill="#000000" font-family="sans-serif" font-size="13" lengthAdjust="spacing" textLength="141" x="64" y="163.3438">from the shared folder</text><polygon fill="#181818" points="625,193.3965,635,197.3965,625,201.3965,629,197.3965" style="stroke:#181818;stroke-width:1.0;"/><line style="stroke:#181818;stroke-width:1.0;" x1="429" x2="631" y1="197.3965" y2="197.3965"/><text fill="#000000" font-family="sans-serif" font-size="13" font-weight="bold" lengthAdjust="spacing" textLength="9" x="436" y="192.6543">2</text><text fill="#000000" font-family="sans-serif" font-size="13" lengthAdjust="spacing" textLength="46" x="449" y="192.6543">create()</text><polygon fill="#181818" points="620,222.707,630,226.707,620,230.707,624,226.707" style="stroke:#181818;stroke-width:1.0;"/><line style="stroke:#181818;stroke-width:1.0;" x1="429" x2="626" y1="226.707" y2="226.707"/><text fill="#000000" font-family="sans-serif" font-size="13" font-weight="bold" lengthAdjust="spacing" textLength="9" x="436" y="221.9648">3</text><text fill="#000000" font-family="sans-serif" font-size="13" lengthAdjust="spacing" textLength="137" x="449" y="221.9648">importAllCandidates()</text><polygon fill="#181818" points="978,252.0176,988,256.0176,978,260.0176,982,256.0176" style="stroke:#181818;stroke-width:1.0;"/><line style="stroke:#181818;stroke-width:1.0;" x1="642" x2="984" y1="256.0176" y2="256.0176"/><text fill="#000000" font-family="sans-serif" font-size="13" font-weight="bold" lengthAdjust="spacing" textLength="9" x="649" y="251.2754">4</text><text fill="#000000" font-family="sans-serif" font-size="13" lengthAdjust="spacing" textLength="83" x="662" y="251.2754">repositories()</text><polygon fill="#181818" points="1134.5,281.3281,1144.5,285.3281,1134.5,289.3281,1138.5,285.3281" style="stroke:#181818;stroke-width:1.0;"/><line style="stroke:#181818;stroke-width:1.0;" x1="1000" x2="1140.5" y1="285.3281" y2="285.3281"/><text fill="#000000" font-family="sans-serif" font-size="13" font-weight="bold" lengthAdjust="spacing" textLength="9" x="1007" y="280.5859">5</text><text fill="#000000" font-family="sans-serif" font-size="13" lengthAdjust="spacing" textLength="38" x="1020" y="280.5859">create</text><polygon fill="#181818" points="653,310.6387,643,314.6387,653,318.6387,649,314.6387" style="stroke:#181818;stroke-width:1.0;"/><line style="stroke:#181818;stroke-width:1.0;stroke-dasharray:2.0,2.0;" x1="647" x2="994" y1="314.6387" y2="314.6387"/><text fill="#000000" font-family="sans-serif" font-size="13" font-weight="bold" lengthAdjust="spacing" textLength="9" x="659" y="309.8965">6</text><text fill="#000000" font-family="sans-serif" font-size="13" lengthAdjust="spacing" textLength="44" x="672" y="309.8965">factory</text><polygon fill="#181818" points="1129.5,339.9492,1139.5,343.9492,1129.5,347.9492,1133.5,343.9492" style="stroke:#181818;stroke-width:1.0;"/><line style="stroke:#181818;stroke-width:1.0;" x1="642" x2="1135.5" y1="343.9492" y2="343.9492"/><text fill="#000000" font-family="sans-serif" font-size="13" font-weight="bold" lengthAdjust="spacing" textLength="9" x="649" y="339.207">7</text><text fill="#000000" font-family="sans-serif" font-size="13" lengthAdjust="spacing" textLength="76" x="662" y="339.207">candidates()</text><polygon fill="#181818" points="1287.5,369.2598,1297.5,373.2598,1287.5,377.2598,1291.5,373.2598" style="stroke:#181818;stroke-width:1.0;"/><line style="stroke:#181818;stroke-width:1.0;" x1="1151.5" x2="1293.5" y1="373.2598" y2="373.2598"/><text fill="#000000" font-family="sans-serif" font-size="13" font-weight="bold" lengthAdjust="spacing" textLength="9" x="1158.5" y="368.5176">8</text><text fill="#000000" font-family="sans-serif" font-size="13" lengthAdjust="spacing" textLength="38" x="1171.5" y="368.5176">create</text><polygon fill="#181818" points="653,398.5703,643,402.5703,653,406.5703,649,402.5703" style="stroke:#181818;stroke-width:1.0;"/><line style="stroke:#181818;stroke-width:1.0;stroke-dasharray:2.0,2.0;" x1="647" x2="1145.5" y1="402.5703" y2="402.5703"/><text fill="#000000" font-family="sans-serif" font-size="13" font-weight="bold" lengthAdjust="spacing" textLength="9" x="659" y="397.8281">9</text><text fill="#000000" font-family="sans-serif" font-size="13" lengthAdjust="spacing" textLength="128" x="672" y="397.8281">candidateRepository</text><polygon fill="#181818" points="1129.5,427.8809,1139.5,431.8809,1129.5,435.8809,1133.5,431.8809" style="stroke:#181818;stroke-width:1.0;"/><line style="stroke:#181818;stroke-width:1.0;" x1="642" x2="1135.5" y1="431.8809" y2="431.8809"/><text fill="#000000" font-family="sans-serif" font-size="13" font-weight="bold" lengthAdjust="spacing" textLength="18" x="649" y="427.1387">10</text><text fill="#000000" font-family="sans-serif" font-size="13" lengthAdjust="spacing" textLength="86" x="671" y="427.1387">jobopenings()</text><polygon fill="#181818" points="1452,457.1914,1462,461.1914,1452,465.1914,1456,461.1914" style="stroke:#181818;stroke-width:1.0;"/><line style="stroke:#181818;stroke-width:1.0;" x1="1151.5" x2="1458" y1="461.1914" y2="461.1914"/><text fill="#000000" font-family="sans-serif" font-size="13" font-weight="bold" lengthAdjust="spacing" textLength="18" x="1158.5" y="456.4492">11</text><text fill="#000000" font-family="sans-serif" font-size="13" lengthAdjust="spacing" textLength="38" x="1180.5" y="456.4492">create</text><polygon fill="#181818" points="653,486.502,643,490.502,653,494.502,649,490.502" style="stroke:#181818;stroke-width:1.0;"/><line style="stroke:#181818;stroke-width:1.0;stroke-dasharray:2.0,2.0;" x1="647" x2="1145.5" y1="490.502" y2="490.502"/><text fill="#000000" font-family="sans-serif" font-size="13" font-weight="bold" lengthAdjust="spacing" textLength="18" x="659" y="485.7598">12</text><text fill="#000000" font-family="sans-serif" font-size="13" lengthAdjust="spacing" textLength="140" x="681" y="485.7598">jobOpeningRepository</text><path d="M381,505.502 L455,505.502 L455,512.8125 L445,522.8125 L381,522.8125 L381,505.502 " fill="#EEEEEE" style="stroke:#000000;stroke-width:1.5;"/><rect fill="none" height="379.7266" style="stroke:#000000;stroke-width:1.5;" width="1173" x="381" y="505.502"/><text fill="#000000" font-family="sans-serif" font-size="13" font-weight="bold" lengthAdjust="spacing" textLength="29" x="396" y="519.0703">loop</text><text fill="#000000" font-family="sans-serif" font-size="11" font-weight="bold" lengthAdjust="spacing" textLength="178" x="470" y="518.1367">[for each candidate in each file]</text><polygon fill="#181818" points="1282.5,540.123,1292.5,544.123,1282.5,548.123,1286.5,544.123" style="stroke:#181818;stroke-width:1.0;"/><line style="stroke:#181818;stroke-width:1.0;" x1="642" x2="1288.5" y1="544.123" y2="544.123"/><text fill="#000000" font-family="sans-serif" font-size="13" font-weight="bold" lengthAdjust="spacing" textLength="18" x="649" y="539.3809">13</text><text fill="#000000" font-family="sans-serif" font-size="13" lengthAdjust="spacing" textLength="80" x="671" y="539.3809">exists(email)</text><line style="stroke:#181818;stroke-width:1.0;" x1="1304.5" x2="1346.5" y1="573.4336" y2="573.4336"/><line style="stroke:#181818;stroke-width:1.0;" x1="1346.5" x2="1346.5" y1="573.4336" y2="586.4336"/><line style="stroke:#181818;stroke-width:1.0;" x1="1305.5" x2="1346.5" y1="586.4336" y2="586.4336"/><polygon fill="#181818" points="1315.5,582.4336,1305.5,586.4336,1315.5,590.4336,1311.5,586.4336" style="stroke:#181818;stroke-width:1.0;"/><text fill="#000000" font-family="sans-serif" font-size="13" font-weight="bold" lengthAdjust="spacing" textLength="18" x="1311.5" y="568.6914">14</text><text fill="#000000" font-family="sans-serif" font-size="13" lengthAdjust="spacing" textLength="115" x="1333.5" y="568.6914">findByEmail(email)</text><polygon fill="#181818" points="653,611.7441,643,615.7441,653,619.7441,649,615.7441" style="stroke:#181818;stroke-width:1.0;"/><line style="stroke:#181818;stroke-width:1.0;stroke-dasharray:2.0,2.0;" x1="647" x2="1298.5" y1="615.7441" y2="615.7441"/><text fill="#000000" font-family="sans-serif" font-size="13" font-weight="bold" lengthAdjust="spacing" textLength="18" x="659" y="611.002">15</text><text fill="#000000" font-family="sans-serif" font-size="13" lengthAdjust="spacing" textLength="62" x="681" y="611.002">true/false</text><path d="M391,630.7441 L453,630.7441 L453,638.0547 L443,648.0547 L391,648.0547 L391,630.7441 " fill="#EEEEEE" style="stroke:#000000;stroke-width:1.5;"/><rect fill="none" height="104.2422" style="stroke:#000000;stroke-width:1.5;" width="993" x="391" y="630.7441"/><text fill="#000000" font-family="sans-serif" font-size="13" font-weight="bold" lengthAdjust="spacing" textLength="17" x="406" y="644.3125">alt</text><text fill="#000000" font-family="sans-serif" font-size="11" font-weight="bold" lengthAdjust="spacing" textLength="143" x="468" y="643.3789">[candidate does not exist]</text><line style="stroke:#181818;stroke-width:1.0;" x1="642" x2="684" y1="684.6758" y2="684.6758"/><line style="stroke:#181818;stroke-width:1.0;" x1="684" x2="684" y1="684.6758" y2="697.6758"/><line style="stroke:#181818;stroke-width:1.0;" x1="643" x2="684" y1="697.6758" y2="697.6758"/><polygon fill="#181818" points="653,693.6758,643,697.6758,653,701.6758,649,697.6758" style="stroke:#181818;stroke-width:1.0;"/><text fill="#000000" font-family="sans-serif" font-size="13" font-weight="bold" lengthAdjust="spacing" textLength="18" x="649" y="672.2783">16</text><text fill="#000000" font-family="sans-serif" font-size="13" lengthAdjust="spacing" textLength="308" x="671" y="664.623">createCandidate(username, password, firstName,</text><text fill="#000000" font-family="sans-serif" font-size="13" lengthAdjust="spacing" textLength="241" x="671" y="679.9336">lastName, email, roles, phoneNumber)</text><path d="M401,656.5547 L401,696.5547 L627,696.5547 L627,666.5547 L617,656.5547 L401,656.5547 " fill="#FAFAFA" style="stroke:#181818;stroke-width:0.5;"/><path d="M617,656.5547 L617,666.5547 L627,666.5547 L617,656.5547 " fill="#FAFAFA" style="stroke:#181818;stroke-width:0.5;"/><text fill="#000000" font-family="sans-serif" font-size="13" lengthAdjust="spacing" textLength="196" x="407" y="674.123">the creation of the candidate is</text><text fill="#000000" font-family="sans-serif" font-size="13" lengthAdjust="spacing" textLength="205" x="407" y="689.4336">the same as the one in US 2000a</text><polygon fill="#181818" points="1287.5,722.9863,1297.5,726.9863,1287.5,730.9863,1291.5,726.9863" style="stroke:#181818;stroke-width:1.0;"/><line style="stroke:#181818;stroke-width:1.0;" x1="642" x2="1293.5" y1="726.9863" y2="726.9863"/><text fill="#000000" font-family="sans-serif" font-size="13" font-weight="bold" lengthAdjust="spacing" textLength="18" x="649" y="722.2441">17</text><text fill="#000000" font-family="sans-serif" font-size="13" lengthAdjust="spacing" textLength="97" x="671" y="722.2441">save(candidate)</text><line style="stroke:#181818;stroke-width:1.0;" x1="642" x2="684" y1="763.2969" y2="763.2969"/><line style="stroke:#181818;stroke-width:1.0;" x1="684" x2="684" y1="763.2969" y2="776.2969"/><line style="stroke:#181818;stroke-width:1.0;" x1="643" x2="684" y1="776.2969" y2="776.2969"/><polygon fill="#181818" points="653,772.2969,643,776.2969,653,780.2969,649,776.2969" style="stroke:#181818;stroke-width:1.0;"/><text fill="#000000" font-family="sans-serif" font-size="13" font-weight="bold" lengthAdjust="spacing" textLength="18" x="649" y="758.5547">18</text><text fill="#000000" font-family="sans-serif" font-size="13" lengthAdjust="spacing" textLength="61" x="671" y="758.5547">candidate</text><polygon fill="#181818" points="1447,801.6074,1457,805.6074,1447,809.6074,1451,805.6074" style="stroke:#181818;stroke-width:1.0;"/><line style="stroke:#181818;stroke-width:1.0;" x1="642" x2="1453" y1="805.6074" y2="805.6074"/><text fill="#000000" font-family="sans-serif" font-size="13" font-weight="bold" lengthAdjust="spacing" textLength="18" x="649" y="800.8652">19</text><text fill="#000000" font-family="sans-serif" font-size="13" lengthAdjust="spacing" textLength="242" x="671" y="800.8652">findByReference(jobOpeningReference)</text><polygon fill="#181818" points="653,830.918,643,834.918,653,838.918,649,834.918" style="stroke:#181818;stroke-width:1.0;"/><line style="stroke:#181818;stroke-width:1.0;" x1="647" x2="1463" y1="834.918" y2="834.918"/><text fill="#000000" font-family="sans-serif" font-size="13" font-weight="bold" lengthAdjust="spacing" textLength="18" x="659" y="830.1758">20</text><text fill="#000000" font-family="sans-serif" font-size="13" lengthAdjust="spacing" textLength="73" x="681" y="830.1758">jobOpening</text><line style="stroke:#181818;stroke-width:1.0;" x1="642" x2="684" y1="864.2285" y2="864.2285"/><line style="stroke:#181818;stroke-width:1.0;" x1="684" x2="684" y1="864.2285" y2="877.2285"/><line style="stroke:#181818;stroke-width:1.0;" x1="643" x2="684" y1="877.2285" y2="877.2285"/><polygon fill="#181818" points="653,873.2285,643,877.2285,653,881.2285,649,877.2285" style="stroke:#181818;stroke-width:1.0;"/><text fill="#000000" font-family="sans-serif" font-size="13" font-weight="bold" lengthAdjust="spacing" textLength="18" x="649" y="859.4863">21</text><text fill="#000000" font-family="sans-serif" font-size="13" lengthAdjust="spacing" textLength="280" x="671" y="859.4863">createJobApplication(candidate, jobOpening)</text><polygon fill="#181818" points="440,909.5391,430,913.5391,440,917.5391,436,913.5391" style="stroke:#181818;stroke-width:1.0;"/><line style="stroke:#181818;stroke-width:1.0;stroke-dasharray:2.0,2.0;" x1="434" x2="636" y1="913.5391" y2="913.5391"/><text fill="#000000" font-family="sans-serif" font-size="13" font-weight="bold" lengthAdjust="spacing" textLength="18" x="446" y="908.7969">22</text><text fill="#000000" font-family="sans-serif" font-size="13" lengthAdjust="spacing" textLength="4" x="468" y="908.7969">&#160;</text><line style="stroke:#181818;stroke-width:1.0;" x1="429" x2="471" y1="942.8496" y2="942.8496"/><line style="stroke:#181818;stroke-width:1.0;" x1="471" x2="471" y1="942.8496" y2="955.8496"/><line style="stroke:#181818;stroke-width:1.0;" x1="430" x2="471" y1="955.8496" y2="955.8496"/><polygon fill="#181818" points="440,951.8496,430,955.8496,440,959.8496,436,955.8496" style="stroke:#181818;stroke-width:1.0;"/><text fill="#000000" font-family="sans-serif" font-size="13" font-weight="bold" lengthAdjust="spacing" textLength="18" x="436" y="938.1074">23</text><text fill="#000000" font-family="sans-serif" font-size="13" lengthAdjust="spacing" textLength="41" x="458" y="938.1074">show()</text><polygon fill="#181818" points="55,981.1602,45,985.1602,55,989.1602,51,985.1602" style="stroke:#181818;stroke-width:1.0;"/><line style="stroke:#181818;stroke-width:1.0;stroke-dasharray:2.0,2.0;" x1="49" x2="418" y1="985.1602" y2="985.1602"/><text fill="#000000" font-family="sans-serif" font-size="13" font-weight="bold" lengthAdjust="spacing" textLength="18" x="61" y="980.418">24</text><text fill="#000000" font-family="sans-serif" font-size="13" lengthAdjust="spacing" textLength="329" x="83" y="980.418">shows a sucess message for all applications created</text><!--SRC=[bLR1Rjim3BthAtXR2cHOiMDX5CYw5UWEtT2WjruKcqxKof8dAMtpzwFaM9OTETrwI2MAVEGZAT7sHQYM6zv0evKkTqOt2CxiaTbuqlBoXMznxGuImM3fkDhALC7kUANVXDf2pQL5nlZUQRLlDcWOSyAHsVfW7JQmnZzxL2N2Ty6ttlGpFAxXw-NbPSdOfvse46gjtKQ_CruwRU1NYuRx1RUmyX96BfqeHSkLWmVS2i8rAzVSS5M9YZlqceztK1IjGOlASIUqkhx-qEv6AsUqb1Xy9RkYu6qhHPa3-et6UYIYv2tmtNdZHEhZ67OdORJQ2Y9rk0ri3zwuNnP5tQt8YEBZ6suHOhI3QOWs8ouA4pSfn4-zeQGggjOO8okVWFYYY5UVvAuMBFo3pzUKyIi2UG6dGJIjDfG7AQ7iuxBmf6hgBN0xzErYiA92oueQ948-tZ46z4V58y2X05TG6YI5nSNCSUTm9MLCWptgHkn1dNLEaleIMbgmAuYKHGGQWINQB9wc48JOLx4FFgyt8aAwnuf7vGhFEnspI7nE4p6A_wWtmFI6FfnC9vrmYFhJ-CjJwnoNsmdD3_aywutkUlE_2MNR-jyPFMVCpr4APrBhbjhR09tlXgI0K9sa5X9dEEVpZ-zKUhl0XWkPuPynIdeaWpZhg1Qg-dRuuVrClMLnfkdoa-DBDmGoIJeR9vSkILMbwSrGsdNK1wrCnaOD6CeQ_Ips5etY3IvfY5dxfasr98x6kliWV5AIz-j0Tma4XPRKTrhXVHXX5oFd51E2nDgDfFvP2xvfH82kk_rGTtkYRCcdVtNzcZpvrZWEGZxIHLK5bsSpa2sbvQ-uY34C90XnxW79t-KvxPcRrRNG0zPe_6ErI6_GKPPfuHpOu3ZhQlwgvdhll8CFMuhCLyDNm93NPUAsezNdDuKC0vAmsEG-95CfJhQWQ7VwZLwwNahYRj9s9nOus7s9ra93F_Hj5buRFt6JJnLx39t2-Gi0]--></g></svg>