<?xml version="1.0" encoding="us-ascii" standalone="no"?><svg xmlns="http://www.w3.org/2000/svg" xmlns:xlink="http://www.w3.org/1999/xlink" contentStyleType="text/css" height="601px" preserveAspectRatio="none" style="width:1066px;height:601px;background:#FFFFFF;" version="1.1" viewBox="0 0 1066 601" width="1066px" zoomAndPan="magnify"><defs/><g><text fill="#000000" font-family="sans-serif" font-size="14" font-weight="bold" lengthAdjust="spacing" textLength="274" x="397.5" y="28.5352">System Sequence Diagram - US 2000c</text><rect fill="#FFFFFF" height="365.7266" style="stroke:#181818;stroke-width:1.0;" width="10" x="34" y="131.4648"/><rect fill="#FFFFFF" height="344.416" style="stroke:#181818;stroke-width:1.0;" width="10" x="315" y="152.7754"/><rect fill="#FFFFFF" height="205.1738" style="stroke:#181818;stroke-width:1.0;" width="10" x="506" y="211.3965"/><rect fill="#FFFFFF" height="58.6211" style="stroke:#181818;stroke-width:1.0;" width="10" x="681" y="240.707"/><rect fill="#FFFFFF" height="58.6211" style="stroke:#181818;stroke-width:1.0;" width="10" x="832.5" y="328.6387"/><line style="stroke:#181818;stroke-width:0.5;stroke-dasharray:5.0,5.0;" x1="39" x2="39" y1="121.4648" y2="506.1914"/><line style="stroke:#181818;stroke-width:0.5;stroke-dasharray:5.0,5.0;" x1="320" x2="320" y1="121.4648" y2="506.1914"/><line style="stroke:#181818;stroke-width:0.5;stroke-dasharray:5.0,5.0;" x1="511" x2="511" y1="121.4648" y2="506.1914"/><line style="stroke:#181818;stroke-width:0.5;stroke-dasharray:5.0,5.0;" x1="686" x2="686" y1="121.4648" y2="506.1914"/><line style="stroke:#181818;stroke-width:0.5;stroke-dasharray:5.0,5.0;" x1="837" x2="837" y1="121.4648" y2="506.1914"/><line style="stroke:#181818;stroke-width:0.5;stroke-dasharray:5.0,5.0;" x1="990" x2="990" y1="121.4648" y2="506.1914"/><text fill="#000000" font-family="sans-serif" font-size="14" lengthAdjust="spacing" textLength="62" x="5" y="118.5117">Operator</text><ellipse cx="39" cy="53.4766" fill="#E3E3E3" rx="8" ry="8" style="stroke:#181818;stroke-width:0.5;"/><path d="M39,61.4766 L39,88.4766 M26,69.4766 L52,69.4766 M39,88.4766 L26,103.4766 M39,88.4766 L52,103.4766 " fill="none" style="stroke:#181818;stroke-width:0.5;"/><text fill="#000000" font-family="sans-serif" font-size="14" lengthAdjust="spacing" textLength="62" x="5" y="518.7266">Operator</text><ellipse cx="39" cy="530.1797" fill="#E3E3E3" rx="8" ry="8" style="stroke:#181818;stroke-width:0.5;"/><path d="M39,538.1797 L39,565.1797 M26,546.1797 L52,546.1797 M39,565.1797 L26,580.1797 M39,565.1797 L52,580.1797 " fill="none" style="stroke:#181818;stroke-width:0.5;"/><rect fill="#E3E3E3" height="46.9766" rx="2.5" ry="2.5" style="stroke:#181818;stroke-width:0.5;" width="128" x="256" y="73.4883"/><text fill="#000000" font-family="sans-serif" font-size="14" font-style="italic" lengthAdjust="spacing" textLength="101" x="269.5" y="94.0234">&#171;presentation&#187;</text><text fill="#000000" font-family="sans-serif" font-size="14" lengthAdjust="spacing" textLength="114" x="263" y="110.5117">ListCandidatesUI</text><rect fill="#E3E3E3" height="46.9766" rx="2.5" ry="2.5" style="stroke:#181818;stroke-width:0.5;" width="128" x="256" y="505.1914"/><text fill="#000000" font-family="sans-serif" font-size="14" font-style="italic" lengthAdjust="spacing" textLength="101" x="269.5" y="525.7266">&#171;presentation&#187;</text><text fill="#000000" font-family="sans-serif" font-size="14" lengthAdjust="spacing" textLength="114" x="263" y="542.2148">ListCandidatesUI</text><rect fill="#E3E3E3" height="46.9766" rx="2.5" ry="2.5" style="stroke:#181818;stroke-width:0.5;" width="184" x="419" y="73.4883"/><text fill="#000000" font-family="sans-serif" font-size="14" font-style="italic" lengthAdjust="spacing" textLength="90" x="466" y="94.0234">&#171;application&#187;</text><text fill="#000000" font-family="sans-serif" font-size="14" lengthAdjust="spacing" textLength="170" x="426" y="110.5117">ListCandidatesController</text><rect fill="#E3E3E3" height="46.9766" rx="2.5" ry="2.5" style="stroke:#181818;stroke-width:0.5;" width="184" x="419" y="505.1914"/><text fill="#000000" font-family="sans-serif" font-size="14" font-style="italic" lengthAdjust="spacing" textLength="90" x="466" y="525.7266">&#171;application&#187;</text><text fill="#000000" font-family="sans-serif" font-size="14" lengthAdjust="spacing" textLength="170" x="426" y="542.2148">ListCandidatesController</text><rect fill="#E3E3E3" height="46.9766" rx="2.5" ry="2.5" style="stroke:#181818;stroke-width:0.5;" width="146" x="613" y="73.4883"/><text fill="#000000" font-family="sans-serif" font-size="14" font-style="italic" lengthAdjust="spacing" textLength="92" x="640" y="94.0234">&#171;persistence&#187;</text><text fill="#000000" font-family="sans-serif" font-size="14" lengthAdjust="spacing" textLength="132" x="620" y="110.5117">PersistenceContext</text><rect fill="#E3E3E3" height="46.9766" rx="2.5" ry="2.5" style="stroke:#181818;stroke-width:0.5;" width="146" x="613" y="505.1914"/><text fill="#000000" font-family="sans-serif" font-size="14" font-style="italic" lengthAdjust="spacing" textLength="92" x="640" y="525.7266">&#171;persistence&#187;</text><text fill="#000000" font-family="sans-serif" font-size="14" lengthAdjust="spacing" textLength="132" x="620" y="542.2148">PersistenceContext</text><rect fill="#E3E3E3" height="46.9766" rx="2.5" ry="2.5" style="stroke:#181818;stroke-width:0.5;" width="137" x="769" y="73.4883"/><text fill="#000000" font-family="sans-serif" font-size="14" font-style="italic" lengthAdjust="spacing" textLength="61" x="807" y="94.0234">&#171;factory&#187;</text><text fill="#000000" font-family="sans-serif" font-size="14" lengthAdjust="spacing" textLength="123" x="776" y="110.5117">RepositoryFactory</text><rect fill="#E3E3E3" height="46.9766" rx="2.5" ry="2.5" style="stroke:#181818;stroke-width:0.5;" width="137" x="769" y="505.1914"/><text fill="#000000" font-family="sans-serif" font-size="14" font-style="italic" lengthAdjust="spacing" textLength="61" x="807" y="525.7266">&#171;factory&#187;</text><text fill="#000000" font-family="sans-serif" font-size="14" lengthAdjust="spacing" textLength="123" x="776" y="542.2148">RepositoryFactory</text><text fill="#000000" font-family="sans-serif" font-size="14" font-style="italic" lengthAdjust="spacing" textLength="84" x="945.5" y="102.0234">&#171;repository&#187;</text><text fill="#000000" font-family="sans-serif" font-size="14" lengthAdjust="spacing" textLength="143" x="916" y="118.5117">CandidateRepository</text><path d="M972.5,52.4883 C972.5,42.4883 990.5,42.4883 990.5,42.4883 C990.5,42.4883 1008.5,42.4883 1008.5,52.4883 L1008.5,78.4883 C1008.5,88.4883 990.5,88.4883 990.5,88.4883 C990.5,88.4883 972.5,88.4883 972.5,78.4883 L972.5,52.4883 " fill="#E3E3E3" style="stroke:#181818;stroke-width:1.5;"/><path d="M972.5,52.4883 C972.5,62.4883 990.5,62.4883 990.5,62.4883 C990.5,62.4883 1008.5,62.4883 1008.5,52.4883 " fill="none" style="stroke:#181818;stroke-width:1.5;"/><text fill="#000000" font-family="sans-serif" font-size="14" font-style="italic" lengthAdjust="spacing" textLength="84" x="945.5" y="518.7266">&#171;repository&#187;</text><text fill="#000000" font-family="sans-serif" font-size="14" lengthAdjust="spacing" textLength="143" x="916" y="535.2148">CandidateRepository</text><path d="M972.5,548.168 C972.5,538.168 990.5,538.168 990.5,538.168 C990.5,538.168 1008.5,538.168 1008.5,548.168 L1008.5,574.168 C1008.5,584.168 990.5,584.168 990.5,584.168 C990.5,584.168 972.5,584.168 972.5,574.168 L972.5,548.168 " fill="#E3E3E3" style="stroke:#181818;stroke-width:1.5;"/><path d="M972.5,548.168 C972.5,558.168 990.5,558.168 990.5,558.168 C990.5,558.168 1008.5,558.168 1008.5,548.168 " fill="none" style="stroke:#181818;stroke-width:1.5;"/><rect fill="#FFFFFF" height="365.7266" style="stroke:#181818;stroke-width:1.0;" width="10" x="34" y="131.4648"/><rect fill="#FFFFFF" height="344.416" style="stroke:#181818;stroke-width:1.0;" width="10" x="315" y="152.7754"/><rect fill="#FFFFFF" height="205.1738" style="stroke:#181818;stroke-width:1.0;" width="10" x="506" y="211.3965"/><rect fill="#FFFFFF" height="58.6211" style="stroke:#181818;stroke-width:1.0;" width="10" x="681" y="240.707"/><rect fill="#FFFFFF" height="58.6211" style="stroke:#181818;stroke-width:1.0;" width="10" x="832.5" y="328.6387"/><polygon fill="#181818" points="303,148.7754,313,152.7754,303,156.7754,307,152.7754" style="stroke:#181818;stroke-width:1.0;"/><line style="stroke:#181818;stroke-width:1.0;" x1="44" x2="309" y1="152.7754" y2="152.7754"/><text fill="#000000" font-family="sans-serif" font-size="13" font-weight="bold" lengthAdjust="spacing" textLength="9" x="51" y="148.0332">1</text><text fill="#000000" font-family="sans-serif" font-size="13" lengthAdjust="spacing" textLength="154" x="64" y="148.0332">ask to list all candidates</text><polygon fill="#181818" points="499,178.0859,509,182.0859,499,186.0859,503,182.0859" style="stroke:#181818;stroke-width:1.0;"/><line style="stroke:#181818;stroke-width:1.0;" x1="325" x2="505" y1="182.0859" y2="182.0859"/><text fill="#000000" font-family="sans-serif" font-size="13" font-weight="bold" lengthAdjust="spacing" textLength="9" x="332" y="177.3438">2</text><text fill="#000000" font-family="sans-serif" font-size="13" lengthAdjust="spacing" textLength="46" x="345" y="177.3438">create()</text><polygon fill="#181818" points="494,207.3965,504,211.3965,494,215.3965,498,211.3965" style="stroke:#181818;stroke-width:1.0;"/><line style="stroke:#181818;stroke-width:1.0;" x1="325" x2="500" y1="211.3965" y2="211.3965"/><text fill="#000000" font-family="sans-serif" font-size="13" font-weight="bold" lengthAdjust="spacing" textLength="9" x="332" y="206.6543">3</text><text fill="#000000" font-family="sans-serif" font-size="13" lengthAdjust="spacing" textLength="149" x="345" y="206.6543">getAllCandidateEmails()</text><polygon fill="#181818" points="669,236.707,679,240.707,669,244.707,673,240.707" style="stroke:#181818;stroke-width:1.0;"/><line style="stroke:#181818;stroke-width:1.0;" x1="516" x2="675" y1="240.707" y2="240.707"/><text fill="#000000" font-family="sans-serif" font-size="13" font-weight="bold" lengthAdjust="spacing" textLength="9" x="523" y="235.9648">4</text><text fill="#000000" font-family="sans-serif" font-size="13" lengthAdjust="spacing" textLength="83" x="536" y="235.9648">repositories()</text><polygon fill="#181818" points="825.5,266.0176,835.5,270.0176,825.5,274.0176,829.5,270.0176" style="stroke:#181818;stroke-width:1.0;"/><line style="stroke:#181818;stroke-width:1.0;" x1="691" x2="831.5" y1="270.0176" y2="270.0176"/><text fill="#000000" font-family="sans-serif" font-size="13" font-weight="bold" lengthAdjust="spacing" textLength="9" x="698" y="265.2754">5</text><text fill="#000000" font-family="sans-serif" font-size="13" lengthAdjust="spacing" textLength="38" x="711" y="265.2754">create</text><polygon fill="#181818" points="527,295.3281,517,299.3281,527,303.3281,523,299.3281" style="stroke:#181818;stroke-width:1.0;"/><line style="stroke:#181818;stroke-width:1.0;stroke-dasharray:2.0,2.0;" x1="521" x2="685" y1="299.3281" y2="299.3281"/><text fill="#000000" font-family="sans-serif" font-size="13" font-weight="bold" lengthAdjust="spacing" textLength="9" x="533" y="294.5859">6</text><text fill="#000000" font-family="sans-serif" font-size="13" lengthAdjust="spacing" textLength="44" x="546" y="294.5859">factory</text><polygon fill="#181818" points="820.5,324.6387,830.5,328.6387,820.5,332.6387,824.5,328.6387" style="stroke:#181818;stroke-width:1.0;"/><line style="stroke:#181818;stroke-width:1.0;" x1="516" x2="826.5" y1="328.6387" y2="328.6387"/><text fill="#000000" font-family="sans-serif" font-size="13" font-weight="bold" lengthAdjust="spacing" textLength="9" x="523" y="323.8965">7</text><text fill="#000000" font-family="sans-serif" font-size="13" lengthAdjust="spacing" textLength="50" x="536" y="323.8965">findAll()</text><polygon fill="#181818" points="978.5,353.9492,988.5,357.9492,978.5,361.9492,982.5,357.9492" style="stroke:#181818;stroke-width:1.0;"/><line style="stroke:#181818;stroke-width:1.0;" x1="842.5" x2="984.5" y1="357.9492" y2="357.9492"/><text fill="#000000" font-family="sans-serif" font-size="13" font-weight="bold" lengthAdjust="spacing" textLength="9" x="849.5" y="353.207">8</text><text fill="#000000" font-family="sans-serif" font-size="13" lengthAdjust="spacing" textLength="38" x="862.5" y="353.207">create</text><polygon fill="#181818" points="527,383.2598,517,387.2598,527,391.2598,523,387.2598" style="stroke:#181818;stroke-width:1.0;"/><line style="stroke:#181818;stroke-width:1.0;stroke-dasharray:2.0,2.0;" x1="521" x2="836.5" y1="387.2598" y2="387.2598"/><text fill="#000000" font-family="sans-serif" font-size="13" font-weight="bold" lengthAdjust="spacing" textLength="9" x="533" y="382.5176">9</text><text fill="#000000" font-family="sans-serif" font-size="13" lengthAdjust="spacing" textLength="68" x="546" y="382.5176">candidates</text><polygon fill="#181818" points="336,412.5703,326,416.5703,336,420.5703,332,416.5703" style="stroke:#181818;stroke-width:1.0;"/><line style="stroke:#181818;stroke-width:1.0;stroke-dasharray:2.0,2.0;" x1="330" x2="510" y1="416.5703" y2="416.5703"/><text fill="#000000" font-family="sans-serif" font-size="13" font-weight="bold" lengthAdjust="spacing" textLength="18" x="342" y="411.8281">10</text><text fill="#000000" font-family="sans-serif" font-size="13" lengthAdjust="spacing" textLength="41" x="364" y="411.8281">emails</text><line style="stroke:#181818;stroke-width:1.0;" x1="325" x2="367" y1="445.8809" y2="445.8809"/><line style="stroke:#181818;stroke-width:1.0;" x1="367" x2="367" y1="445.8809" y2="458.8809"/><line style="stroke:#181818;stroke-width:1.0;" x1="326" x2="367" y1="458.8809" y2="458.8809"/><polygon fill="#181818" points="336,454.8809,326,458.8809,336,462.8809,332,458.8809" style="stroke:#181818;stroke-width:1.0;"/><text fill="#000000" font-family="sans-serif" font-size="13" font-weight="bold" lengthAdjust="spacing" textLength="18" x="332" y="441.1387">11</text><text fill="#000000" font-family="sans-serif" font-size="13" lengthAdjust="spacing" textLength="41" x="354" y="441.1387">show()</text><polygon fill="#181818" points="55,484.1914,45,488.1914,55,492.1914,51,488.1914" style="stroke:#181818;stroke-width:1.0;"/><line style="stroke:#181818;stroke-width:1.0;stroke-dasharray:2.0,2.0;" x1="49" x2="314" y1="488.1914" y2="488.1914"/><text fill="#000000" font-family="sans-serif" font-size="13" font-weight="bold" lengthAdjust="spacing" textLength="18" x="61" y="483.4492">12</text><text fill="#000000" font-family="sans-serif" font-size="13" lengthAdjust="spacing" textLength="225" x="83" y="483.4492">display the list of all the candidates</text><!--SRC=[VLB1Rjim3BthAtZRUYWGx1WO0Ofs1GeCwB0W7y38j2r4bbo9MUk_B-N4ikDwyy6GoFSU7qd5at4T1coXzSxh9lYMWCEPLCoP3lK9QzfpRma2QKPNspaWDbZwT-DggD16KWhFxDsvFL9GYWqBRTz7fXRsz7OcfmcU3DQ9UW-7FVpOR3PQgM-DAGagx_deFnHgzW5UEmgO3XZX8KMKb6IZJOUEuPU9_8YkD2KonSDBGic_ABf0aHmZ6-zsk_zm7htZuAsbeSBiLXJOTTReDOdV5AAef4OIWpuuaMVHv62wBTX_gFFHI2lzyz1ZdyZZiIYgoqb8OX2F60cotOawk5q95qN85v58KpH_1N8Ttl27-vrCQIiI9s0FLcm2MWiwJsMY7LuKo2T35T8qdYteG9B_VlUFT4tyO6rs-BD5O-CLdSKdWXeIi_6Bt7oUMyXj6HfrRhHcw9oSAuZWEEFH_3hkfX71NlUHmIMjripvsoQccfLnfOnapVlpeiH8IbPMTlp5VyOllSyskc9_B9k-XV7XXOW03NjJjxp5sYxB7-2nyU_Iu1YLyEN1RQ4qiRFO0pTqUN2-6jvSkizSgay0]--></g></svg>